# Blender v2.79 (sub 0) OBJ File: 'SpecialRing.blend'
# www.blender.org
mtllib Fish.mtl
o Fish_5
v 0.363820 1.464641 1.016788
v -0.014385 1.371820 1.237952
v -0.024441 1.658575 1.465128
v 0.467977 1.403763 0.488270
v 0.029215 0.967814 0.253057
v 0.076736 1.090079 0.767030
v 0.489534 1.380561 0.021995
v 0.008839 0.953617 0.061435
v 0.420350 1.423994 -0.626377
v 0.097989 0.978713 -0.464011
v 0.267435 1.549198 -1.171444
v 0.049960 1.097093 -1.012989
v -0.096749 1.888153 -1.555981
v -0.090795 1.717115 -1.487929
v -0.040097 2.374644 1.818783
v -0.026598 2.548207 1.513840
v 0.146565 2.240059 1.568950
v -0.040848 2.240059 1.835763
v 0.433125 2.239700 1.187509
v 0.562161 2.240608 0.621365
v 0.599781 2.240295 -0.006236
v 0.529404 2.240059 -0.713770
v 0.376986 2.240059 -1.260074
v 0.086634 2.240059 -1.562152
v 0.309889 2.994605 1.102927
v 0.400479 3.102524 0.610236
v 0.437917 3.121138 0.010952
v 0.391860 3.062551 -0.649520
v 0.251998 2.734111 -1.150614
v -0.089453 2.489900 -1.472592
v 0.001130 3.352736 0.887479
v -0.017581 3.048545 1.310170
v 0.137926 3.489256 0.502705
v 0.142667 3.521708 0.032826
v 0.134235 3.473549 -0.452441
v 0.078081 3.182981 -0.930445
v -0.081149 2.652751 -1.377677
v -0.106903 2.060495 -1.782038
v -0.295122 1.581194 -1.965643
v -0.278079 2.912328 -1.927744
v -0.352304 2.764545 -2.053514
v -0.095931 2.397803 -1.764257
v -0.367790 1.725933 -2.072540
v -0.422261 2.242242 -2.068478
v -0.113762 2.240059 -1.845265
v -0.468948 2.628953 -2.125837
v -0.471712 1.853458 -2.129233
v 0.133899 3.733210 -0.938912
v 0.144355 3.873884 -0.396018
v 0.025280 3.548825 -1.284294
v -0.005612 3.055914 -1.280162
v 0.052738 3.776985 0.506890
v 0.157683 3.834061 0.080683
v 0.115482 4.225654 -2.396312
v 0.121318 4.157434 -1.417157
v 0.064652 4.338009 -0.967561
v 0.059969 4.090953 0.095833
v 0.063439 4.340320 -0.379403
v 0.031967 0.754893 -0.054798
v 0.102043 0.720674 -0.520119
v 0.059562 0.710334 -1.107338
v -0.075867 1.208933 -1.389595
v 0.010280 0.407637 -1.328887
v -0.100363 0.166008 -1.620655
v -0.034643 0.273323 -1.058330
v 0.056972 0.450038 -0.833419
v -0.105312 0.385178 -1.804052
v -0.067060 0.284404 -1.724009
v 0.027716 0.545048 -0.385742
v -0.068318 0.807555 -1.416054
v 0.128298 0.966644 1.037715
v 0.191135 0.807093 0.609877
v 0.124267 0.721132 0.247741
v 0.190984 0.631317 0.362527
v 0.155214 0.520019 0.487336
v -0.191366 0.143783 -2.389568
v 0.183313 0.349555 0.009347
v -0.598001 3.094718 -2.284390
v -0.606597 1.454486 -2.294952
v 0.073368 3.993993 -1.649283
v -0.371567 1.464641 0.984234
v -0.438496 1.403763 0.469773
v -0.063536 1.090079 0.760821
v -0.472114 1.380561 0.025298
v -0.444568 1.423994 -0.550707
v -0.098909 0.978713 -0.446784
v -0.388626 1.549198 -1.114047
v -0.146939 1.097093 -0.995763
v -0.455686 2.239700 1.148163
v -0.203952 2.240059 1.553434
v -0.538031 2.240608 0.598916
v -0.582553 2.240295 -0.002176
v -0.567141 2.240059 -0.617834
v -0.511903 2.240059 -1.182307
v -0.278417 2.240059 -1.530214
v -0.325458 2.994605 1.074802
v -0.376029 3.102524 0.594391
v -0.420575 3.121138 0.013900
v -0.420529 3.062551 -0.578445
v -0.369806 2.734111 -1.096213
v -0.101130 3.489256 0.492122
v -0.125181 3.521708 0.033746
v -0.132596 3.473549 -0.429096
v -0.160299 3.182981 -0.909590
v -0.038664 2.048520 1.786411
v -0.244332 2.060495 -1.697231
v -0.421810 2.764545 -1.996940
v -0.233360 2.397803 -1.679452
v -0.437296 1.725933 -2.015966
v -0.297769 2.240059 -1.731716
v -0.073476 3.743220 -0.941449
v -0.083583 3.884886 -0.398807
v -0.059867 3.843425 0.084008
v 0.024866 4.162595 -1.420994
v -0.103005 0.715834 -0.505201
v -0.145486 0.705494 -1.092419
v -0.129434 0.405347 -1.315525
v -0.082742 0.447748 -0.820056
v -0.159049 0.283562 -1.713097
v 0.051444 0.794013 0.611594
v 0.098986 0.620566 0.360953
v -0.478092 2.519018 0.992208
v -0.541315 2.463351 1.168774
v -0.498344 2.372529 1.002316
v -0.419239 2.593106 1.113568
v -0.380639 2.520706 1.245034
v -0.400891 2.374218 1.255141
v -0.459744 2.300129 1.133782
v 0.516598 2.463351 1.215606
v 0.469224 2.519018 1.034144
v 0.488504 2.372530 1.046002
v 0.399878 2.593107 1.149828
v 0.349811 2.520706 1.277370
v 0.369091 2.374218 1.289227
v 0.438437 2.300129 1.173543
vn 0.5230 -0.5179 0.6769
vn 0.6692 -0.7344 0.1128
vn 0.6999 -0.6807 0.2163
vn 0.6633 -0.7482 -0.0151
vn 0.6847 -0.7257 0.0678
vn 0.8240 -0.5552 0.1133
vn 0.6538 -0.7471 -0.1198
vn 0.8609 -0.4765 -0.1781
vn 0.6983 -0.6297 -0.3405
vn 0.5530 -0.2913 -0.7806
vn 0.7989 0.5069 0.3238
vn 0.8164 0.0678 0.5735
vn 0.6908 -0.2139 0.6907
vn 0.7563 -0.3239 0.5685
vn 0.9680 -0.1419 0.2071
vn 0.9661 -0.1348 0.2200
vn 0.9907 -0.1253 0.0520
vn 0.9909 -0.1210 0.0595
vn 0.9830 -0.1436 -0.1145
vn 0.9867 -0.1297 -0.0981
vn 0.9338 -0.1872 -0.3050
vn 0.9515 -0.1556 -0.2655
vn 0.5473 -0.2989 -0.7818
vn 0.7065 -0.1992 -0.6791
vn 0.7844 0.1941 0.5891
vn 0.4508 0.3964 0.7998
vn 0.9585 0.1826 0.2188
vn 0.9595 0.1808 0.2160
vn 0.9820 0.1793 0.0588
vn 0.9805 0.1848 0.0670
vn 0.9803 0.1716 -0.0976
vn 0.9797 0.1817 -0.0844
vn 0.9218 0.2902 -0.2572
vn 0.9100 0.1813 -0.3728
vn 0.5750 0.6033 -0.5526
vn 0.5263 0.3087 -0.7923
vn 0.4550 0.7131 0.5333
vn 0.7603 0.5911 0.2693
vn 0.5286 0.7232 0.4445
vn 0.8049 0.5895 0.0686
vn 0.8202 0.5701 0.0476
vn 0.8185 0.5644 -0.1071
vn 0.8009 0.5943 -0.0729
vn 0.6720 0.5193 -0.5280
vn 0.6422 0.6192 -0.4518
vn 0.3892 0.5228 -0.7584
vn 0.9303 -0.2704 -0.2479
vn 0.8029 0.0973 -0.5882
vn 0.7799 -0.0679 -0.6222
vn 0.5550 0.3295 -0.7638
vn 0.6879 -0.0245 -0.7254
vn 0.5657 -0.2546 -0.7843
vn 0.6808 0.0278 -0.7319
vn 0.9473 0.2987 -0.1154
vn 0.8044 -0.1698 -0.5694
vn 0.8218 -0.4347 -0.3683
vn 0.6429 0.6162 -0.4550
vn 0.9926 -0.1204 0.0160
vn 0.4308 0.4379 -0.7891
vn 0.4443 -0.4790 -0.7571
vn 0.5445 0.3078 0.7803
vn 0.4769 -0.7105 0.5174
vn 0.9933 -0.1016 -0.0549
vn 0.9996 -0.0234 -0.0132
vn 0.9611 -0.0625 -0.2689
vn 0.9752 -0.1020 -0.1963
vn 0.8792 0.2544 0.4028
vn 0.9702 -0.0816 0.2280
vn 0.9586 0.2834 0.0292
vn 0.9993 -0.0211 -0.0297
vn 0.9989 -0.0461 -0.0128
vn 0.9629 0.2697 0.0130
vn 0.9058 0.3288 0.2671
vn 0.9851 0.1714 -0.0132
vn 0.9221 0.3398 0.1850
vn 0.9853 0.1709 0.0014
vn 0.9926 0.1114 -0.0480
vn 0.9606 -0.1948 -0.1981
vn 0.9901 0.1170 0.0778
vn 0.9856 0.0164 0.1680
vn 0.9885 -0.0171 0.1501
vn 0.9962 0.0331 -0.0800
vn 0.9964 0.0425 -0.0728
vn 0.9447 -0.0354 -0.3261
vn 0.9241 -0.3804 -0.0354
vn 0.9117 -0.4077 -0.0510
vn 0.9554 0.1716 -0.2405
vn 0.7587 -0.6254 0.1823
vn 0.9277 0.0419 -0.3711
vn 0.9523 0.0944 -0.2901
vn 0.9445 -0.3033 0.1261
vn 0.9472 -0.2762 0.1630
vn 0.9914 -0.0992 -0.0849
vn 0.9940 -0.0840 -0.0704
vn 0.9611 0.1365 -0.2402
vn 0.9300 0.1061 -0.3518
vn 0.9394 0.3421 -0.0229
vn 0.9262 0.3770 -0.0045
vn 0.8695 0.4564 -0.1890
vn 0.9016 0.3528 -0.2502
vn 0.9024 0.3509 -0.2499
vn 0.9522 -0.2127 0.2192
vn 0.9316 -0.3495 -0.1002
vn 0.9765 -0.1782 0.1210
vn 0.6061 -0.1006 -0.7890
vn 0.7433 -0.1137 -0.6593
vn 0.9734 -0.1382 -0.1827
vn 0.9677 -0.2509 -0.0232
vn 0.9816 -0.1726 -0.0812
vn 0.9393 -0.3338 -0.0797
vn 0.9767 -0.1751 0.1238
vn 0.9572 0.1895 -0.2188
vn 0.9061 0.3208 -0.2756
vn 0.6396 -0.1479 -0.7544
vn 0.6261 0.1721 -0.7605
vn 0.7716 0.1404 -0.6204
vn 0.5928 0.1297 -0.7948
vn -0.5807 -0.5179 0.6281
vn -0.7075 -0.6851 0.1731
vn -0.6664 -0.7434 0.0573
vn -0.6568 -0.7488 0.0888
vn -0.6639 -0.7373 0.1252
vn -0.6576 -0.7482 -0.0879
vn -0.7977 -0.5865 0.1402
vn -0.7468 -0.6297 -0.2141
vn -0.8788 -0.4765 -0.0259
vn -0.6802 -0.2913 -0.6727
vn -0.8035 -0.3239 0.4994
vn -0.7491 -0.2139 0.6270
vn -0.9796 -0.1373 0.1466
vn -0.9798 -0.1387 0.1439
vn -0.9889 -0.1289 0.0733
vn -0.9889 -0.1244 0.0813
vn -0.9914 -0.1281 -0.0248
vn -0.9865 -0.1530 -0.0587
vn -0.9831 -0.1556 -0.0962
vn -0.9726 -0.1872 -0.1382
vn -0.8137 -0.1992 -0.5461
vn -0.6747 -0.2989 -0.6749
vn -0.5197 0.3964 0.7568
vn -0.8334 0.1941 0.5175
vn -0.9729 0.1817 0.1432
vn -0.9721 0.1835 0.1460
vn -0.9795 0.1845 0.0811
vn -0.9812 0.1791 0.0726
vn -0.9833 0.1811 -0.0180
vn -0.9840 0.1766 -0.0247
vn -0.9609 0.1813 -0.2091
vn -0.9524 0.2902 -0.0932
vn -0.6559 0.3087 -0.6888
vn -0.6622 0.6033 -0.4444
vn -0.5003 0.7131 0.4910
vn -0.5658 0.7232 0.3961
vn -0.7679 0.6030 0.2163
vn -0.8016 0.5920 0.0840
vn -0.8041 0.5890 0.0806
vn -0.8027 0.5944 -0.0490
vn -0.8076 0.5869 -0.0581
vn -0.7109 0.6192 -0.3335
vn -0.7535 0.5193 -0.4032
vn -0.5150 0.5228 -0.6793
vn -0.8767 -0.3246 0.3551
vn -0.8577 -0.1374 0.4955
vn -0.7987 -0.2274 0.5571
vn -0.6395 0.2883 0.7127
vn -0.6022 -0.3405 0.7220
vn -0.8923 -0.0410 0.4497
vn -0.9056 0.2583 0.3364
vn -0.8925 0.0434 0.4490
vn -0.9178 -0.2082 0.3380
vn -0.8429 0.1726 0.5096
vn -0.8330 -0.4533 0.3173
vn -0.9591 -0.2677 0.0921
vn -0.8431 0.1759 0.5082
vn -0.8037 0.5900 0.0772
vn -0.5613 0.4379 -0.7022
vn -0.5690 -0.4790 -0.6684
vn -0.6113 0.3078 0.7291
vn -0.5208 -0.7105 0.4732
vn -0.9913 0.1218 -0.0503
vn -0.9879 0.1511 -0.0344
vn -0.9018 0.1161 -0.4162
vn -0.9503 0.0570 -0.3060
vn -0.8298 0.4252 0.3615
vn -0.8807 0.4669 0.0793
vn -0.9494 0.1496 0.2763
vn -0.9798 0.1997 -0.0051
vn -0.9918 0.1139 0.0585
vn -0.9266 0.3708 -0.0621
vn -0.8657 0.4051 0.2942
vn -0.8834 0.4175 0.2126
vn -0.9500 0.3036 0.0727
vn -0.9720 0.2224 -0.0762
vn -0.9516 0.3073 -0.0032
vn -0.9741 0.2261 -0.0020
vn -0.9674 -0.0557 -0.2471
vn -0.9555 -0.0497 0.2907
vn -0.9557 -0.2233 0.1916
vn -0.9971 -0.0216 0.0725
vn -0.9963 -0.0037 0.0864
vn -0.9784 -0.0666 -0.1955
vn -0.9025 -0.4134 0.1204
vn -0.9277 -0.3316 0.1717
vn -0.9042 0.4226 -0.0621
vn -0.7047 -0.6328 0.3210
vn -0.9852 0.0376 -0.1671
vn -0.9725 -0.0029 -0.2328
vn -0.8471 -0.4439 0.2923
vn -0.8471 -0.4303 0.3118
vn -0.9841 -0.1613 0.0740
vn -0.9860 -0.1301 0.1041
vn -0.9746 0.0977 -0.2016
vn -0.9891 0.1367 -0.0545
vn -0.8051 -0.4849 0.3416
vn -0.8120 -0.4621 0.3565
vn -0.9278 -0.3550 -0.1146
vn -0.9432 -0.3181 -0.0957
vn -0.9795 0.0208 -0.2002
vn -0.8205 -0.4629 0.3355
vn -0.9227 -0.3664 0.1198
vn -0.9127 -0.3990 0.0886
vn -0.8956 -0.1006 0.4334
vn -0.6091 -0.3510 0.7112
vn -0.8529 0.2682 -0.4480
vn -0.9841 -0.1465 -0.1009
vn -0.9830 -0.0405 -0.1789
vn -0.9286 -0.3298 0.1702
vn -0.9155 -0.3905 0.0966
vn -0.8997 0.4340 -0.0467
vn -0.9740 -0.0097 -0.2261
vn -0.8996 -0.0929 0.4267
vn -0.9014 0.1249 0.4146
vn -0.6370 0.2840 0.7166
vn -0.8986 0.1297 0.4191
vn 0.8419 -0.3246 0.4312
vn 0.8105 -0.1374 0.5693
vn -0.8244 0.5069 0.2520
vn -0.8639 0.0678 0.4991
vn -0.9463 0.1098 -0.3042
vn -0.7384 0.6724 -0.0524
vn -0.4962 0.6907 0.5261
vn -0.4613 0.1244 0.8785
vn -0.6581 -0.4572 0.5982
vn -0.8932 -0.4495 0.0147
vn 0.9694 0.1098 -0.2194
vn 0.7401 0.6724 0.0130
vn 0.4478 0.6907 0.5678
vn 0.3819 0.1244 0.9158
vn 0.6027 -0.4572 0.6541
vn 0.8884 -0.4495 0.0936
usemtl None
s off
f 1//1 3//1 2//1
f 4//2 6//2 5//2
f 6//3 4//3 1//3
f 7//4 5//4 8//4
f 5//5 7//5 4//5
f 9//6 8//6 10//6
f 8//7 9//7 7//7
f 11//8 10//8 12//8
f 10//9 11//9 9//9
f 13//10 11//10 14//10
f 15//11 17//11 16//11
f 17//12 15//12 18//12
f 19//13 3//13 1//13
f 3//14 19//14 17//14
f 20//15 1//15 4//15
f 1//16 20//16 19//16
f 21//17 4//17 7//17
f 4//18 21//18 20//18
f 22//19 7//19 9//19
f 7//20 22//20 21//20
f 23//21 9//21 11//21
f 9//22 23//22 22//22
f 24//23 11//23 13//23
f 11//24 24//24 23//24
f 25//25 17//25 19//25
f 17//26 25//26 16//26
f 26//27 19//27 20//27
f 19//28 26//28 25//28
f 27//29 20//29 21//29
f 20//30 27//30 26//30
f 28//31 21//31 22//31
f 21//32 28//32 27//32
f 29//33 22//33 23//33
f 22//34 29//34 28//34
f 30//35 23//35 24//35
f 23//36 30//36 29//36
f 31//37 32//37 25//37
f 33//38 25//38 26//38
f 25//39 33//39 31//39
f 34//40 26//40 27//40
f 26//41 34//41 33//41
f 35//42 27//42 28//42
f 27//43 35//43 34//43
f 36//44 28//44 29//44
f 28//45 36//45 35//45
f 37//46 36//46 29//46
f 13//47 39//47 38//47
f 40//48 42//48 41//48
f 38//49 39//49 43//49
f 44//50 42//50 45//50
f 42//51 44//51 46//51
f 38//52 44//52 45//52
f 44//53 38//53 47//53
f 40//54 30//54 42//54
f 24//55 38//55 45//55
f 38//56 24//56 13//56
f 45//57 30//57 24//57
f 30//58 45//58 42//58
f 37//59 29//59 30//59
f 14//60 11//60 12//60
f 25//61 32//61 16//61
f 1//62 2//62 6//62
f 48//63 35//63 36//63
f 35//64 48//64 49//64
f 48//65 51//65 50//65
f 51//66 48//66 36//66
f 52//67 31//67 33//67
f 52//68 34//68 53//68
f 34//69 52//69 33//69
f 53//70 35//70 49//70
f 35//71 53//71 34//71
f 54//72 56//72 55//72
f 57//73 52//73 53//73
f 58//74 53//74 49//74
f 53//75 58//75 57//75
f 49//76 56//76 58//76
f 56//77 49//77 48//77
f 55//78 48//78 50//78
f 48//79 55//79 56//79
f 59//80 10//80 8//80
f 10//81 59//81 60//81
f 60//82 12//82 10//82
f 12//83 60//83 61//83
f 62//84 14//84 12//84
f 63//85 65//85 64//85
f 65//86 63//86 66//86
f 67//87 63//87 68//87
f 66//88 69//88 65//88
f 62//89 61//89 70//89
f 61//90 62//90 12//90
f 60//91 69//91 66//91
f 69//92 60//92 59//92
f 61//93 66//93 63//93
f 66//94 61//94 60//94
f 70//95 63//95 67//95
f 63//96 70//96 61//96
f 71//97 6//97 2//97
f 6//98 71//98 72//98
f 72//99 5//99 6//99
f 5//100 72//100 73//100
f 73//101 72//101 74//101
f 72//102 71//102 75//102
f 68//103 64//103 76//103
f 74//104 75//104 77//104
f 41//105 46//105 78//105
f 43//106 39//106 79//106
f 51//107 36//107 37//107
f 54//108 55//108 80//108
f 55//109 50//109 80//109
f 68//110 63//110 64//110
f 74//111 72//111 75//111
f 68//112 76//112 67//112
f 74//113 77//113 73//113
f 41//114 42//114 46//114
f 38//115 43//115 47//115
f 41//116 78//116 40//116
f 43//117 79//117 47//117
f 2//118 3//118 81//118
f 82//119 83//119 81//119
f 83//120 82//120 5//120
f 84//121 5//121 82//121
f 5//122 84//122 8//122
f 85//123 8//123 84//123
f 8//124 85//124 86//124
f 87//125 86//125 85//125
f 86//126 87//126 88//126
f 14//127 87//127 13//127
f 89//128 3//128 90//128
f 3//129 89//129 81//129
f 91//130 81//130 89//130
f 81//131 91//131 82//131
f 92//132 82//132 91//132
f 82//133 92//133 84//133
f 93//134 84//134 92//134
f 84//135 93//135 85//135
f 94//136 85//136 93//136
f 85//137 94//137 87//137
f 95//138 87//138 94//138
f 87//139 95//139 13//139
f 96//140 90//140 16//140
f 90//141 96//141 89//141
f 97//142 89//142 96//142
f 89//143 97//143 91//143
f 98//144 91//144 97//144
f 91//145 98//145 92//145
f 99//146 92//146 98//146
f 92//147 99//147 93//147
f 100//148 93//148 99//148
f 93//149 100//149 94//149
f 30//150 94//150 100//150
f 94//151 30//151 95//151
f 96//152 32//152 31//152
f 101//153 96//153 31//153
f 96//154 101//154 97//154
f 102//155 97//155 101//155
f 97//156 102//156 98//156
f 103//157 98//157 102//157
f 98//158 103//158 99//158
f 104//159 99//159 103//159
f 99//160 104//160 100//160
f 100//161 104//161 37//161
f 105//162 90//162 3//162
f 90//163 105//163 18//163
f 106//164 39//164 13//164
f 107//165 108//165 40//165
f 109//166 39//166 106//166
f 44//167 108//167 46//167
f 108//168 44//168 110//168
f 106//169 44//169 47//169
f 44//170 106//170 110//170
f 108//171 30//171 40//171
f 95//172 106//172 13//172
f 106//173 95//173 110//173
f 110//174 30//174 108//174
f 30//175 110//175 95//175
f 30//176 100//176 37//176
f 88//177 87//177 14//177
f 16//178 32//178 96//178
f 83//179 2//179 81//179
f 111//180 103//180 112//180
f 103//181 111//181 104//181
f 111//182 51//182 104//182
f 51//183 111//183 50//183
f 101//184 31//184 52//184
f 52//185 102//185 101//185
f 102//186 52//186 113//186
f 113//187 103//187 102//187
f 103//188 113//188 112//188
f 114//189 56//189 54//189
f 113//190 52//190 57//190
f 58//191 113//191 57//191
f 113//192 58//192 112//192
f 112//193 56//193 111//193
f 56//194 112//194 58//194
f 114//195 111//195 56//195
f 111//196 114//196 50//196
f 59//197 86//197 115//197
f 86//198 59//198 8//198
f 115//199 88//199 116//199
f 88//200 115//200 86//200
f 88//201 14//201 62//201
f 117//202 65//202 118//202
f 65//203 117//203 64//203
f 119//204 117//204 67//204
f 65//205 69//205 118//205
f 62//206 116//206 88//206
f 116//207 62//207 70//207
f 115//208 69//208 59//208
f 69//209 115//209 118//209
f 116//210 118//210 115//210
f 118//211 116//211 117//211
f 70//212 117//212 116//212
f 117//213 70//213 67//213
f 71//214 83//214 120//214
f 83//215 71//215 2//215
f 120//216 5//216 73//216
f 5//217 120//217 83//217
f 121//218 120//218 73//218
f 75//219 71//219 120//219
f 76//220 64//220 119//220
f 77//221 75//221 121//221
f 78//222 46//222 107//222
f 79//223 39//223 109//223
f 37//224 104//224 51//224
f 80//225 114//225 54//225
f 80//226 50//226 114//226
f 64//227 117//227 119//227
f 75//228 120//228 121//228
f 67//229 76//229 119//229
f 73//230 77//230 121//230
f 46//231 108//231 107//231
f 47//232 109//232 106//232
f 40//233 78//233 107//233
f 47//234 79//234 109//234
f 17//235 105//235 3//235
f 105//236 17//236 18//236
f 90//237 15//237 16//237
f 15//238 90//238 18//238
f 122//239 124//239 123//239
f 125//240 122//240 123//240
f 126//241 125//241 123//241
f 127//242 126//242 123//242
f 128//243 127//243 123//243
f 124//244 128//244 123//244
f 129//245 131//245 130//245
f 129//246 130//246 132//246
f 129//247 132//247 133//247
f 129//248 133//248 134//248
f 129//249 134//249 135//249
f 129//250 135//250 131//250
