# Blender v3.6.11 OBJ File: 'sataro_toy.blend'
# www.blender.org
mtllib Sataro.mtl
o obj_0
v -0.040313 0.033781 0.025384
v -0.029239 0.033937 0.024947
v -0.031743 0.046063 0.027185
v -0.018943 0.048392 0.026800
v -0.016705 0.035570 0.024442
v -0.003910 0.037898 0.023921
v -0.044068 0.044209 0.025457
v -0.034068 0.058870 0.027321
v -0.021223 0.061207 0.028053
v -0.036399 0.071675 0.027321
v -0.023554 0.074013 0.028053
v -0.038734 0.084480 0.027185
v -0.025933 0.086810 0.026800
v -0.040661 0.096711 0.024947
v -0.028356 0.099598 0.024442
v -0.051081 0.092956 0.025384
v -0.050921 0.081873 0.025457
v -0.049287 0.069330 0.025483
v -0.046957 0.056524 0.025483
v -0.006147 0.050721 0.026280
v 0.008395 0.040786 0.023416
v 0.006643 0.053048 0.025624
v -0.008428 0.063535 0.027532
v 0.004318 0.065855 0.025759
v -0.010758 0.076341 0.027532
v 0.001988 0.078661 0.025759
v -0.000348 0.091465 0.025624
v 0.014691 0.080972 0.022880
v 0.011802 0.093287 0.022906
v 0.008047 0.103716 0.022979
v -0.003028 0.103559 0.023416
v 0.017021 0.068166 0.022880
v 0.018655 0.055623 0.022906
v 0.018815 0.044540 0.022979
v -0.013138 0.089138 0.026280
v -0.015561 0.101927 0.023921
v -0.052926 0.093843 0.014091
v -0.052760 0.082317 0.014167
v -0.051815 0.081711 0.002775
v -0.051974 0.092794 0.002701
v -0.041206 0.033618 0.002701
v -0.041727 0.032301 0.014091
v -0.044961 0.044047 0.002775
v -0.045632 0.043147 0.014167
v -0.030209 0.032464 0.013636
v -0.030132 0.033775 0.002264
v 0.019766 0.043491 0.011590
v 0.019600 0.055017 0.011513
v 0.017762 0.055461 0.000223
v 0.017922 0.044378 0.000296
v 0.007502 0.040623 0.000733
v 0.008930 0.039586 0.012044
v -0.041555 0.096548 0.002264
v -0.042089 0.097748 0.013636
v 0.008568 0.105033 0.011590
v -0.002950 0.104870 0.012044
v -0.003921 0.103397 0.000733
v 0.007154 0.103553 0.000296
v -0.014217 0.088942 -0.001120
v -0.001416 0.091271 -0.001505
v -0.011936 0.076127 -0.002372
v 0.000909 0.078464 -0.001640
v 0.010909 0.093125 0.000223
v 0.013798 0.080810 0.000198
v -0.016454 0.101764 0.001239
v -0.029250 0.099436 0.001759
v -0.027012 0.086613 -0.000599
v -0.039802 0.084286 0.000057
v -0.050180 0.069168 0.002800
v -0.037477 0.071479 -0.000079
v -0.024731 0.073799 -0.001852
v -0.047850 0.056362 0.002800
v -0.035147 0.058673 -0.000079
v -0.032812 0.045869 0.000057
v -0.022401 0.060993 -0.001852
v -0.020021 0.048196 -0.000599
v -0.017598 0.035407 0.001759
v -0.004803 0.037736 0.001239
v -0.007226 0.050524 -0.001120
v 0.005575 0.052854 -0.001505
v -0.009605 0.063321 -0.002372
v 0.003239 0.065659 -0.001640
v 0.016128 0.068004 0.000198
v -0.015985 0.103173 0.012570
v -0.029292 0.100751 0.013111
v 0.015477 0.081380 0.011487
v 0.012473 0.094187 0.011513
v -0.051060 0.069272 0.014194
v 0.017900 0.068062 0.011487
v -0.048636 0.055954 0.014194
v -0.003867 0.036583 0.012570
v -0.017175 0.034161 0.013111
v 0.018040 -0.086047 -0.038940
v 0.009044 -0.085077 -0.039747
v 0.021933 -0.083039 -0.042582
v 0.008186 -0.054104 -0.004546
v 0.021130 -0.054104 -0.002318
v 0.000000 -0.034221 0.009360
v 0.011041 -0.075217 -0.047004
v 0.017505 -0.078204 -0.048436
v 0.005944 -0.081004 -0.045046
v 0.018315 -0.025086 0.011105
v 0.000000 -0.025086 0.015705
v -0.016763 -0.094923 0.021786
v -0.014925 -0.085421 0.009697
v -0.024354 -0.093853 0.017385
v -0.005895 -0.084898 0.007824
v -0.007733 -0.094400 0.019914
v -0.019753 -0.092618 -0.000702
v -0.014925 -0.095186 0.006776
v -0.024354 -0.098866 0.016500
v -0.016763 -0.099937 0.020902
v -0.007733 -0.099414 0.019029
v -0.005895 -0.092627 0.005130
v -0.019753 -0.083079 0.001313
v -0.008068 -0.088714 -0.006257
v -0.003940 -0.092579 -0.000841
v -0.016146 -0.091495 -0.005436
v -0.010396 -0.034221 -0.011246
v -0.021024 -0.031792 -0.009859
v -0.017442 -0.025086 -0.017851
v -0.018315 -0.025086 0.011105
v -0.024667 -0.025086 0.000000
v 0.000000 -0.034221 -0.014155
v 0.000000 -0.037429 0.000000
v 0.000000 -0.025086 -0.021552
v 0.007061 -0.035198 -0.020748
v 0.017442 -0.025086 -0.017851
v -0.050095 0.022938 0.007625
v -0.053420 0.023440 0.001020
v -0.047811 0.027814 0.009351
v -0.047029 0.027670 -0.000927
v -0.059560 0.024548 0.001817
v -0.058006 0.029538 0.000206
v -0.060678 0.024466 0.008814
v -0.059578 0.029527 0.010141
v -0.056629 0.024010 0.013643
v -0.053840 0.028806 0.016999
v -0.051019 0.023017 0.013712
v -0.045866 0.027442 0.017096
v -0.052067 0.039103 0.009284
v -0.047275 0.040836 0.014221
v -0.043107 0.036689 0.014292
v -0.043937 0.036886 0.008368
v -0.045874 0.032350 0.008860
v -0.044505 0.038952 0.001315
v -0.044642 0.033134 0.000194
v -0.042562 0.030907 0.005267
v -0.042867 0.027958 0.005758
v -0.050925 0.039181 0.002131
v -0.044664 0.011122 0.000515
v -0.044881 0.002442 0.005138
v -0.049969 -0.003246 0.004944
v -0.060254 -0.005146 -0.003916
v -0.042127 0.010575 0.000929
v -0.040042 0.002261 0.005722
v -0.040722 -0.005427 0.004737
v -0.044297 -0.011683 -0.004420
v -0.031431 0.023119 0.008227
v -0.025858 0.019586 0.016039
v -0.024330 0.006410 0.016179
v -0.027831 -0.001176 0.005777
v -0.057469 -0.001633 -0.012350
v -0.051734 0.005970 -0.009541
v -0.048035 -0.006188 -0.015343
v -0.046412 0.006890 -0.010944
v -0.023644 0.014891 -0.007710
v -0.025858 0.026891 -0.002412
v 0.023336 0.082765 0.031528
v 0.024545 0.077983 0.032019
v 0.022486 0.082699 0.037451
v 0.023775 0.073135 0.040256
v 0.025754 0.073201 0.032511
v 0.028177 0.067964 0.036872
v 0.027252 0.068030 0.030785
v 0.027989 0.048189 0.031513
v 0.026434 0.053872 0.023809
v 0.025456 0.044772 0.028579
v 0.024529 0.049644 0.020644
v 0.001049 0.029952 0.017012
v 0.003749 0.037657 0.009335
v 0.008136 0.017895 0.017157
v 0.032389 0.040224 0.028603
v 0.017607 0.016960 0.008238
v 0.037429 0.040097 0.021315
v 0.035392 0.045718 0.031426
v 0.040353 0.048119 0.024222
v 0.033874 0.068073 0.036803
v 0.037944 0.067894 0.031974
v 0.031864 0.073245 0.040158
v 0.037644 0.073065 0.033300
v 0.027247 0.086148 0.037381
v 0.031713 0.083692 0.032444
v 0.008136 0.026377 -0.004263
v 0.036105 0.045072 0.013047
v 0.001049 0.037258 -0.001439
v 0.028647 0.050904 0.013515
v 0.038394 0.053839 0.016184
v 0.030306 0.057343 0.016811
v 0.036853 0.068149 0.024977
v 0.030615 0.068009 0.024180
v 0.036093 0.073320 0.023366
v 0.024959 0.073180 0.022233
v 0.030596 0.083947 0.025290
v 0.023450 0.078949 0.023354
v 0.021050 0.077072 0.028427
v 0.020892 0.074112 0.028918
v 0.024219 0.084717 0.024475
v 0.016128 -0.097872 -0.020290
v 0.016128 -0.094252 -0.018254
v 0.014538 -0.096389 -0.030018
v 0.014538 -0.093448 -0.023910
v 0.019775 -0.092608 -0.017447
v 0.019775 -0.092381 -0.023103
v 0.019775 -0.098264 -0.019484
v 0.019775 -0.097359 -0.029212
v 0.029307 -0.091347 -0.021089
v 0.029307 -0.091120 -0.026745
v 0.029307 -0.094967 -0.023126
v 0.029307 -0.094062 -0.032854
v 0.009044 -0.080100 -0.032281
v 0.021933 -0.078061 -0.035116
v 0.018040 -0.079486 -0.029891
v 0.017505 -0.073226 -0.040970
v 0.011041 -0.072728 -0.041574
v 0.005944 -0.076027 -0.037580
v 0.019660 -0.057311 -0.023763
v 0.012400 -0.057003 -0.024720
v 0.006676 -0.059042 -0.018381
v 0.008092 -0.061561 -0.010554
v 0.020260 -0.062160 -0.008690
v 0.024633 -0.060300 -0.014471
v 0.006679 -0.054104 -0.013907
v 0.025783 -0.054104 -0.009231
v 0.020492 -0.054104 -0.020342
v 0.012769 -0.054104 -0.021488
v -0.023986 -0.098866 0.022934
v -0.023986 -0.093853 0.023818
v -0.015476 -0.094923 0.028771
v -0.015476 -0.099937 0.027887
v -0.010307 -0.094400 0.025980
v -0.010307 -0.099414 0.025095
v -0.008068 -0.081212 -0.005373
v -0.016146 -0.081504 -0.004326
v -0.003940 -0.083041 0.001175
v -0.013750 -0.060048 0.005257
v -0.024378 -0.060340 0.006634
v -0.029124 -0.061915 0.014054
v -0.022772 -0.064257 0.025085
v -0.010891 -0.063734 0.022621
v -0.008317 -0.061877 0.013871
v -0.022295 -0.055641 0.029268
v -0.010414 -0.055641 0.026787
v -0.007841 -0.055641 0.017978
v -0.028648 -0.055641 0.018162
v -0.023902 -0.055641 0.010692
v -0.013274 -0.055641 0.009305
v -0.011143 0.038484 0.007994
v -0.010129 0.038010 0.010004
v -0.007457 0.037501 0.005139
v -0.005099 0.036399 0.009811
v -0.007457 0.034409 0.012946
v 0.021513 0.008059 0.004292
v 0.014170 0.003493 0.014148
v 0.024852 -0.009607 0.000000
v 0.017983 -0.010213 0.012030
v 0.024667 -0.025086 0.000000
v -0.013591 0.038065 0.007089
v -0.013150 0.036527 0.003033
v -0.013150 0.032155 0.014074
v -0.012405 0.024625 0.019678
v -0.008097 0.012300 0.020447
v -0.003556 -0.001354 0.017956
v -0.021282 -0.003643 0.013484
v -0.001820 -0.011962 0.017012
v -0.016039 0.036999 0.007817
v -0.018843 0.034049 0.004727
v -0.018843 0.030957 0.012535
v -0.021623 -0.013711 0.012030
v -0.017053 0.035911 0.009753
v -0.021201 0.031517 0.009229
v -0.028625 -0.005321 0.003353
v -0.028492 -0.014317 0.000000
v -0.016039 0.035437 0.011762
v -0.021282 0.002693 -0.007018
v -0.020680 -0.013627 -0.016007
v -0.013591 0.035856 0.012668
v -0.012405 0.034290 -0.004729
v -0.008097 0.023538 -0.007933
v -0.003556 0.007100 -0.009404
v -0.001820 -0.011962 -0.020147
v -0.011143 0.036921 0.011939
v 0.014170 0.009829 -0.006354
v 0.017040 -0.010297 -0.016007
v -0.044960 0.041899 0.007768
v 0.025126 0.087558 0.030928
vt 0.000000 0.000000
vt 0.200195 0.000000
vt 0.200195 0.200195
vt 0.400391 0.200195
vt 0.400391 0.000000
vt 0.599609 0.000000
vt 0.000000 0.200195
vt 0.200195 0.400391
vt 0.400391 0.400391
vt 0.200195 0.599609
vt 0.400391 0.599609
vt 0.200195 0.799805
vt 0.400391 0.799805
vt 0.200195 1.000000
vt 0.400391 1.000000
vt 0.000000 1.000000
vt 0.000000 0.799805
vt 0.000000 0.599609
vt 0.000000 0.400391
vt 0.599609 0.200195
vt 0.799805 0.000000
vt 0.799805 0.200195
vt 0.599609 0.400391
vt 0.799805 0.400391
vt 0.599609 0.599609
vt 0.799805 0.599609
vt 0.799805 0.799805
vt 1.000000 0.599609
vt 1.000000 0.799805
vt 1.000000 1.000000
vt 0.799805 1.000000
vt 1.000000 0.400391
vt 1.000000 0.200195
vt 1.000000 0.000000
vt 0.599609 0.799805
vt 0.599609 1.000000
vt 1.000000 1.000000
vt 1.000000 0.500000
vt 0.503906 0.999023
vt 0.503906 0.500000
vt 0.503906 0.000977
vt 1.000000 0.000000
vt 0.000000 0.000000
vt 0.000000 0.500000
vt 0.496094 0.000977
vt 0.496094 0.500000
vt 0.496094 0.999023
vt 0.000000 1.000000
vt 1.000000 1.000000
vt 1.000000 0.500000
vt 0.503906 0.999023
vt 0.503906 0.500000
vt 0.503906 0.000977
vt 1.000000 0.000000
vt 1.000000 1.000000
vt 1.000000 0.500000
vt 0.503906 0.999023
vt 0.503906 0.500000
vt 0.503906 0.000977
vt 1.000000 0.000000
vt 0.000000 0.000000
vt 0.000000 0.500000
vt 0.496094 0.000977
vt 0.496094 0.500000
vt 0.496094 0.999023
vt 0.000000 1.000000
vt 0.000000 0.000000
vt 0.000000 0.500000
vt 0.496094 0.000977
vt 0.496094 0.500000
vt 0.496094 0.999023
vt 1.000000 0.500000
vt 0.503906 0.999023
vt 0.503906 0.500000
vt 0.503906 0.000977
vt 1.000000 0.000000
vt 0.718750 0.545898
vt 0.535156 0.545898
vt 0.718750 0.859375
vt 0.535156 0.858398
vt 1.000000 0.545898
vt 1.000000 0.859375
vt 1.000000 1.000000
vt 0.535156 0.999023
vt 0.363281 0.545898
vt 0.828125 0.545898
vt 0.363281 0.999023
vt 0.828125 1.000000
vt 0.363281 0.999023
vt 0.363281 0.545898
vt 0.828125 1.000000
vt 0.828125 0.545898
vt 1.000000 0.859375
vt 1.000000 0.545898
vt 0.535156 0.858398
vt 0.535156 0.545898
vt 1.000000 1.000000
vt 0.535156 0.999023
vt 0.718750 0.859375
vt 0.718750 0.545898
vt 0.535156 0.858398
vt 0.535156 0.545898
vt 1.000000 0.545898
vt 0.535156 0.545898
vt 1.000000 0.859375
vt 0.535156 0.858398
vt 0.718750 0.545898
vt 0.535156 0.545898
vt 0.718750 0.859375
vt 0.535156 0.858398
vt 1.000000 0.545898
vt 0.535156 0.545898
vt 1.000000 1.000000
vt 0.535156 0.999023
vt 0.363281 0.545898
vt 0.828125 0.545898
vt 0.363281 0.999023
vt 0.828125 1.000000
vt 0.363281 0.999023
vt 0.363281 0.545898
vt 0.828125 1.000000
vt 0.828125 0.545898
vt 0.718750 0.859375
vt 0.718750 0.545898
vt 0.535156 0.858398
vt 0.535156 0.545898
vt 1.000000 0.859375
vt 1.000000 0.545898
vt 0.535156 0.999023
vt 0.535156 0.545898
vt 1.000000 1.000000
vt 1.000000 0.545898
vt 0.799805 0.000000
vt 0.599609 0.000000
vt 0.799805 0.500000
vt 0.599609 0.500000
vt 0.400391 0.000000
vt 0.400391 0.500000
vt 0.200195 0.000000
vt 0.200195 0.500000
vt 0.599609 0.000000
vt 0.400391 0.000000
vt 0.599609 0.500000
vt 0.400391 0.500000
vt 0.599609 1.000000
vt 0.400391 1.000000
vt 0.496094 0.000977
vt 0.000000 0.000000
vt 0.496094 0.500000
vt 0.000000 0.500000
vt 0.496094 0.999023
vt 0.000000 1.000000
vt 0.535156 0.858398
vt 0.718750 0.859375
vt 0.535156 0.545898
vt 0.718750 0.545898
vt 0.828125 1.000000
vt 0.363281 0.999023
vt 0.828125 0.545898
vt 0.363281 0.545898
vt 0.400391 0.000000
vt 0.200195 0.000000
vt 0.400391 0.500000
vt 0.200195 0.500000
vt 0.400391 1.000000
vt 0.599609 1.000000
vt 0.400391 0.500000
vt 0.599609 0.500000
vt 0.718750 0.545898
vt 0.535156 0.545898
vt 0.718750 0.859375
vt 0.535156 0.858398
vt 1.000000 0.545898
vt 1.000000 0.859375
vt 0.599609 0.000000
vt 0.400391 0.000000
vt 0.599609 0.500000
vt 0.400391 0.500000
vt 0.599609 1.000000
vt 0.400391 1.000000
vt 0.535156 0.858398
vt 0.718750 0.859375
vt 0.535156 0.545898
vt 0.718750 0.545898
vt 0.535156 0.858398
vt 0.718750 0.859375
vt 0.535156 0.545898
vt 0.718750 0.545898
vt 0.535156 0.858398
vt 1.000000 0.859375
vt 0.535156 0.545898
vt 1.000000 0.545898
vt 0.400391 0.000000
vt 0.200195 0.000000
vt 0.200195 0.500000
vt 0.400391 1.000000
vt 0.599609 1.000000
vt 0.400391 0.500000
vt 0.599609 0.500000
vt 0.599609 0.000000
vt 0.400391 0.000000
vt 0.599609 0.500000
vt 0.400391 0.500000
vt 0.599609 1.000000
vt 0.400391 1.000000
vt 0.535156 0.858398
vt 0.718750 0.859375
vt 0.535156 0.545898
vt 0.718750 0.545898
vt 0.400391 0.000000
vt 0.200195 0.000000
vt 0.200195 0.500000
vt 0.400391 1.000000
vt 0.599609 1.000000
vt 0.400391 0.500000
vt 0.599609 0.500000
vt 0.799805 1.000000
vt 0.599609 1.000000
vt 0.799805 0.500000
vt 0.599609 0.500000
vt 0.400391 1.000000
vt 0.400391 0.500000
vt 0.200195 1.000000
vt 0.200195 0.500000
vt 0.799805 0.000000
vt 0.599609 0.000000
vt 0.400391 0.000000
vt 0.200195 0.000000
vt 0.828125 1.000000
vt 0.363281 0.999023
vt 0.828125 0.545898
vt 0.363281 0.545898
vt 0.498047 0.845703
vt 0.498047 0.940430
vt 0.216797 0.845703
vt 0.498047 0.845703
vt 0.498047 0.940430
vt 0.216797 0.845703
vt 0.498047 0.845703
vt 0.498047 0.940430
vt 0.216797 0.845703
vt 0.498047 0.845703
vt 0.498047 0.940430
vt 0.216797 0.845703
vt 0.498047 0.845703
vt 0.216797 0.845703
vt 0.498047 0.845703
vt 0.498047 0.940430
vt 0.216797 0.845703
vt 0.498047 0.845703
vt 0.216797 0.845703
vt 0.498047 0.845703
vt 0.498047 0.940430
vt 0.216797 0.845703
vt 0.498047 0.845703
vt 0.216797 0.845703
vt 0.498047 0.845703
vt 0.498047 0.940430
vt 0.216797 0.845703
vt 0.498047 0.940430
vt 0.216797 0.845703
vt 0.498047 0.845703
vt 0.498047 0.940430
vt 0.498047 0.845703
vt 0.498047 0.940430
vt 0.216797 0.845703
vt 0.498047 0.940430
vt 0.498047 0.845703
vt 0.498047 0.940430
vt 0.216797 0.845703
vt 0.498047 0.845703
vt 0.498047 0.940430
vt 0.216797 0.845703
vt 0.498047 0.940430
vt 0.498047 0.845703
vt 0.498047 0.940430
vt 0.216797 0.845703
vt 0.498047 0.845703
vt 0.498047 0.940430
vt 0.216797 0.845703
vt 0.498047 0.940430
vt 0.216797 0.845703
vt 0.498047 0.845703
vt 0.216797 0.845703
vt 0.498047 0.845703
vt 0.498047 0.940430
vt 0.216797 0.845703
vt 0.262695 0.940430
vt 0.498047 0.940430
vt 0.262695 0.940430
vt 0.498047 0.940430
vt 0.498047 0.845703
vt 0.498047 0.845703
vt 0.216797 0.845703
vt 0.216797 0.845703
vt 0.498047 0.845703
vt 0.216797 0.845703
vt 0.498047 0.845703
vt 0.216797 0.845703
vt 0.262695 0.940430
vt 0.262695 0.940430
vt 0.498047 0.940430
vt 0.498047 0.940430
vt 0.498047 0.845703
vt 0.216797 0.845703
vt 0.262695 0.940430
vt 0.498047 0.940430
vt 0.498047 0.940430
vt 0.262695 0.940430
vt 0.262695 0.940430
vt 0.498047 0.940430
vt 0.498047 0.940430
vt 0.262695 0.940430
vt 0.262695 0.940430
vt 0.498047 0.845703
vt 0.216797 0.845703
vt 0.498047 0.940430
vt 0.262695 0.940430
vt 0.498047 0.940430
vt 0.498047 0.845703
vt 0.498047 0.845703
vt 0.216797 0.845703
vt 0.262695 0.940430
vt 0.498047 0.940430
vt 0.498047 0.845703
vt 0.216797 0.845703
vt 0.262695 0.940430
vt 0.498047 0.940430
vt 0.498047 0.845703
vt 0.216797 0.845703
vt 0.216797 0.845703
vt 0.498047 0.845703
vt 0.216797 0.845703
vt 0.262695 0.940430
vt 0.262695 0.940430
vt 0.498047 0.940430
vt 0.498047 0.845703
vt 0.216797 0.845703
vt 0.262695 0.940430
vt 0.498047 0.940430
vt 0.498047 0.845703
vt 0.216797 0.845703
vt 0.262695 0.940430
vt 0.498047 0.940430
vt 0.498047 0.940430
vt 0.498047 0.940430
vt 0.262695 0.940430
vt 0.262695 0.940430
vt 0.498047 0.940430
vt 0.262695 0.940430
vt 0.498047 0.940430
vt 0.262695 0.940430
vt 0.498047 0.940430
vt 0.262695 0.940430
vt 0.498047 0.940430
vt 0.262695 0.940430
vt 0.498047 0.940430
vt 0.216797 0.845703
vt 0.216797 0.845703
vt 0.498047 0.845703
vt 0.498047 0.845703
vt 0.216797 0.845703
vt 0.498047 0.845703
vt 0.216797 0.845703
vt 0.498047 0.845703
vt 0.216797 0.845703
vt 0.498047 0.845703
vt 0.216797 0.845703
vt 0.498047 0.845703
vt 0.216797 0.845703
vt 0.498047 0.845703
vt 0.216797 0.845703
vt 0.498047 0.845703
vt 0.498047 0.940430
vt 0.498047 0.940430
vt 0.262695 0.940430
vt 0.262695 0.940430
vt 0.216797 0.845703
vt 0.498047 0.845703
vt 0.498047 0.940430
vt 0.262695 0.940430
vt 0.216797 0.845703
vt 0.498047 0.845703
vt 0.498047 0.940430
vt 0.262695 0.940430
vt 0.216797 0.845703
vt 0.498047 0.845703
vt 0.498047 0.940430
vt 0.262695 0.940430
vt 0.216797 0.845703
vt 0.498047 0.845703
vt 0.498047 0.940430
vt 0.262695 0.940430
vt 0.262695 0.940430
vt 0.262695 0.940430
vt 0.262695 0.940430
vt 0.498047 0.940430
vt 0.498047 0.940430
vt 0.262695 0.940430
vt 0.498047 0.845703
vt 0.216797 0.845703
vt 0.498047 0.940430
vt 0.262695 0.940430
vt 0.498047 0.845703
vt 0.216797 0.845703
vt 0.498047 0.940430
vt 0.262695 0.940430
vt 0.498047 0.845703
vt 0.216797 0.845703
vt 0.498047 0.940430
vt 0.262695 0.940430
vt 0.498047 0.845703
vt 0.216797 0.845703
vt 0.498047 0.940430
vt 0.262695 0.940430
vt 0.498047 0.845703
vt 0.216797 0.845703
vt 0.498047 0.940430
vt 0.262695 0.940430
vt 0.498047 0.845703
vt 0.216797 0.845703
vt 0.262695 0.940430
vt 0.498047 0.845703
vt 0.216797 0.845703
vt 0.498047 0.940430
vt 0.262695 0.940430
vt 0.498047 0.845703
vt 0.216797 0.845703
vt 0.498047 0.940430
vt 0.262695 0.940430
vt 0.498047 0.845703
vt 0.498047 0.940430
vt 0.262695 0.940430
vt 0.498047 0.940430
vt 0.262695 0.940430
vt 0.498047 0.845703
vt 0.216797 0.845703
vt 0.498047 0.940430
vt 0.262695 0.940430
vt 0.498047 0.845703
vt 0.216797 0.845703
vt 0.498047 0.940430
vt 0.262695 0.940430
vt 0.498047 0.845703
vt 0.216797 0.845703
vt 0.262695 0.940430
vt 0.498047 0.845703
vt 0.216797 0.845703
vt 0.498047 0.940430
vt 0.262695 0.940430
vt 0.498047 0.845703
vt 0.216797 0.845703
vt 0.498047 0.940430
vt 0.262695 0.940430
vt 0.498047 0.845703
vt 0.498047 0.845703
vt 0.216797 0.845703
vt 0.498047 0.845703
vt 0.216797 0.845703
vt 0.498047 0.940430
vt 0.262695 0.940430
vt 0.216797 0.845703
vt 0.498047 0.940430
vt 0.262695 0.940430
vt 0.498047 0.845703
vt 0.216797 0.845703
vt 0.498047 0.940430
vt 0.262695 0.940430
vt 0.498047 0.845703
vt 0.216797 0.845703
vt 0.498047 0.940430
vt 0.262695 0.940430
vt 0.498047 0.845703
vt 0.216797 0.845703
vt 0.498047 0.940430
vt 0.262695 0.940430
vt 0.498047 0.845703
vt 0.216797 0.845703
vt 0.498047 0.940430
vt 0.262695 0.940430
vt 0.498047 0.845703
vt 0.216797 0.845703
vt 0.498047 0.940430
vt 0.262695 0.940430
vt 0.498047 0.845703
vt 0.216797 0.845703
vt 0.498047 0.940430
vt 0.262695 0.940430
vt 0.498047 0.940430
vt 0.262695 0.940430
vt 0.498047 0.845703
vt 0.216797 0.845703
vt 0.498047 0.940430
vt 0.262695 0.940430
vt 0.498047 0.845703
vt 0.216797 0.845703
vt 0.498047 0.940430
vt 0.262695 0.940430
vt 0.498047 0.845703
vt 0.216797 0.845703
vt 0.498047 0.940430
vt 0.262695 0.940430
vt 0.498047 0.845703
vt 0.216797 0.845703
vt 0.498047 0.940430
vt 0.262695 0.940430
vt 0.498047 0.845703
vt 0.216797 0.845703
vt 0.262695 0.940430
vt 0.498047 0.845703
vt 0.216797 0.845703
vt 0.498047 0.940430
vt 0.262695 0.940430
vt 0.498047 0.845703
vt 0.498047 0.940430
vt 0.262695 0.940430
vt 0.498047 0.845703
vt 0.216797 0.845703
vt 0.498047 0.940430
vt 0.262695 0.940430
vt 0.498047 0.940430
vt 0.262695 0.940430
vt 0.498047 0.940430
vt 0.262695 0.940430
vt 0.498047 0.845703
vt 0.498047 0.940430
vt 0.262695 0.940430
vt 0.498047 0.845703
vt 0.216797 0.845703
vt 0.262695 0.940430
vt 0.216797 0.845703
vt 0.262695 0.940430
vt 0.498047 0.940430
vt 0.262695 0.940430
vt 0.498047 0.845703
vt 0.216797 0.845703
vt 0.498047 0.940430
vt 0.262695 0.940430
vt 0.498047 0.845703
vt 0.498047 0.845703
vt 0.216797 0.845703
vt 0.498047 0.845703
vt 0.216797 0.845703
vt 0.498047 0.940430
vt 0.262695 0.940430
vt 0.216797 0.845703
vt 0.262695 0.940430
vt 0.498047 0.845703
vt 0.216797 0.845703
vt 0.498047 0.940430
vt 0.262695 0.940430
vt 0.498047 0.845703
vt 0.216797 0.845703
vt 0.498047 0.940430
vt 0.262695 0.940430
vt 0.498047 0.845703
vt 0.216797 0.845703
vt 0.498047 0.940430
vt 0.262695 0.940430
vt 0.498047 0.845703
vt 0.216797 0.845703
vt 0.262695 0.940430
vt 0.498047 0.845703
vt 0.216797 0.845703
vt 0.498047 0.940430
vt 0.262695 0.940430
vt 0.498047 0.845703
vt 0.216797 0.845703
vt 0.498047 0.940430
vt 0.262695 0.940430
vt 0.498047 0.845703
vt 0.216797 0.845703
vt 0.498047 0.940430
vt 0.262695 0.940430
vt 0.498047 0.845703
vt 0.216797 0.845703
vt 0.498047 0.940430
vt 0.262695 0.940430
vt 0.498047 0.845703
vt 0.216797 0.845703
vt 0.498047 0.940430
vt 0.262695 0.940430
vt 0.498047 0.845703
vt 0.216797 0.845703
vt 0.498047 0.940430
vt 0.262695 0.940430
vt 0.498047 0.845703
vt 0.216797 0.845703
vt 0.498047 0.940430
vt 0.262695 0.940430
vt 0.498047 0.845703
vt 0.216797 0.845703
vt 0.498047 0.940430
vt 0.262695 0.940430
vt 0.498047 0.845703
vt 0.216797 0.845703
vt 0.262695 0.940430
vt 0.262695 0.940430
vt 0.498047 0.940430
vt 0.262695 0.940430
vt 0.498047 0.845703
vt 0.216797 0.845703
vt 0.498047 0.940430
vt 0.262695 0.940430
vt 0.498047 0.845703
vt 0.216797 0.845703
vt 0.498047 0.940430
vt 0.262695 0.940430
vt 0.498047 0.845703
vt 0.216797 0.845703
vt 0.498047 0.940430
vt 0.262695 0.940430
vt 0.498047 0.845703
vt 0.216797 0.845703
vt 0.498047 0.940430
vt 0.262695 0.940430
vt 0.498047 0.845703
vt 0.498047 0.940430
vt 0.262695 0.940430
vt 0.262695 0.940430
vt 0.498047 0.940430
vt 0.262695 0.940430
vt 0.498047 0.845703
vt 0.216797 0.845703
vt 0.498047 0.940430
vt 0.262695 0.940430
vt 0.498047 0.845703
vt 0.216797 0.845703
vt 0.498047 0.940430
vt 0.262695 0.940430
vt 0.498047 0.845703
vt 0.216797 0.845703
vt 0.930664 0.805664
vt 0.498047 0.805664
vt 0.967773 0.333984
vt 0.498047 0.333984
vt 0.066406 0.805664
vt 0.029297 0.333984
vt 0.498047 0.940430
vt 0.262695 0.940430
vt 0.498047 0.845703
vt 0.216797 0.845703
vt 0.498047 0.940430
vt 0.262695 0.940430
vt 0.216797 0.845703
vt 0.262695 0.940430
vt 0.498047 0.940430
vt 0.262695 0.940430
vt 0.498047 0.940430
vt 0.262695 0.940430
vt 0.498047 0.845703
vt 0.216797 0.845703
vt 0.498047 0.940430
vt 0.262695 0.940430
vt 0.498047 0.845703
vt 0.216797 0.845703
vt 0.498047 0.940430
vt 0.262695 0.940430
vt 0.498047 0.845703
vt 0.216797 0.845703
vt 0.498047 0.940430
vt 0.262695 0.940430
vt 0.498047 0.845703
vt 0.216797 0.845703
vt 0.498047 0.940430
vt 0.262695 0.940430
vt 0.216797 0.845703
vt 0.262695 0.940430
vt 0.498047 0.940430
vt 0.262695 0.940430
vt 0.498047 0.845703
vt 0.216797 0.845703
vt 0.498047 0.940430
vt 0.262695 0.940430
vt 0.498047 0.845703
vt 0.216797 0.845703
vt 0.498047 0.940430
vt 0.262695 0.940430
vt 0.498047 0.845703
vt 0.216797 0.845703
vt 0.498047 0.940430
vt 0.262695 0.940430
vt 0.498047 0.845703
vt 0.216797 0.845703
vt 0.498047 0.940430
vt 0.262695 0.940430
vt 0.498047 0.845703
vt 0.216797 0.845703
vt 0.262695 0.940430
vt 0.498047 0.940430
vt 0.498047 0.940430
vt 0.262695 0.940430
vt 0.498047 0.845703
vt 0.216797 0.845703
vt 0.498047 0.940430
vt 0.262695 0.940430
vt 0.498047 0.845703
vt 0.216797 0.845703
vt 0.498047 0.940430
vt 0.262695 0.940430
vt 0.498047 0.845703
vt 0.216797 0.845703
vt 0.498047 0.940430
vt 0.262695 0.940430
vt 0.498047 0.845703
vt 0.216797 0.845703
vt 0.498047 0.940430
vt 0.262695 0.940430
vt 0.498047 0.940430
vt 0.262695 0.940430
vt 0.498047 0.940430
vt 0.262695 0.940430
vt 0.498047 0.845703
vt 0.216797 0.845703
vt 0.498047 0.940430
vt 0.262695 0.940430
vt 0.498047 0.845703
vt 0.216797 0.845703
vt 0.498047 0.940430
vt 0.262695 0.940430
vt 0.498047 0.845703
vt 0.216797 0.845703
vt 0.498047 0.940430
vt 0.262695 0.940430
vt 0.498047 0.845703
vt 0.216797 0.845703
vt 0.498047 0.940430
vt 0.262695 0.940430
vt 0.498047 0.845703
vt 0.216797 0.845703
vt 0.498047 0.940430
vt 0.262695 0.940430
vt 0.498047 0.845703
vt 0.262695 0.940430
vt 0.498047 0.940430
vt 0.262695 0.940430
vt 0.498047 0.845703
vt 0.216797 0.845703
vt 0.498047 0.940430
vt 0.262695 0.940430
vt 0.498047 0.845703
vt 0.216797 0.845703
vt 0.498047 0.940430
vt 0.262695 0.940430
vt 0.498047 0.845703
vt 0.216797 0.845703
vt 0.498047 0.940430
vt 0.262695 0.940430
vt 0.498047 0.845703
vt 0.216797 0.845703
vt 0.498047 0.940430
vt 0.262695 0.940430
vt 0.498047 0.845703
vt 0.216797 0.845703
vt 0.498047 0.940430
vt 0.262695 0.940430
vt 0.498047 0.845703
vt 0.216797 0.845703
vt 0.498047 0.940430
vt 0.262695 0.940430
vt 0.498047 0.845703
vt 0.216797 0.845703
vt 0.498047 0.940430
vt 0.262695 0.940430
vt 0.498047 0.845703
vt 0.216797 0.845703
vt 0.498047 0.940430
vt 0.262695 0.940430
vt 0.498047 0.845703
vt 0.216797 0.845703
vt 0.498047 0.940430
vt 0.262695 0.940430
vt 0.498047 0.845703
vt 0.216797 0.845703
vt 0.498047 0.940430
vt 0.262695 0.940430
vt 0.216797 0.845703
vt 0.262695 0.940430
vt 0.000000 0.000000
vt 0.000000 0.000000
vt 0.000000 0.000000
vt 0.000000 0.000000
vt 0.000000 0.000000
vt 0.000000 0.000000
vt 0.000000 0.000000
vt 0.000000 0.000000
vt 0.000000 0.000000
vt 0.000000 0.000000
vt 0.000000 0.000000
vt 0.000000 0.000000
vt 0.000000 0.000000
vt 0.000000 0.000000
vn -0.3420 -0.5322 0.7745
vn 0.0694 -0.7215 0.6890
vn -0.0285 -0.0906 0.9955
vn 0.0591 -0.1369 0.9888
vn 0.1395 -0.7159 0.6841
vn 0.1756 -0.7093 0.6826
vn -0.6671 -0.2113 0.7143
vn -0.1028 -0.0247 0.9944
vn 0.0067 -0.0399 0.9992
vn -0.1049 -0.0131 0.9944
vn -0.0078 0.0397 0.9992
vn -0.0585 0.0747 0.9955
vn 0.0071 0.1490 0.9888
vn -0.1893 0.6996 0.6890
vn -0.1218 0.7191 0.6841
vn -0.5075 0.3776 0.7745
vn -0.6988 -0.0373 0.7143
vn -0.6934 -0.1075 0.7125
vn -0.6868 -0.1436 0.7125
vn 0.0708 -0.1348 0.9883
vn 0.2432 -0.6898 0.6819
vn 0.1367 -0.0605 0.9888
vn 0.0863 -0.0254 0.9959
vn 0.1828 0.0272 0.9828
vn 0.0718 0.0542 0.9959
vn 0.1730 0.0367 0.9842
vn 0.1067 0.1047 0.9888
vn 0.7404 0.1536 0.6543
vn 0.7244 0.2119 0.6560
vn 0.4015 0.5431 0.7375
vn -0.0154 0.7313 0.6819
vn 0.7472 0.1173 0.6542
vn 0.7528 0.0471 0.6566
vn 0.5671 -0.3667 0.7375
vn 0.0188 0.1511 0.9883
vn -0.0856 0.7257 0.6826
vn -0.8217 0.5692 0.0283
vn -0.9966 -0.0718 0.0398
vn -0.7528 -0.0471 -0.6566
vn -0.5671 0.3667 -0.7375
vn -0.4015 -0.5430 -0.7375
vn -0.5685 -0.8222 0.0283
vn -0.7211 -0.2211 -0.6566
vn -0.9580 -0.2840 0.0398
vn 0.0719 -0.9974 0.0043
vn 0.0154 -0.7313 -0.6819
vn 0.8217 -0.5692 -0.0283
vn 0.9966 0.0717 -0.0398
vn 0.6988 0.0373 -0.7143
vn 0.5075 -0.3776 -0.7745
vn 0.1893 -0.6996 -0.6890
vn 0.2841 -0.9588 -0.0043
vn -0.2432 0.6898 -0.6819
vn -0.2841 0.9588 0.0043
vn 0.3630 0.9316 -0.0210
vn -0.0720 0.9974 -0.0043
vn -0.0694 0.7215 -0.6890
vn 0.3420 0.5322 -0.7745
vn -0.0591 0.1369 -0.9888
vn 0.0285 0.0905 -0.9955
vn -0.0067 0.0399 -0.9992
vn 0.1028 0.0247 -0.9944
vn 0.5636 0.1683 -0.8087
vn 0.6868 0.1436 -0.7125
vn -0.1394 0.7159 -0.6841
vn -0.1755 0.7093 -0.6827
vn -0.0708 0.1348 -0.9883
vn -0.1367 0.0605 -0.9888
vn -0.7472 -0.1173 -0.6542
vn -0.1828 -0.0272 -0.9828
vn -0.0863 0.0254 -0.9959
vn -0.7406 -0.1535 -0.6542
vn -0.1806 -0.0389 -0.9828
vn -0.1066 -0.1048 -0.9888
vn -0.0718 -0.0542 -0.9959
vn -0.0188 -0.1510 -0.9884
vn 0.0856 -0.7257 -0.6827
vn 0.1217 -0.7191 -0.6841
vn -0.0071 -0.1489 -0.9888
vn 0.0585 -0.0747 -0.9955
vn 0.0078 -0.0397 -0.9992
vn 0.1050 0.0131 -0.9944
vn 0.6934 0.1075 -0.7125
vn -0.1542 0.9880 -0.0010
vn -0.2041 0.9789 0.0010
vn 0.9782 0.2039 -0.0400
vn 0.9580 0.2840 -0.0398
vn -0.9873 -0.1537 0.0400
vn 0.9873 0.1540 -0.0400
vn -0.9782 -0.2040 0.0400
vn 0.2035 -0.9791 -0.0010
vn 0.1539 -0.9881 0.0010
vn -0.0363 -0.6967 -0.7165
vn -0.4945 -0.7560 -0.4288
vn 0.4943 -0.4226 -0.7597
vn -0.6345 -0.5377 0.5553
vn 0.3286 -0.5164 0.7908
vn 0.0634 -0.4694 0.8807
vn -0.3321 0.5651 -0.7552
vn 0.3128 0.1589 -0.9364
vn -0.7229 -0.2502 -0.6441
vn 0.5069 -0.2625 0.8211
vn 0.0027 -0.3478 0.9376
vn -0.0203 0.9487 0.3154
vn -0.2628 0.4511 0.8529
vn -0.6607 0.7167 0.2233
vn 0.8384 0.0177 0.5447
vn 0.5388 0.6890 0.4847
vn -0.4523 -0.7587 -0.4689
vn 0.0825 -0.9285 -0.3620
vn -0.5662 -0.7922 -0.2278
vn -0.0076 -0.9879 -0.1547
vn 0.5863 -0.8078 -0.0609
vn 0.6132 -0.7764 -0.1454
vn -0.9838 0.0985 -0.1501
vn 0.3681 -0.2177 -0.9039
vn 0.7053 -0.6088 -0.3631
vn -0.2712 -0.5302 -0.8033
vn -0.0265 -0.7768 -0.6291
vn -0.6529 -0.4181 -0.6316
vn -0.5742 -0.3382 -0.7456
vn -0.4544 -0.0280 0.8903
vn -0.9970 -0.0607 -0.0486
vn -0.3217 -0.8161 -0.4801
vn -0.1839 -0.9397 -0.2883
vn -0.1391 -0.1930 -0.9713
vn -0.3902 -0.3659 -0.8449
vn 0.5381 0.1051 -0.8363
vn 0.9720 -0.1807 -0.1502
vn 0.4074 0.0189 -0.9130
vn 0.7462 -0.6593 0.0916
vn 0.3979 -0.5580 -0.7282
vn -0.6939 0.1760 -0.6982
vn -0.6409 0.2735 -0.7173
vn -0.9609 -0.0081 0.2768
vn -0.8874 0.3838 0.2555
vn -0.3833 -0.3268 0.8639
vn -0.4324 0.0622 0.8995
vn 0.6002 -0.4219 0.6796
vn 0.6442 -0.4879 0.5890
vn -0.5871 0.8025 0.1064
vn -0.0915 0.7751 0.6252
vn 0.9081 0.2417 0.3419
vn 0.9948 -0.0481 -0.0895
vn 0.9723 0.0559 0.2270
vn 0.6860 0.4584 -0.5650
vn 0.8441 0.2350 -0.4820
vn 0.9500 0.2400 0.1995
vn 0.7480 -0.6484 0.1417
vn -0.3767 0.7997 -0.4675
vn 0.5619 0.8213 0.0984
vn 0.2916 0.0935 0.9520
vn -0.2246 -0.4173 0.8806
vn -0.7498 -0.6254 0.2162
vn -0.5219 0.7650 0.3774
vn -0.3752 0.1556 0.9138
vn -0.1763 -0.5090 0.8425
vn 0.0717 -0.9952 0.0658
vn -0.7240 0.6096 0.3228
vn -0.5200 0.2562 0.8149
vn -0.3459 -0.3430 0.8733
vn -0.3981 -0.9159 0.0515
vn -0.5771 0.0329 -0.8160
vn 0.0813 0.6507 -0.7550
vn 0.0255 -0.2386 -0.9708
vn -0.2858 0.7020 -0.6523
vn -0.1402 0.0107 -0.9901
vn -0.4942 0.6882 -0.5311
vn -0.9902 0.1070 -0.0895
vn -0.9518 0.2062 0.2271
vn -0.8595 0.3799 0.3418
vn -0.7122 -0.3819 0.5890
vn -0.8396 -0.5354 0.0916
vn -0.6338 -0.4323 0.6414
vn -0.9693 -0.2164 -0.1164
vn -0.6686 -0.1397 0.7304
vn -0.9637 0.2605 -0.0592
vn -0.6102 0.0787 0.7883
vn -0.7732 0.6209 0.1288
vn -0.1853 0.4304 0.8834
vn -0.3063 0.8954 0.3233
vn 0.3069 -0.1922 0.9321
vn 0.2189 -0.5572 0.8010
vn 0.9781 -0.2015 0.0526
vn 0.8499 -0.5269 -0.0015
vn 0.3837 -0.3820 0.8408
vn 0.9710 -0.1744 0.1635
vn 0.4351 -0.2851 0.8541
vn 0.9656 0.0120 0.2597
vn 0.4368 -0.0057 0.8996
vn 0.9362 0.2413 0.2555
vn 0.2109 0.7515 0.6252
vn 0.7047 0.7015 0.1064
vn 0.4757 0.2163 -0.8526
vn 0.6020 0.0649 -0.7958
vn -0.0516 0.8735 -0.4842
vn -0.2838 0.6787 -0.6774
vn 0.6808 0.2764 -0.6784
vn -0.4334 0.4977 -0.7513
vn 0.7182 0.1801 -0.6721
vn -0.5304 -0.0055 -0.8477
vn 0.6756 0.1706 -0.7172
vn -0.4798 -0.4894 -0.7282
vn 0.4964 0.7315 -0.4675
vn -0.7973 0.3632 -0.4821
vn -0.9012 0.3847 0.1995
vn -0.8396 -0.5243 0.1417
vn -0.6064 0.5594 -0.5650
vn -0.5500 -0.7141 0.4330
vn -0.7494 0.0943 0.6554
vn -0.6789 -0.7128 -0.1761
vn -0.8390 0.2975 0.4555
vn -0.0626 0.5008 0.8633
vn -0.0868 0.8522 0.5160
vn 0.1398 -0.8596 0.4915
vn 0.0215 -0.8876 -0.4600
vn 0.7989 0.2838 0.5303
vn 0.7306 0.6564 0.1879
vn 0.7469 -0.5784 0.3281
vn 0.7924 -0.4668 -0.3928
vn -0.7898 -0.3067 0.5311
vn 0.9561 0.2874 0.0580
vn 0.2674 -0.1177 0.9564
vn 0.5687 0.6424 -0.5137
vn -0.3158 0.7671 -0.5584
vn -0.9817 0.1590 -0.1045
vn 0.5641 0.5519 -0.6142
vn -0.3201 0.6962 -0.6426
vn -0.9626 0.2068 -0.1751
vn -0.6639 -0.5229 0.5346
vn 0.3439 -0.6853 0.6419
vn 0.9864 -0.1641 0.0132
vn -0.9820 -0.0560 -0.1802
vn 0.9953 -0.0832 0.0489
vn 0.6040 0.3384 -0.7215
vn -0.4143 0.3848 -0.8248
vn -0.7464 -0.5193 0.4162
vn -0.7720 0.3986 0.4951
vn 0.0125 0.6473 0.7621
vn -0.0334 -0.7965 0.6037
vn 0.6780 0.3686 0.6359
vn 0.6441 -0.5317 0.5500
vn 0.4174 0.3130 -0.8531
vn -0.5363 0.1597 -0.8288
vn 0.9865 0.1266 -0.1036
vn 0.4102 0.5285 -0.7433
vn -0.5251 0.4098 -0.7459
vn -0.9915 -0.1130 -0.0644
vn -0.3822 -0.5241 0.7611
vn 0.6721 -0.3405 0.6575
vn 0.9841 0.1482 -0.0983
vn -0.4150 0.0748 0.9067
vn 0.7321 -0.1361 0.6674
vn 0.9537 -0.2480 -0.1701
vn -0.9918 0.1254 0.0266
vn -0.6462 0.0887 -0.7580
vn 0.3942 -0.1257 -0.9104
vn 0.1449 0.9781 -0.1496
vn 0.3097 0.8777 0.3658
vn 0.0300 0.9919 -0.1238
vn 0.1482 0.9130 0.3800
vn 0.0664 0.6288 0.7747
vn 0.9564 0.2700 0.1114
vn 0.5397 0.0043 0.8418
vn 0.9918 0.1160 0.0531
vn 0.5895 -0.0166 0.8076
vn 0.9982 0.0059 0.0601
vn -0.2503 0.8959 -0.3669
vn -0.2822 0.9022 -0.3262
vn -0.1866 0.4635 0.8662
vn -0.1439 0.3130 0.9388
vn -0.0102 -0.0720 0.9974
vn 0.0161 -0.1443 0.9894
vn -0.5407 -0.2266 0.8101
vn 0.0051 -0.1004 0.9949
vn -0.6108 0.7707 -0.1817
vn -0.5962 0.7828 -0.1781
vn -0.4935 0.4941 0.7158
vn -0.5737 -0.1837 0.7982
vn -0.7226 0.6342 0.2751
vn -0.6865 0.6668 0.2900
vn -0.9946 -0.0874 0.0565
vn -0.9891 -0.1370 0.0541
vn -0.5155 0.4486 0.7301
vn -0.5912 0.1779 -0.7867
vn -0.6306 0.1399 -0.7634
vn -0.1431 0.3677 0.9188
vn -0.2012 0.6894 -0.6959
vn 0.0002 0.2007 -0.9796
vn -0.0073 0.2843 -0.9587
vn -0.0323 0.2973 -0.9542
vn 0.1726 0.5757 0.7992
vn 0.5391 0.3758 -0.7538
vn 0.5841 0.2649 -0.7673
vn 0.4368 0.8977 -0.0583
vn -0.2920 0.9546 -0.0583
usemtl mat_5f42639397d391e5
s 1
f 1/1/1 2/2/2 3/3/3
f 3/3/3 2/2/2 4/4/4
f 2/2/2 5/5/5 4/4/4
f 4/4/4 5/5/5 6/6/6
f 1/1/1 3/3/3 7/7/7
f 7/7/7 3/3/3 8/8/8
f 3/3/3 9/9/9 8/8/8
f 8/8/8 9/9/9 10/10/10
f 9/9/9 11/11/11 10/10/10
f 10/10/10 11/11/11 12/12/12
f 11/11/11 13/13/13 12/12/12
f 12/12/12 13/13/13 14/14/14
f 13/13/13 15/15/15 14/14/14
f 14/14/14 16/16/16 12/12/12
f 12/12/12 16/16/16 17/17/17
f 12/12/12 17/17/17 10/10/10
f 10/10/10 17/17/17 18/18/18
f 10/10/10 18/18/18 8/8/8
f 8/8/8 18/18/18 19/19/19
f 19/19/19 7/7/7 8/8/8
f 3/3/3 4/4/4 9/9/9
f 9/9/9 4/4/4 20/20/20
f 4/4/4 6/6/6 20/20/20
f 20/20/20 6/6/6 21/21/21
f 21/21/21 22/22/22 20/20/20
f 20/20/20 22/22/22 23/23/23
f 22/22/22 24/24/24 23/23/23
f 23/23/23 24/24/24 25/25/25
f 24/24/24 26/26/26 25/25/25
f 25/25/25 26/26/26 27/27/27
f 26/26/26 28/28/28 27/27/27
f 27/27/27 28/28/28 29/29/29
f 29/29/29 30/30/30 27/27/27
f 27/27/27 30/30/30 31/31/31
f 28/28/28 26/26/26 32/32/32
f 32/32/32 26/26/26 24/24/24
f 32/32/32 24/24/24 33/33/33
f 33/33/33 24/24/24 22/22/22
f 33/33/33 22/22/22 34/34/34
f 34/34/34 22/22/22 21/21/21
f 20/20/20 23/23/23 9/9/9
f 9/9/9 23/23/23 11/11/11
f 23/23/23 25/25/25 11/11/11
f 11/11/11 25/25/25 13/13/13
f 25/25/25 35/35/35 13/13/13
f 13/13/13 35/35/35 15/15/15
f 35/35/35 36/36/36 15/15/15
f 36/36/36 35/35/35 31/31/31
f 31/31/31 35/35/35 27/27/27
f 35/35/35 25/25/25 27/27/27
usemtl mat_5f42639497d391e5
f 16/37/16 37/38/37 17/39/17
f 17/39/17 37/38/37 38/40/38
f 37/38/37 39/41/39 38/40/38
f 40/42/40 39/41/39 37/38/37
f 41/43/41 42/44/42 43/45/43
f 43/45/43 42/44/42 44/46/44
f 42/44/42 7/47/7 44/46/44
f 1/48/1 7/47/7 42/44/42
f 1/49/1 42/50/42 2/51/2
f 2/51/2 42/50/42 45/52/45
f 42/50/42 46/53/46 45/52/45
f 41/54/41 46/53/46 42/50/42
f 34/55/34 47/56/47 33/57/33
f 33/57/33 47/56/47 48/58/48
f 47/56/47 49/59/49 48/58/48
f 50/60/50 49/59/49 47/56/47
f 50/61/50 47/62/47 51/63/51
f 51/63/51 47/62/47 52/64/52
f 47/62/47 21/65/21 52/64/52
f 34/66/34 21/65/21 47/62/47
f 40/67/40 37/68/37 53/69/53
f 53/69/53 37/68/37 54/70/54
f 37/68/37 14/71/14 54/70/54
f 16/16/16 14/71/14 37/68/37
f 30/30/30 55/72/55 31/73/31
f 31/73/31 55/72/55 56/74/56
f 55/72/55 57/75/57 56/74/56
f 58/76/58 57/75/57 55/72/55
f 59/77/59 60/78/60 61/79/61
f 61/79/61 60/78/60 62/80/62
f 60/78/60 63/81/63 62/80/62
f 62/80/62 63/81/63 64/82/64
f 63/81/63 60/78/60 58/83/58
f 58/83/58 60/78/60 57/84/57
f 60/85/60 59/86/59 57/87/57
f 57/87/57 59/86/59 65/88/65
f 66/89/66 67/90/67 53/91/53
f 53/91/53 67/90/67 68/92/68
f 69/93/69 39/94/39 70/95/70
f 70/95/70 39/94/39 68/96/68
f 39/94/39 40/97/40 68/96/68
f 68/96/68 40/97/40 53/98/53
f 70/99/70 68/100/68 71/101/71
f 71/101/71 68/100/68 67/102/67
f 72/103/72 73/104/73 43/105/43
f 43/105/43 73/104/73 74/106/74
f 73/107/73 75/108/75 74/109/74
f 74/109/74 75/108/75 76/110/76
f 43/111/43 74/112/74 41/113/41
f 41/113/41 74/112/74 46/114/46
f 74/115/74 76/116/76 46/117/46
f 46/117/46 76/116/76 77/118/77
f 78/119/78 79/120/79 51/121/51
f 51/121/51 79/120/79 80/122/80
f 79/123/79 81/124/81 80/125/80
f 80/125/80 81/124/81 82/126/82
f 80/125/80 82/126/82 49/127/49
f 49/127/49 82/126/82 83/128/83
f 51/129/51 80/130/80 50/131/50
f 50/131/50 80/130/80 49/132/49
f 57/133/57 65/134/65 56/135/56
f 56/135/56 65/134/65 84/136/84
f 65/134/65 66/137/66 84/136/84
f 84/136/84 66/137/66 85/138/85
f 66/137/66 53/139/53 85/138/85
f 85/138/85 53/139/53 54/140/54
f 56/135/56 84/136/84 31/31/31
f 31/31/31 84/136/84 36/36/36
f 84/136/84 85/138/85 36/36/36
f 36/36/36 85/138/85 15/15/15
f 85/138/85 54/140/54 15/15/15
f 15/15/15 54/140/54 14/14/14
f 64/141/64 63/142/63 86/143/86
f 86/143/86 63/142/63 87/144/87
f 86/143/86 87/144/87 28/145/28
f 28/145/28 87/144/87 29/146/29
f 63/147/63 58/148/58 87/149/87
f 87/149/87 58/148/58 55/150/55
f 87/149/87 55/150/55 29/151/29
f 29/151/29 55/150/55 30/152/30
f 61/153/61 71/154/71 59/155/59
f 59/155/59 71/154/71 67/156/67
f 66/157/66 65/158/65 67/159/67
f 67/159/67 65/158/65 59/160/59
f 39/161/39 69/162/69 38/163/38
f 38/163/38 69/162/69 88/164/88
f 18/165/18 17/166/17 88/167/88
f 88/167/88 17/166/17 38/168/38
f 61/169/61 62/170/62 81/171/81
f 81/171/81 62/170/62 82/172/82
f 62/170/62 64/173/64 82/172/82
f 82/172/82 64/173/64 83/174/83
f 83/175/83 64/176/64 89/177/89
f 89/177/89 64/176/64 86/178/86
f 89/177/89 86/178/86 32/179/32
f 32/179/32 86/178/86 28/180/28
f 81/181/81 75/182/75 61/183/61
f 61/183/61 75/182/75 71/184/71
f 75/185/75 73/186/73 71/187/71
f 71/187/71 73/186/73 70/188/70
f 73/189/73 72/190/72 70/191/70
f 70/191/70 72/190/72 69/192/69
f 69/193/69 72/194/72 88/167/88
f 88/167/88 72/194/72 90/195/90
f 19/196/19 18/197/18 90/198/90
f 90/198/90 18/197/18 88/199/88
f 49/200/49 83/201/83 48/202/48
f 48/202/48 83/201/83 89/203/89
f 48/202/48 89/203/89 33/204/33
f 33/204/33 89/203/89 32/205/32
f 79/206/79 76/207/76 81/208/81
f 81/208/81 76/207/76 75/209/75
f 72/210/72 43/211/43 90/198/90
f 90/198/90 43/211/43 44/212/44
f 7/213/7 19/214/19 44/215/44
f 44/215/44 19/214/19 90/216/90
f 21/217/21 6/218/6 52/219/52
f 52/219/52 6/218/6 91/220/91
f 6/218/6 5/221/5 91/220/91
f 91/220/91 5/221/5 92/222/92
f 5/221/5 2/223/2 92/222/92
f 92/222/92 2/223/2 45/224/45
f 52/219/52 91/220/91 51/225/51
f 51/225/51 91/220/91 78/226/78
f 91/220/91 92/222/92 78/226/78
f 78/226/78 92/222/92 77/227/77
f 92/222/92 45/224/45 77/227/77
f 77/227/77 45/224/45 46/228/46
f 78/229/78 77/230/77 79/231/79
f 79/231/79 77/230/77 76/232/76
usemtl mat_5f42639297d391e5
f 93/233/93 94/234/94 95/235/95
f 96/236/96 97/237/97 98/238/98
f 99/239/99 100/240/100 101/241/101
f 102/242/102 98/243/98 97/244/97
f 103/245/103 98/243/98 102/246/102
f 104/247/104 105/248/105 106/249/106
f 107/250/107 105/248/105 108/251/108
f 109/252/109 110/253/110 111/254/111
f 112/255/112 110/253/110 113/256/113
f 110/257/110 109/258/109 114/259/114
f 112/255/112 111/260/111 110/261/110
f 114/262/114 113/263/113 110/261/110
f 115/264/115 106/265/106 105/266/105
f 104/247/104 108/267/108 105/266/105
f 116/268/116 117/269/117 118/270/118
f 119/271/119 120/272/120 121/273/121
f 103/245/103 122/274/122 98/238/98
f 123/275/123 121/276/121 120/277/120
f 124/278/124 125/279/125 119/280/119
f 124/278/124 126/281/126 127/282/127
f 127/283/127 125/279/125 124/284/124
f 128/285/128 127/286/127 126/287/126
f 129/288/129 130/289/130 131/290/131
f 131/290/131 130/289/130 132/291/132
f 130/289/130 133/292/133 132/291/132
f 132/291/132 133/292/133 134/293/134
f 133/292/133 135/294/135 134/293/134
f 134/293/134 135/294/135 136/295/136
f 135/296/135 137/297/137 136/298/136
f 136/298/136 137/297/137 138/299/138
f 137/297/137 139/300/139 138/299/138
f 138/299/138 139/300/139 140/301/140
f 139/300/139 129/302/129 140/301/140
f 140/301/140 129/302/129 131/303/131
f 136/298/136 138/299/138 141/304/141
f 141/304/141 138/299/138 142/305/142
f 138/299/138 140/301/140 142/305/142
f 142/305/142 140/301/140 143/306/143
f 140/301/140 131/303/131 143/306/143
f 143/306/143 131/303/131 144/307/144
f 131/303/131 145/308/145 144/307/144
f 144/309/144 145/310/145 146/311/146
f 146/311/146 145/310/145 147/312/147
f 145/310/145 148/313/148 147/312/147
f 147/312/147 148/313/148 149/314/149
f 148/313/148 131/290/131 149/314/149
f 149/314/149 131/290/131 132/291/132
f 148/313/148 145/310/145 131/290/131
f 149/314/149 132/291/132 147/312/147
f 147/312/147 132/291/132 134/293/134
f 147/312/147 134/293/134 146/311/146
f 146/311/146 134/293/134 150/315/150
f 134/293/134 136/295/136 150/315/150
f 150/315/150 136/295/136 141/316/141
f 129/288/129 139/317/139 151/318/151
f 151/318/151 139/317/139 152/319/152
f 139/317/139 137/320/137 152/319/152
f 152/319/152 137/320/137 153/321/153
f 137/320/137 135/294/135 153/321/153
f 153/321/153 135/294/135 154/322/154
f 151/318/151 152/319/152 155/323/155
f 155/323/155 152/319/152 156/324/156
f 152/319/152 153/321/153 156/324/156
f 156/324/156 153/321/153 157/325/157
f 153/321/153 154/322/154 157/325/157
f 157/325/157 154/322/154 158/326/158
f 155/323/155 156/324/156 159/327/159
f 159/327/159 156/324/156 160/328/160
f 156/324/156 157/325/157 160/328/160
f 160/328/160 157/325/157 161/329/161
f 157/325/157 158/326/158 161/329/161
f 161/329/161 158/326/158 162/330/162
f 135/296/135 133/331/133 154/332/154
f 154/332/154 133/331/133 163/333/163
f 133/331/133 130/334/130 163/333/163
f 163/333/163 130/334/130 164/335/164
f 130/334/130 129/302/129 164/335/164
f 164/335/164 129/302/129 151/336/151
f 154/332/154 163/333/163 158/337/158
f 158/337/158 163/333/163 165/338/165
f 163/333/163 164/335/164 165/338/165
f 165/338/165 164/335/164 166/339/166
f 164/335/164 151/336/151 166/339/166
f 166/339/166 151/336/151 155/340/155
f 158/337/158 165/338/165 162/341/162
f 162/341/162 165/338/165 167/342/167
f 165/338/165 166/339/166 167/342/167
f 167/342/167 166/339/166 168/343/168
f 166/339/166 155/340/155 168/343/168
f 168/343/168 155/340/155 159/344/159
f 169/345/169 170/346/170 171/347/171
f 171/347/171 170/346/170 172/348/172
f 170/346/170 173/349/173 172/348/172
f 172/348/172 173/349/173 174/350/174
f 173/349/173 175/351/175 174/350/174
f 174/350/174 175/351/175 176/352/176
f 175/351/175 177/353/177 176/352/176
f 176/352/176 177/353/177 178/354/178
f 177/353/177 179/355/179 178/354/178
f 178/354/178 179/355/179 180/356/180
f 179/355/179 181/357/181 180/356/180
f 180/356/180 182/358/182 178/354/178
f 178/354/178 182/358/182 183/359/183
f 182/358/182 184/360/184 183/359/183
f 183/359/183 184/360/184 185/361/185
f 178/354/178 183/359/183 176/352/176
f 176/352/176 183/359/183 186/362/186
f 183/359/183 185/361/185 186/362/186
f 186/362/186 185/361/185 187/363/187
f 176/352/176 186/362/186 174/350/174
f 174/350/174 186/362/186 188/364/188
f 186/362/186 187/363/187 188/364/188
f 188/364/188 187/363/187 189/365/189
f 174/350/174 188/364/188 172/348/172
f 172/348/172 188/364/188 190/366/190
f 188/364/188 189/365/189 190/366/190
f 190/366/190 189/365/189 191/367/191
f 172/348/172 190/366/190 171/347/171
f 171/347/171 190/366/190 192/368/192
f 190/366/190 191/367/191 192/368/192
f 192/368/192 191/367/191 193/369/193
f 184/370/184 194/371/194 185/372/185
f 185/372/185 194/371/194 195/373/195
f 194/371/194 196/374/196 195/373/195
f 195/373/195 196/374/196 197/375/197
f 196/374/196 181/376/181 197/375/197
f 197/375/197 181/376/181 179/377/179
f 185/372/185 195/373/195 187/378/187
f 187/378/187 195/373/195 198/379/198
f 195/373/195 197/375/197 198/379/198
f 198/379/198 197/375/197 199/380/199
f 197/375/197 179/377/179 199/380/199
f 199/380/199 179/377/179 177/381/177
f 187/378/187 198/379/198 189/382/189
f 189/382/189 198/379/198 200/383/200
f 198/379/198 199/380/199 200/383/200
f 200/383/200 199/380/199 201/384/201
f 199/380/199 177/381/177 201/384/201
f 201/384/201 177/381/177 175/385/175
f 189/382/189 200/383/200 191/386/191
f 191/386/191 200/383/200 202/387/202
f 200/383/200 201/384/201 202/387/202
f 202/387/202 201/384/201 203/388/203
f 201/384/201 175/385/175 203/388/203
f 203/388/203 175/385/175 173/389/173
f 191/386/191 202/387/202 193/390/193
f 193/390/193 202/387/202 204/391/204
f 202/387/202 203/388/203 204/391/204
f 204/391/204 203/388/203 205/392/205
f 203/388/203 206/393/206 205/392/205
f 205/392/205 206/393/206 170/394/170
f 206/393/206 207/395/207 170/394/170
f 170/394/170 207/395/207 173/389/173
f 207/395/207 203/388/203 173/389/173
f 203/388/203 207/395/207 206/393/206
f 170/394/170 169/396/169 205/392/205
f 205/392/205 169/396/169 208/397/208
f 205/392/205 208/397/208 204/391/204
f 209/398/209 210/399/210 211/400/211
f 211/400/211 210/399/210 212/401/212
f 210/402/210 213/403/213 212/404/212
f 212/404/212 213/403/213 214/405/214
f 215/406/215 209/407/209 216/408/216
f 216/408/216 209/407/209 211/409/211
f 213/410/213 217/411/217 214/412/214
f 214/412/214 217/411/217 218/413/218
f 217/414/217 219/415/219 218/416/218
f 218/416/218 219/415/219 220/417/220
f 219/418/219 215/419/215 220/420/220
f 220/420/220 215/419/215 216/421/216
f 100/240/100 95/422/95 101/423/101
f 101/423/101 95/422/95 94/424/94
f 211/425/211 212/426/212 94/427/94
f 94/427/94 212/426/212 221/428/221
f 218/429/218 220/430/220 222/431/222
f 222/431/222 220/430/220 95/235/95
f 216/432/216 211/433/211 93/233/93
f 93/233/93 211/433/211 94/424/94
f 220/434/220 216/435/216 95/436/95
f 95/436/95 216/435/216 93/437/93
f 212/438/212 214/439/214 221/440/221
f 221/440/221 214/439/214 223/441/223
f 214/442/214 218/443/218 223/444/223
f 223/444/223 218/443/218 222/445/222
f 100/240/100 99/446/99 224/447/224
f 224/447/224 99/446/99 225/448/225
f 99/449/99 101/450/101 225/451/225
f 225/451/225 101/450/101 226/452/226
f 101/453/101 94/454/94 226/455/226
f 226/455/226 94/454/94 221/428/221
f 209/398/209 215/419/215 210/456/210
f 210/456/210 215/419/215 213/457/213
f 215/406/215 219/415/219 213/458/213
f 213/458/213 219/415/219 217/459/217
f 95/460/95 100/461/100 222/431/222
f 222/431/222 100/461/100 224/462/224
f 224/463/224 225/464/225 227/465/227
f 227/465/227 225/464/225 228/466/228
f 225/467/225 226/468/226 228/469/228
f 228/469/228 226/468/226 229/470/229
f 226/471/226 221/472/221 229/473/229
f 229/473/229 221/472/221 230/474/230
f 221/475/221 223/476/223 230/477/230
f 230/477/230 223/476/223 231/478/231
f 223/479/223 222/480/222 231/481/231
f 231/481/231 222/480/222 232/482/232
f 222/483/222 224/484/224 232/485/232
f 232/485/232 224/484/224 227/486/227
f 230/487/230 231/488/231 96/236/96
f 96/236/96 231/488/231 97/244/97
f 229/489/229 230/490/230 233/491/233
f 233/491/233 230/490/230 96/492/96
f 231/493/231 232/494/232 97/495/97
f 97/495/97 232/494/232 234/496/234
f 227/497/227 228/498/228 235/499/235
f 235/499/235 228/498/228 236/500/236
f 228/501/228 229/502/229 236/503/236
f 236/503/236 229/502/229 233/504/233
f 232/505/232 227/506/227 234/507/234
f 234/507/234 227/506/227 235/508/235
f 117/269/117 114/509/114 118/510/118
f 118/510/118 114/509/114 109/511/109
f 237/512/237 238/513/238 111/514/111
f 111/514/111 238/513/238 106/249/106
f 238/515/238 239/516/239 106/517/106
f 106/517/106 239/516/239 104/518/104
f 240/519/240 237/520/237 112/255/112
f 112/255/112 237/520/237 111/254/111
f 239/521/239 241/522/241 104/247/104
f 104/247/104 241/522/241 108/251/108
f 241/523/241 242/524/242 108/525/108
f 108/525/108 242/524/242 113/256/113
f 242/526/242 240/527/240 113/528/113
f 113/528/113 240/527/240 112/529/112
f 111/260/111 106/530/106 109/252/109
f 109/252/109 106/530/106 115/531/115
f 108/267/108 113/532/113 107/250/107
f 107/250/107 113/532/113 114/259/114
f 116/533/116 118/534/118 243/535/243
f 243/535/243 118/534/118 244/536/244
f 118/537/118 109/538/109 244/539/244
f 244/539/244 109/538/109 115/531/115
f 237/512/237 240/527/240 238/540/238
f 238/540/238 240/527/240 239/541/239
f 240/519/240 242/524/242 239/542/239
f 239/542/239 242/524/242 241/543/241
f 114/544/114 117/545/117 107/250/107
f 107/250/107 117/545/117 245/546/245
f 117/269/117 116/547/116 245/548/245
f 245/548/245 116/547/116 243/549/243
f 243/550/243 244/551/244 246/552/246
f 246/552/246 244/551/244 247/553/247
f 244/554/244 115/555/115 247/556/247
f 247/556/247 115/555/115 248/557/248
f 115/558/115 105/559/105 248/560/248
f 248/560/248 105/559/105 249/561/249
f 105/248/105 107/562/107 249/563/249
f 249/563/249 107/562/107 250/564/250
f 107/565/107 245/566/245 250/567/250
f 250/567/250 245/566/245 251/568/251
f 245/569/245 243/570/243 251/571/251
f 251/571/251 243/570/243 246/572/246
f 249/573/249 250/574/250 252/575/252
f 252/575/252 250/574/250 253/576/253
f 250/577/250 251/578/251 253/579/253
f 253/579/253 251/578/251 254/580/254
f 248/581/248 249/582/249 255/583/255
f 255/583/255 249/582/249 252/584/252
f 247/585/247 248/586/248 256/587/256
f 256/587/256 248/586/248 255/588/255
f 251/589/251 246/590/246 254/591/254
f 254/591/254 246/590/246 257/592/257
f 246/593/246 247/594/247 257/595/257
f 257/595/257 247/594/247 256/596/256
f 120/272/120 119/597/119 256/587/256
f 256/587/256 119/597/119 257/592/257
f 98/243/98 122/598/122 253/579/253
f 253/579/253 122/598/122 252/584/252
f 258/599/258 259/600/259 260/601/260
f 260/601/260 259/600/259 261/602/261
f 261/603/261 262/604/262 181/605/181
f 181/605/181 262/604/262 180/606/180
f 184/607/184 182/608/182 263/609/263
f 263/609/263 182/608/182 264/610/264
f 263/611/263 264/612/264 265/613/265
f 265/613/265 264/612/264 266/614/266
f 265/615/265 266/616/266 267/617/267
f 267/617/267 266/616/266 102/246/102
f 267/618/267 102/619/102 234/507/234
f 234/507/234 102/619/102 97/244/97
f 98/243/98 125/620/125 96/236/96
f 96/236/96 125/620/125 233/504/233
f 268/621/268 258/622/258 269/623/269
f 269/623/269 258/622/258 260/624/260
f 262/625/262 270/626/270 180/627/180
f 180/627/180 270/626/270 271/628/271
f 180/629/180 271/630/271 182/631/182
f 182/631/182 271/630/271 272/632/272
f 182/633/182 272/634/272 264/635/264
f 264/635/264 272/634/272 273/636/273
f 272/634/272 161/637/161 273/636/273
f 273/636/273 161/637/161 274/638/274
f 264/639/264 273/640/273 266/641/266
f 266/641/266 273/640/273 275/642/275
f 266/643/266 275/644/275 102/242/102
f 102/242/102 275/644/275 103/645/103
f 127/286/127 128/646/128 236/503/236
f 236/503/236 128/646/128 235/508/235
f 128/647/128 267/648/267 235/499/235
f 235/499/235 267/648/267 234/496/234
f 276/649/276 268/650/268 277/651/277
f 277/651/277 268/650/268 269/652/269
f 270/653/270 278/654/278 271/655/271
f 271/655/271 278/654/278 160/656/160
f 271/657/271 160/658/160 272/659/272
f 272/659/272 160/658/160 161/660/161
f 273/661/273 274/662/274 275/663/275
f 275/663/275 274/662/274 279/664/279
f 275/665/275 279/666/279 103/245/103
f 103/245/103 279/666/279 122/667/122
f 125/279/125 98/668/98 254/591/254
f 254/591/254 98/668/98 253/576/253
f 280/669/280 276/670/276 281/671/281
f 281/671/281 276/670/276 277/672/277
f 278/673/278 281/674/281 160/675/160
f 160/675/160 281/674/281 159/676/159
f 161/677/161 162/678/162 274/679/274
f 274/679/274 162/678/162 282/680/282
f 274/681/274 282/682/282 279/683/279
f 279/683/279 282/682/282 283/684/283
f 279/685/279 283/686/283 122/687/122
f 122/687/122 283/686/283 123/688/123
f 122/274/122 123/689/123 252/575/252
f 252/575/252 123/689/123 255/588/255
f 119/690/119 125/620/125 257/595/257
f 257/595/257 125/620/125 254/580/254
f 284/691/284 280/692/280 278/693/278
f 278/693/278 280/692/280 281/694/281
f 281/695/281 277/696/277 159/697/159
f 159/697/159 277/696/277 168/698/168
f 162/699/162 167/700/167 282/701/282
f 282/701/282 167/700/167 285/702/285
f 282/703/282 285/704/285 283/705/283
f 283/705/283 285/704/285 286/706/286
f 283/707/283 286/708/286 123/275/123
f 123/275/123 286/708/286 121/273/121
f 123/709/123 120/710/120 255/583/255
f 255/583/255 120/710/120 256/596/256
f 287/711/287 284/712/284 270/713/270
f 270/713/270 284/712/284 278/714/278
f 277/715/277 269/716/269 168/717/168
f 168/717/168 269/716/269 288/718/288
f 168/719/168 288/720/288 167/721/167
f 167/721/167 288/720/288 289/722/289
f 167/723/167 289/724/289 285/725/285
f 285/725/285 289/724/289 290/726/290
f 285/727/285 290/728/290 286/729/286
f 286/729/286 290/728/290 291/730/291
f 286/731/286 291/732/291 121/733/121
f 121/733/121 291/732/291 126/287/126
f 121/276/121 126/734/126 119/271/119
f 119/271/119 126/734/126 124/284/124
f 292/735/292 287/736/287 262/737/262
f 262/737/262 287/736/287 270/738/270
f 269/739/269 260/740/260 288/741/288
f 288/741/288 260/740/260 196/742/196
f 288/743/288 196/744/196 289/745/289
f 289/745/289 196/744/196 194/746/194
f 289/747/289 194/748/194 290/749/290
f 290/749/290 194/748/194 293/750/293
f 290/751/290 293/752/293 291/753/291
f 291/753/291 293/752/293 294/754/294
f 291/755/291 294/756/294 126/757/126
f 126/757/126 294/756/294 128/758/128
f 259/759/259 292/760/292 261/761/261
f 261/761/261 292/760/292 262/762/262
f 260/763/260 261/764/261 196/765/196
f 196/765/196 261/764/261 181/766/181
f 194/767/194 184/768/184 293/769/293
f 293/769/293 184/768/184 263/770/263
f 293/771/293 263/772/263 294/773/294
f 294/773/294 263/772/263 265/774/265
f 294/775/294 265/776/265 128/285/128
f 128/285/128 265/776/265 267/777/267
f 125/279/125 127/778/127 233/491/233
f 233/491/233 127/778/127 236/500/236
f 143/779/143 295/780/295 142/781/142
f 142/781/142 295/780/295 141/782/141
f 295/780/295 150/783/150 141/782/141
f 150/783/150 295/780/295 146/784/146
f 146/784/146 295/780/295 144/785/144
f 295/780/295 143/779/143 144/785/144
f 204/786/204 296/787/296 193/788/193
f 193/788/193 296/787/296 192/789/192
f 296/787/296 171/790/171 192/789/192
f 171/790/171 296/787/296 169/791/169
f 169/791/169 296/787/296 208/792/208
f 296/787/296 204/786/204 208/792/208
