<?xml version="1.0" encoding="utf-8"?>
<COLLADA xmlns="http://www.collada.org/2005/11/COLLADASchema" version="1.4.1" xmlns:xsi="http://www.w3.org/2001/XMLSchema-instance">
  <asset>
    <contributor>
      <author>Blender User</author>
      <authoring_tool>Blender 3.6.2 commit date:2023-08-16, commit time:16:43, hash:e53e55951e7a</authoring_tool>
    </contributor>
    <created>2024-10-10T15:11:50</created>
    <modified>2024-10-10T15:11:50</modified>
    <unit name="meter" meter="1"/>
    <up_axis>Z_UP</up_axis>
  </asset>
  <library_effects>
    <effect id="goma-effect">
      <profile_COMMON>
        <newparam sid="gomaColors_png-surface">
          <surface type="2D">
            <init_from>gomaColors_png</init_from>
          </surface>
        </newparam>
        <newparam sid="gomaColors_png-sampler">
          <sampler2D>
            <source>gomaColors_png-surface</source>
          </sampler2D>
        </newparam>
        <technique sid="common">
          <lambert>
            <emission>
              <color sid="emission">0 0 0 1</color>
            </emission>
            <diffuse>
              <texture texture="gomaColors_png-sampler" texcoord="UVMap"/>
            </diffuse>
            <index_of_refraction>
              <float sid="ior">1.45</float>
            </index_of_refraction>
          </lambert>
        </technique>
      </profile_COMMON>
    </effect>
  </library_effects>
  <library_images>
    <image id="gomaColors_png" name="gomaColors_png">
      <init_from>gomaColors.png</init_from>
    </image>
  </library_images>
  <library_materials>
    <material id="goma-material" name="goma">
      <instance_effect url="#goma-effect"/>
    </material>
  </library_materials>
  <library_geometries>
    <geometry id="Shape_IndexedFaceSet_015-mesh" name="Shape_IndexedFaceSet.015">
      <mesh>
        <source id="Shape_IndexedFaceSet_015-mesh-positions">
          <float_array id="Shape_IndexedFaceSet_015-mesh-positions-array" count="60">-0.210297 0.06663596 -0.001162946 -0.246084 0.05363196 -0.01687198 -0.268202 0.02014195 -0.02613598 -0.268202 -0.02104198 -0.02541798 -0.246084 -0.05418795 -0.01498997 -0.210297 -0.06663596 0.001162946 -0.174509 -0.05363196 0.01687198 -0.152392 -0.02014195 0.02613598 -0.152392 0.02104198 0.02541798 -0.174509 0.05418795 0.01498997 0.210297 0.06663596 -0.001162946 0.174509 0.05418795 0.01498997 0.152392 0.02104198 0.02541798 0.152392 -0.02014195 0.02613598 0.174509 -0.05363196 0.01687198 0.210297 -0.06663596 0.001162946 0.246084 -0.05418795 -0.01498997 0.268202 -0.02104198 -0.02541798 0.268202 0.02014195 -0.02613598 0.246084 0.05363196 -0.01687198</float_array>
          <technique_common>
            <accessor source="#Shape_IndexedFaceSet_015-mesh-positions-array" count="20" stride="3">
              <param name="X" type="float"/>
              <param name="Y" type="float"/>
              <param name="Z" type="float"/>
            </accessor>
          </technique_common>
        </source>
        <source id="Shape_IndexedFaceSet_015-mesh-normals">
          <float_array id="Shape_IndexedFaceSet_015-mesh-normals-array" count="60">0.406737 0.01593971 0.9134063 0.4067373 0.01594102 0.9134062 0.4067335 0.01594692 0.9134077 -0.4067403 0.01593798 0.9134049 -0.4067307 0.01594382 0.9134089 -0.4067348 0.01595032 0.913407 0.4067127 0.01598495 0.9134164 0.4067479 0.01593184 0.9134016 0.406737 0.01593685 0.9134064 0.4067322 0.01594209 0.9134083 0.4067326 0.01595091 0.9134081 0.4067737 0.01592373 0.9133902 0.4067461 0.01596355 0.9134017 -0.4067462 0.01596355 0.9134017 -0.4067373 0.01594102 0.9134062 -0.4067737 0.01592367 0.9133902 -0.4067337 0.01593571 0.9134078 -0.4067246 0.0159291 0.913412 -0.4067106 0.01592445 0.9134182 -0.4067127 0.01598519 0.9134164</float_array>
          <technique_common>
            <accessor source="#Shape_IndexedFaceSet_015-mesh-normals-array" count="20" stride="3">
              <param name="X" type="float"/>
              <param name="Y" type="float"/>
              <param name="Z" type="float"/>
            </accessor>
          </technique_common>
        </source>
        <source id="Shape_IndexedFaceSet_015-mesh-map-0">
          <float_array id="Shape_IndexedFaceSet_015-mesh-map-0-array" count="96">0.4793831 0.04670149 0.5 0.3255673 0.4460248 0.5 0.02061688 0.04670149 0.1079503 0.3289439 0.05397516 0.5 0.4460248 0.5 0.4126656 0.4532985 0.3920497 0.3289439 0.3920497 0.3289439 0.3920497 0.1744327 0.4460248 0.5 0.3920497 0.1744327 0.4126656 0.04878741 0.4460248 0.5 0.4126656 0.04878741 0.4460248 0 0.4793831 0.04670149 0.4793831 0.04670149 0.5 0.1710562 0.5 0.3255673 0.5 0.3255673 0.4793831 0.4512125 0.4460248 0.5 0.4126656 0.04878741 0.4793831 0.04670149 0.4460248 0.5 0.05397516 0.5 0.02061688 0.4512125 0 0.3255673 0 0.3255673 0 0.1710562 0.02061688 0.04670149 0.02061688 0.04670149 0.05397516 0 0.1079503 0.3289439 0.05397516 0 0.08733433 0.04878741 0.1079503 0.3289439 0.08733433 0.04878741 0.1079503 0.1744327 0.1079503 0.3289439 0.1079503 0.3289439 0.08733433 0.4532985 0.05397516 0.5 0.05397516 0.5 0 0.3255673 0.02061688 0.04670149</float_array>
          <technique_common>
            <accessor source="#Shape_IndexedFaceSet_015-mesh-map-0-array" count="48" stride="2">
              <param name="S" type="float"/>
              <param name="T" type="float"/>
            </accessor>
          </technique_common>
        </source>
        <vertices id="Shape_IndexedFaceSet_015-mesh-vertices">
          <input semantic="POSITION" source="#Shape_IndexedFaceSet_015-mesh-positions"/>
        </vertices>
        <triangles material="goma-material" count="16">
          <input semantic="VERTEX" source="#Shape_IndexedFaceSet_015-mesh-vertices" offset="0"/>
          <input semantic="NORMAL" source="#Shape_IndexedFaceSet_015-mesh-normals" offset="1"/>
          <input semantic="TEXCOORD" source="#Shape_IndexedFaceSet_015-mesh-map-0" offset="2" set="0"/>
          <p>16 0 0 18 1 1 10 2 2 4 3 3 8 4 4 0 5 5 10 2 6 11 6 7 12 7 8 12 7 9 13 8 10 10 2 11 13 8 12 14 9 13 10 2 14 14 9 15 15 10 16 16 0 17 16 0 18 17 11 19 18 1 20 18 1 21 19 12 22 10 2 23 14 9 24 16 0 25 10 2 26 0 5 27 1 13 28 2 14 29 2 14 30 3 15 31 4 3 32 4 3 33 5 16 34 8 4 35 5 16 36 6 17 37 8 4 38 6 17 39 7 18 40 8 4 41 8 4 42 9 19 43 0 5 44 0 5 45 2 14 46 4 3 47</p>
        </triangles>
      </mesh>
    </geometry>
    <geometry id="Shape_IndexedFaceSet_018-mesh" name="Shape_IndexedFaceSet.018">
      <mesh>
        <source id="Shape_IndexedFaceSet_018-mesh-positions">
          <float_array id="Shape_IndexedFaceSet_018-mesh-positions-array" count="60">0.356627 -0.07999998 -0.369141 0.268263 -0.07999998 -0.139783 0 -0.07999998 0.09985095 0 -0.07999998 -0.1760129 0.100664 -0.07999998 -0.395371 0.32 -0.07999998 -0.514251 0.344476 -0.01230198 -0.369141 0.309096 -0.002821981 -0.514251 0.09723401 0.05394595 -0.395371 0 0.07999998 -0.1760129 0 0.07999998 0.09985095 0.259122 0.01056796 -0.139783 -0.356627 -0.07999998 -0.369141 -0.344476 -0.01230198 -0.369141 -0.309096 -0.002821981 -0.514251 -0.32 -0.07999998 -0.514251 -0.09723401 0.05394595 -0.395371 -0.100664 -0.07999998 -0.395371 -0.259122 0.01056796 -0.139783 -0.268263 -0.07999998 -0.139783</float_array>
          <technique_common>
            <accessor source="#Shape_IndexedFaceSet_018-mesh-positions-array" count="20" stride="3">
              <param name="X" type="float"/>
              <param name="Y" type="float"/>
              <param name="Z" type="float"/>
            </accessor>
          </technique_common>
        </source>
        <source id="Shape_IndexedFaceSet_018-mesh-normals">
          <float_array id="Shape_IndexedFaceSet_018-mesh-normals-array" count="60">-0.3256776 0.5332822 -0.7807332 0.4563238 0.702189 -0.5465338 0.5561482 -0.6510353 -0.5165774 0 -0.5807646 0.8140716 -0.6971094 0.5982854 0.3950865 -0.6500896 -0.624307 0.4331561 -0.8151557 -0.577285 0.04757404 -0.7913324 0.609871 0.04301995 0 0.9753339 -0.2207344 0.6500897 -0.624307 0.4331562 0 -0.9732713 -0.2296584 0.3256776 0.5332822 -0.7807332 0.3897977 -0.5392922 -0.7464729 -0.5561482 -0.6510353 -0.5165774 0.6971094 0.5982853 0.3950864 0 0.6268176 0.7791661 0.7913324 0.609871 0.04302 -0.4563238 0.702189 -0.5465339 -0.3897977 -0.5392922 -0.7464729 0.8151557 -0.5772851 0.04757404</float_array>
          <technique_common>
            <accessor source="#Shape_IndexedFaceSet_018-mesh-normals-array" count="20" stride="3">
              <param name="X" type="float"/>
              <param name="Y" type="float"/>
              <param name="Z" type="float"/>
            </accessor>
          </technique_common>
        </source>
        <source id="Shape_IndexedFaceSet_018-mesh-map-0">
          <float_array id="Shape_IndexedFaceSet_018-mesh-map-0-array" count="216">0.03331983 0.5 0.1818377 0.5967918 0.1794332 0.5967918 0.25 1 0.06835222 0.8048908 0.06194424 0.8048908 0 0.6181481 0.06194424 0.8048908 0.00851798 0.6181481 0.25 0.7753924 0.1818377 0.5967918 0.06835222 0.8048908 0.4380558 0.8048908 0.25 1 0.25 0.7753924 0.4666802 0.5 0.474324 0.5 0.3205667 0.5967918 0.25 1 0.4316478 0.8048908 0.25 1 0.491482 0.6181481 0.4316478 0.8048908 0.4380558 0.8048908 0.4316478 0.8048908 0.491482 0.6181481 0.3181623 0.5967918 0.25 0.7753924 0.25 0.7753924 0.1818377 0.5967918 0.25 0.7753924 0.1794332 0.5967918 0.1818377 0.5967918 0.1794332 0.5967918 0.02567595 0.5 0.03331983 0.5 0.25 1 0.25 1 0.06835222 0.8048908 0.06194424 0.8048908 0.06835222 0.8048908 0.00851798 0.6181481 0.00851798 0.6181481 0.03331983 0.5 0.02567595 0.5 0.02567595 0.5 0 0.6181481 0.00851798 0.6181481 0.03331983 0.5 0.00851798 0.6181481 0.1818377 0.5967918 0.00851798 0.6181481 0.06835222 0.8048908 0.1818377 0.5967918 0.06835222 0.8048908 0.25 1 0.25 0.7753924 0.25 1 0.06194424 0.8048908 0.25 0.7753924 0.06194424 0.8048908 0 0.6181481 0.1794332 0.5967918 0.25 0.7753924 0.06194424 0.8048908 0.1794332 0.5967918 0 0.6181481 0.02567595 0.5 0.1794332 0.5967918 0.25 0.7753924 0.3205667 0.5967918 0.4380558 0.8048908 0.3205667 0.5967918 0.474324 0.5 0.5 0.6181481 0.5 0.6181481 0.4380558 0.8048908 0.3205667 0.5967918 0.3205667 0.5967918 0.25 0.7753924 0.3181623 0.5967918 0.25 0.7753924 0.25 0.7753924 0.3181623 0.5967918 0.3181623 0.5967918 0.4666802 0.5 0.3205667 0.5967918 0.25 1 0.4380558 0.8048908 0.4316478 0.8048908 0.4380558 0.8048908 0.5 0.6181481 0.491482 0.6181481 0.5 0.6181481 0.474324 0.5 0.491482 0.6181481 0.474324 0.5 0.4666802 0.5 0.491482 0.6181481 0.4666802 0.5 0.3181623 0.5967918 0.491482 0.6181481 0.3181623 0.5967918 0.25 0.7753924 0.4316478 0.8048908 0.25 0.7753924 0.25 1 0.4316478 0.8048908</float_array>
          <technique_common>
            <accessor source="#Shape_IndexedFaceSet_018-mesh-map-0-array" count="108" stride="2">
              <param name="S" type="float"/>
              <param name="T" type="float"/>
            </accessor>
          </technique_common>
        </source>
        <vertices id="Shape_IndexedFaceSet_018-mesh-vertices">
          <input semantic="POSITION" source="#Shape_IndexedFaceSet_018-mesh-positions"/>
        </vertices>
        <triangles material="goma-material" count="36">
          <input semantic="VERTEX" source="#Shape_IndexedFaceSet_018-mesh-vertices" offset="0"/>
          <input semantic="NORMAL" source="#Shape_IndexedFaceSet_018-mesh-normals" offset="1"/>
          <input semantic="TEXCOORD" source="#Shape_IndexedFaceSet_018-mesh-map-0" offset="2" set="0"/>
          <p>14 0 0 16 1 1 17 2 2 2 3 3 18 4 4 19 5 5 12 6 6 19 5 7 13 7 8 9 8 9 16 1 10 18 4 11 1 9 12 2 3 13 3 10 14 7 11 15 5 12 16 4 13 17 2 3 18 11 14 19 10 15 20 6 16 21 11 14 22 1 9 23 11 14 24 6 16 25 8 17 26 9 8 27 3 10 28 16 1 29 3 10 30 17 2 31 16 1 32 17 2 33 15 18 34 14 0 35 2 3 36 10 15 37 18 4 38 19 5 39 18 4 40 13 7 41 13 7 42 14 0 43 15 18 44 15 18 45 12 6 46 13 7 47 14 0 48 13 7 49 16 1 50 13 7 51 18 4 52 16 1 53 18 4 54 10 15 55 9 8 56 2 3 57 19 5 58 3 10 59 19 5 60 12 6 61 17 2 62 3 10 63 19 5 64 17 2 65 12 6 66 15 18 67 17 2 68 3 10 69 4 13 70 1 9 71 4 13 72 5 12 73 0 19 74 0 19 75 1 9 76 4 13 77 4 13 78 3 10 79 8 17 80 3 10 81 9 8 82 8 17 83 8 17 84 7 11 85 4 13 86 2 3 87 1 9 88 11 14 89 1 9 90 0 19 91 6 16 92 0 19 93 5 12 94 6 16 95 5 12 96 7 11 97 6 16 98 7 11 99 8 17 100 6 16 101 8 17 102 9 8 103 11 14 104 9 8 105 10 15 106 11 14 107</p>
        </triangles>
      </mesh>
    </geometry>
    <geometry id="Shape_IndexedFaceSet_017-mesh" name="Shape_IndexedFaceSet.017">
      <mesh>
        <source id="Shape_IndexedFaceSet_017-mesh-positions">
          <float_array id="Shape_IndexedFaceSet_017-mesh-positions-array" count="45">0 0.186 -0.148122 0.460722 0.001710951 -0.205072 0.460722 -0.2 -0.205072 0.2 -0.2 -0.177016 0 -0.114 -0.148122 0.2 0.101378 0.245 0 0.186 0.159983 0 -0.114 0.159983 0.2 -0.2 0.245 0.467529 -0.2 0.230372 0.467529 -0.001011967 0.230372 0.6925 -0.2 -0.125 0.646417 -0.2 0.07167899 0.6925 -0.09099996 -0.125 0.646417 -0.07256698 0.07167899</float_array>
          <technique_common>
            <accessor source="#Shape_IndexedFaceSet_017-mesh-positions-array" count="15" stride="3">
              <param name="X" type="float"/>
              <param name="Y" type="float"/>
              <param name="Z" type="float"/>
            </accessor>
          </technique_common>
        </source>
        <source id="Shape_IndexedFaceSet_017-mesh-normals">
          <float_array id="Shape_IndexedFaceSet_017-mesh-normals-array" count="45">0.2399069 0.7781639 -0.5804358 -0.2178679 -0.7211436 -0.6576364 -0.3565078 -0.5840921 -0.7292042 -0.5174049 -0.6038585 0.6063392 0.08021628 0.6411779 0.7631882 0.1357788 0.8433163 0.5199825 -0.2229818 -0.6827406 0.6958048 0.44819 0.5614525 0.695627 0.8060713 0.4282252 -0.4084998 0.6564374 -0.6449027 0.3913956 0.7114887 -0.5829314 -0.3923963 0.08438861 -0.6611442 -0.7454978 0.2834886 0.6112256 -0.7389435 0.7793385 0.5028972 0.3737996 0.2922351 -0.6399627 0.7106661</float_array>
          <technique_common>
            <accessor source="#Shape_IndexedFaceSet_017-mesh-normals-array" count="15" stride="3">
              <param name="X" type="float"/>
              <param name="Y" type="float"/>
              <param name="Z" type="float"/>
            </accessor>
          </technique_common>
        </source>
        <source id="Shape_IndexedFaceSet_017-mesh-map-0">
          <float_array id="Shape_IndexedFaceSet_017-mesh-map-0-array" count="144">0 0.5632677 0.1444043 0.5311684 0 0.5632677 0 0.9055518 0.1444043 1 0 0.9055518 0.1444043 1 0.3375661 0.9837493 0.1444043 1 0.1444043 1 0 0.9055518 0.1444043 0.5311684 0.5 0.5889547 0.4667271 0.807452 0.5 0.5889547 0.5 0.5889547 0.3326513 0.5 0.3326513 0.5 0.4667271 0.807452 0.3375661 0.9837493 0.4667271 0.807452 0.3326513 0.5 0 0.5632677 0.1444043 1 0 0.5632677 0.3326513 0.5 0.1444043 0.5311684 0.3326513 0.5 0.3326513 0.5 0.1444043 0.5311684 0 0.9055518 0.1444043 1 0.1444043 1 0.1444043 1 0.3375661 0.9837493 0.3375661 0.9837493 0 0.5632677 0.1444043 0.5311684 0 0.9055518 0.1444043 0.5311684 0.3326513 0.5 0.3375661 0.9837493 0.1444043 1 0.1444043 0.5311684 0.3375661 0.9837493 0.3326513 0.5 0.5 0.5889547 0.4667271 0.807452 0.4667271 0.807452 0.3375661 0.9837493 0.3326513 0.5 0.5 0.5889547 0.4667271 0.807452 0.4667271 0.807452 0.5 0.5889547 0.5 0.5889547 0.3326513 0.5 0.4667271 0.807452 0.3375661 0.9837493 0.3375661 0.9837493 0 0.5632677 0 0.9055518 0.1444043 1 0.1444043 1 0.3375661 0.9837493 0.3326513 0.5 0.3375661 0.9837493 0.4667271 0.807452 0.3326513 0.5 0.4667271 0.807452 0.5 0.5889547 0.3326513 0.5</float_array>
          <technique_common>
            <accessor source="#Shape_IndexedFaceSet_017-mesh-map-0-array" count="72" stride="2">
              <param name="S" type="float"/>
              <param name="T" type="float"/>
            </accessor>
          </technique_common>
        </source>
        <vertices id="Shape_IndexedFaceSet_017-mesh-vertices">
          <input semantic="POSITION" source="#Shape_IndexedFaceSet_017-mesh-positions"/>
        </vertices>
        <triangles material="goma-material" count="24">
          <input semantic="VERTEX" source="#Shape_IndexedFaceSet_017-mesh-vertices" offset="0"/>
          <input semantic="NORMAL" source="#Shape_IndexedFaceSet_017-mesh-normals" offset="1"/>
          <input semantic="TEXCOORD" source="#Shape_IndexedFaceSet_017-mesh-map-0" offset="2" set="0"/>
          <p>0 0 0 3 1 1 4 2 2 7 3 3 5 4 4 6 5 5 8 6 6 10 7 7 5 4 8 8 6 9 7 3 10 3 1 11 13 8 12 12 9 13 11 10 14 13 8 15 2 11 16 1 12 17 14 13 18 9 14 19 12 9 20 1 12 21 0 0 22 5 4 23 0 0 24 1 12 25 3 1 26 1 12 27 2 11 28 3 1 29 7 3 30 8 6 31 5 4 32 8 6 33 9 14 34 10 7 35 4 2 36 3 1 37 7 3 38 3 1 39 2 11 40 9 14 41 8 6 42 3 1 43 9 14 44 2 11 45 11 10 46 12 9 47 12 9 48 9 14 49 2 11 50 13 8 51 14 13 52 12 9 53 13 8 54 11 10 55 2 11 56 14 13 57 10 7 58 9 14 59 0 0 60 6 5 61 5 4 62 5 4 63 10 7 64 1 12 65 10 7 66 14 13 67 1 12 68 14 13 69 13 8 70 1 12 71</p>
        </triangles>
      </mesh>
    </geometry>
    <geometry id="Shape_IndexedFaceSet_016-mesh" name="Shape_IndexedFaceSet.016">
      <mesh>
        <source id="Shape_IndexedFaceSet_016-mesh-positions">
          <float_array id="Shape_IndexedFaceSet_016-mesh-positions-array" count="45">0 0.186 -0.148122 0 -0.114 -0.148122 -0.2 -0.2 -0.177016 -0.460722 -0.2 -0.205072 -0.460722 0.001710951 -0.205072 0 0.186 0.159983 0 -0.114 0.159983 -0.2 0.101378 0.245 -0.2 -0.2 0.245 -0.467529 -0.001011967 0.230372 -0.467529 -0.2 0.230372 -0.646417 -0.2 0.07167899 -0.6925 -0.2 -0.125 -0.646417 -0.07256698 0.07167899 -0.6925 -0.09099996 -0.125</float_array>
          <technique_common>
            <accessor source="#Shape_IndexedFaceSet_016-mesh-positions-array" count="15" stride="3">
              <param name="X" type="float"/>
              <param name="Y" type="float"/>
              <param name="Z" type="float"/>
            </accessor>
          </technique_common>
        </source>
        <source id="Shape_IndexedFaceSet_016-mesh-normals">
          <float_array id="Shape_IndexedFaceSet_016-mesh-normals-array" count="45">0.2178679 -0.7211436 -0.6576364 -0.2834886 0.6112257 -0.7389435 -0.2399069 0.7781639 -0.5804358 0.5174049 -0.6038585 0.6063392 -0.08021628 0.6411779 0.7631882 0.2229818 -0.6827406 0.6958048 -0.44819 0.5614525 0.695627 -0.08438861 -0.6611442 -0.7454978 -0.2922351 -0.6399627 0.7106662 -0.8060714 0.4282253 -0.4084999 -0.6564374 -0.6449027 0.3913956 -0.7793385 0.5028972 0.3737996 0.3565078 -0.5840921 -0.7292042 -0.1357788 0.8433163 0.5199825 -0.7114887 -0.5829314 -0.3923964</float_array>
          <technique_common>
            <accessor source="#Shape_IndexedFaceSet_016-mesh-normals-array" count="15" stride="3">
              <param name="X" type="float"/>
              <param name="Y" type="float"/>
              <param name="Z" type="float"/>
            </accessor>
          </technique_common>
        </source>
        <source id="Shape_IndexedFaceSet_016-mesh-map-0">
          <float_array id="Shape_IndexedFaceSet_016-mesh-map-0-array" count="144">0.3555957 0.5311684 0.1673487 0.5 0.5 0.5632677 0.5 0.9055518 0.3555957 1 0.3555957 1 0.1624339 0.9837493 0.3555957 1 0.3555957 1 0.1673487 0.5 0.3555957 0.5311684 0.1624339 0.9837493 0 0.5889547 0.03327292 0.807452 0.03327292 0.807452 0.1673487 0.5 0 0.5889547 0.1673487 0.5 0.03327292 0.807452 0.1624339 0.9837493 0.1624339 0.9837493 0.1624339 0.9837493 0.3555957 1 0.1673487 0.5 0.5 0.5632677 0.5 0.5632677 0.3555957 0.5311684 0.3555957 0.5311684 0.1673487 0.5 0.1673487 0.5 0.5 0.9055518 0.5 0.9055518 0.3555957 1 0.1624339 0.9837493 0.1624339 0.9837493 0.3555957 1 0.5 0.5632677 0.5 0.9055518 0.3555957 0.5311684 0.5 0.9055518 0.3555957 1 0.3555957 0.5311684 0.3555957 1 0.1624339 0.9837493 0.3555957 0.5311684 0.1624339 0.9837493 0.03327292 0.807452 0.1673487 0.5 0.03327292 0.807452 0 0.5889547 0.1673487 0.5 0 0.5889547 0 0.5889547 0.03327292 0.807452 0.1673487 0.5 0 0.5889547 0 0.5889547 0.03327292 0.807452 0.03327292 0.807452 0.1624339 0.9837493 0.5 0.5632677 0.1673487 0.5 0.3555957 1 0.1673487 0.5 0 0.5889547 0.03327292 0.807452 0.5 0.5632677 0.3555957 1 0.5 0.9055518 0.03327292 0.807452 0.1624339 0.9837493 0.1673487 0.5</float_array>
          <technique_common>
            <accessor source="#Shape_IndexedFaceSet_016-mesh-map-0-array" count="72" stride="2">
              <param name="S" type="float"/>
              <param name="T" type="float"/>
            </accessor>
          </technique_common>
        </source>
        <vertices id="Shape_IndexedFaceSet_016-mesh-vertices">
          <input semantic="POSITION" source="#Shape_IndexedFaceSet_016-mesh-positions"/>
        </vertices>
        <triangles material="goma-material" count="24">
          <input semantic="VERTEX" source="#Shape_IndexedFaceSet_016-mesh-vertices" offset="0"/>
          <input semantic="NORMAL" source="#Shape_IndexedFaceSet_016-mesh-normals" offset="1"/>
          <input semantic="TEXCOORD" source="#Shape_IndexedFaceSet_016-mesh-map-0" offset="2" set="0"/>
          <p>2 0 0 4 1 1 0 2 2 6 3 3 7 4 4 8 5 5 9 6 6 8 5 7 7 4 8 3 7 9 2 0 10 10 8 11 14 9 12 11 10 13 13 11 14 3 7 15 14 9 16 4 1 17 13 11 18 10 8 19 9 6 20 9 6 21 7 4 22 4 1 23 0 2 24 1 12 25 2 0 26 2 0 27 3 7 28 4 1 29 6 3 30 5 13 31 7 4 32 9 6 33 10 8 34 8 5 35 1 12 36 6 3 37 2 0 38 6 3 39 8 5 40 2 0 41 8 5 42 10 8 43 2 0 44 10 8 45 11 10 46 3 7 47 11 10 48 12 14 49 3 7 50 14 9 51 12 14 52 11 10 53 3 7 54 12 14 55 14 9 56 13 11 57 11 10 58 10 8 59 0 2 60 4 1 61 7 4 62 4 1 63 14 9 64 13 11 65 0 2 66 7 4 67 5 13 68 13 11 69 9 6 70 4 1 71</p>
        </triangles>
      </mesh>
    </geometry>
    <geometry id="Shape_IndexedFaceSet_013-mesh" name="Shape_IndexedFaceSet.013">
      <mesh>
        <source id="Shape_IndexedFaceSet_013-mesh-positions">
          <float_array id="Shape_IndexedFaceSet_013-mesh-positions-array" count="303">0 0.76309 0.289894 0.245755 0.718226 0.253523 0.1849409 0.734328 0.103688 0 0.754164 0.05050098 0 0.698463 0.476053 0.154155 0.708215 0.385282 0.385328 0.594496 0.211004 0.270306 0.627599 -0.05976098 0 0.644596 -0.17647 0.459093 0.294429 0.128223 0.304745 0.424506 -0.192637 0 0.464995 -0.260374 0.37694 0.05829995 0.06130194 0.276585 0.141601 -0.190825 0 0.196458 -0.273554 0 0.118227 0.704315 0.228457 -0.09833198 0.306302 0 -0.04787999 -0.06556099 0 -0.161188 0.39977 0.346007 0.15698 0.579713 0.280103 0.005258977 0.500809 0 -0.04746794 0.603642 0 0.362139 0.705188 0.367097 0.375071 0.55456 0 0.555534 0.632905 0.311168 0.578492 0.499009 -0.459093 0.294429 0.128223 -0.37694 0.05829995 0.06130194 -0.228457 -0.09833198 0.306302 -0.280103 0.005258977 0.500809 -0.276585 0.141601 -0.190825 -0.304745 0.424506 -0.192637 -0.367097 0.375071 0.55456 -0.311168 0.578492 0.499009 -0.385328 0.594496 0.211004 -0.245755 0.718226 0.253523 -0.154155 0.708215 0.385282 -0.270306 0.627599 -0.05976098 -0.1849409 0.734328 0.103688 -0.346007 0.15698 0.579713 0.113447 0.105094 0.622687 0.399974 0.182503 0.593442 0.512444 0.202083 0.534732 0.395693 0.20213 0.603443 0.109165 0.124721 0.632687 0.113447 0.08013999 0.609972 0.109165 0.06051301 0.599972 0.395693 0.03867202 0.520157 0.399974 0.058299 0.530157 0.512444 0.01855301 0.441219 -0.399974 0.182503 0.593442 -0.395693 0.20213 0.603443 -0.512444 0.202083 0.534732 -0.113447 0.105094 0.622687 -0.109165 0.124721 0.632687 -0.113447 0.08013999 0.609972 -0.399974 0.058299 0.530157 -0.395693 0.03867202 0.520157 -0.109165 0.06051301 0.599972 -0.512444 0.01855301 0.441219 0.141942 0.06694501 0.634136 0.125594 0.09024703 0.657604 0.09991598 0.02700603 0.648304 0.095079 0.05873298 0.669429 0.03330296 0.03193902 0.672634 0.05357396 0.05767297 0.687534 0 0.08086299 0.704357 0.02910298 0.08896499 0.706377 0.02910298 0.118075 0.717261 -0.02910298 0.08896499 0.706377 -0.02910298 0.118075 0.717261 0.04284197 0.168303 0.730177 0.060588 0.138512 0.722749 -0.060588 0.138512 0.722749 -0.04284197 0.168303 0.730177 -0.03330296 0.03193902 0.672634 -0.05357396 0.05767297 0.687534 -0.095079 0.05873298 0.669429 -0.09991598 0.02700603 0.648304 -0.125594 0.09024703 0.657604 -0.141942 0.06694501 0.634136 0.132016 0.4872511 0.619249 0.114965 0.483243 0.625861 0.104154 0.469491 0.632537 0.103714 0.451248 0.636725 0.113812 0.435483 0.636827 0.130592 0.428216 0.632804 0.147643 0.432224 0.626192 0.158454 0.445976 0.619516 0.158894 0.464219 0.615328 0.148796 0.479985 0.615226 -0.132016 0.4872511 0.619249 -0.148796 0.479985 0.615226 -0.158894 0.464219 0.615328 -0.158454 0.445976 0.619516 -0.147643 0.432224 0.626192 -0.130592 0.428216 0.632804 -0.113812 0.435483 0.636827 -0.103714 0.451248 0.636725 -0.104154 0.469491 0.632537 -0.114965 0.483243 0.625861</float_array>
          <technique_common>
            <accessor source="#Shape_IndexedFaceSet_013-mesh-positions-array" count="101" stride="3">
              <param name="X" type="float"/>
              <param name="Y" type="float"/>
              <param name="Z" type="float"/>
            </accessor>
          </technique_common>
        </source>
        <source id="Shape_IndexedFaceSet_013-mesh-normals">
          <float_array id="Shape_IndexedFaceSet_013-mesh-normals-array" count="303">-0.4963448 -0.8680857 0.008316755 -0.7729717 -0.587789 -0.2387862 0 -0.8666834 -0.4988588 0.7729717 -0.587789 -0.2387862 0.4963448 -0.8680857 0.008316755 -0.5401584 -0.4222548 -0.7279629 0.5401584 -0.4222548 -0.7279629 0 -0.2854291 -0.9583998 -0.6306177 -0.642359 0.4355413 -0.9933407 -0.03002876 -0.1112325 -0.763718 0.1686165 0.62314 -0.8627454 0.5049931 -0.0255444 -0.4748668 0.8750743 0.0935229 -0.2675176 0.8757682 0.4018266 0 0.9885355 0.1509889 0 0.5434926 0.8394141 0 0.8278771 0.5609097 -0.6021115 0.5676596 0.5614485 -0.5857504 0.6442262 -0.4918019 -0.3496651 0.915423 -0.1993364 -0.7271678 -0.2770121 0.6280854 0 -0.9835206 0.1807961 0 -0.7071397 0.7070739 0 0.9608581 -0.2770415 0 0.2871066 -0.9578987 -0.6329045 0.2385962 -0.7365486 0 0.1785055 0.9839389 0 -0.2834613 0.9589837 0.6306177 -0.642359 0.4355413 0.9933407 -0.0300287 -0.1112325 0.8627454 0.5049931 -0.0255444 0.7637179 0.1686165 0.62314 0.2675176 0.8757682 0.4018266 0.4748668 0.8750743 0.09352284 0.6021115 0.5676596 0.5614485 0.5857504 0.6442263 -0.491802 0.6329045 0.2385962 -0.7365486 0.3496651 0.915423 -0.1993364 0.7271679 -0.2770121 0.6280854 0 0.6689391 -0.7433172 -0.44944 -0.4597101 0.7659441 -0.6029338 -0.3409897 0.7212468 -0.4404082 -0.450095 0.7768238 0.6029335 -0.3409898 0.721247 0.4494399 -0.4597101 0.7659443 0.4404082 -0.450095 0.7768238 -0.1748486 -0.5631203 0.8076656 -0.1854304 -0.5895873 0.7861314 -1.29747e-7 -0.4198817 0.907579 -0.0520007 -0.4134422 0.9090444 0.1748486 -0.5631203 0.8076656 0.1854304 -0.5895873 0.7861314 -0.003498256 -0.2823901 0.9592933 0.003498375 -0.2823901 0.9592933 -0.3114562 0.2055066 0.9277727 -0.3114742 0.2054984 0.9277685 -0.3114537 0.2055034 0.9277743 0.311456 0.2055081 0.9277725 0.3114536 0.2054979 0.9277756 0.3114472 0.2055014 0.9277769 0.4817692 -0.3121488 0.8188173 0.3247895 -0.3721995 0.8694708 0.3556872 -0.3615671 0.8618329 0.2014335 -0.4094254 0.8898289 0.2014333 -0.4094233 0.8898299 0.2014391 -0.4792023 0.854276 0.3039512 -0.4842996 0.820407 0.201439 -0.4792025 0.8542759 0.3266738 -0.4846697 0.8114059 0.4320369 -0.4824581 0.7619569 -0.3247897 -0.3721994 0.8694708 -0.4817692 -0.3121485 0.8188174 -0.3556873 -0.3615669 0.8618329 -0.2014334 -0.4094255 0.8898289 -0.2014331 -0.4094234 0.8898299 -0.3039515 -0.4842991 0.8204073 -0.2014392 -0.4792024 0.854276 -0.2014391 -0.4792027 0.8542758 -0.4320375 -0.482457 0.7619572 -0.3266741 -0.4846692 0.8114061 -0.6058412 -0.3120207 0.7318468 0.6058405 -0.312021 0.7318471 0.05200022 -0.4134421 0.9090444 -0.003253519 -0.2482082 0.9687013 0.003254055 -0.2482081 0.9687013 0.008705258 -0.2468006 0.9690272 -0.008703887 -0.2468007 0.9690272 -0.3114073 0.2054592 0.9277996 -0.3114536 0.205497 0.9277758 -0.31153 0.2054686 0.9277563 -0.3114597 0.205509 0.9277709 -0.3114529 0.2055512 0.927764 -0.3114276 0.2054781 0.9277886 -0.3114553 0.2055466 0.9277642 0.3114733 0.205502 0.9277679 0.3115004 0.2054958 0.9277603 0.311428 0.2054783 0.9277884 0.3114508 0.2055513 0.9277645 0.3114616 0.2055072 0.9277707 0.3115298 0.205469 0.9277563 0.3114086 0.2054602 0.9277989</float_array>
          <technique_common>
            <accessor source="#Shape_IndexedFaceSet_013-mesh-normals-array" count="101" stride="3">
              <param name="X" type="float"/>
              <param name="Y" type="float"/>
              <param name="Z" type="float"/>
            </accessor>
          </technique_common>
        </source>
        <source id="Shape_IndexedFaceSet_013-mesh-map-0">
          <float_array id="Shape_IndexedFaceSet_013-mesh-map-0-array" count="738">0.2962252 0.5340028 0.1710644 0.6187348 0.1062552 0.5612954 0.1062552 0.5612954 0.1710644 0.6187348 0.2962252 0.5340028 0.1710644 0.6187348 0.04226291 0.6637976 0.1062552 0.5612954 0.1062552 0.5612954 0.04226291 0.6637976 0.1710644 0.6187348 0.04226291 0.6637976 0 0.6934732 0.1062552 0.5612954 0.1062552 0.5612954 0 0.6934732 0.04226291 0.6637976 0.1710644 0.6187348 0.395591 0.5900416 0.2052517 0.7464718 0.4230502 0.7900962 0.2475412 0.9087969 0.2052517 0.7464718 0.2692625 0.9757302 0.3365729 0.9703147 0.287843 1 0.3365729 0.9703147 0.4630735 0.8877199 0.3829441 0.9650392 0.3946714 0.9001393 0.2692625 0.9757302 0.2475412 0.9087969 0.1092182 0.9267044 0.2052517 0.7464718 0.2475412 0.9087969 0.1927177 0.9844408 0.2475412 0.9087969 0.2692625 0.9757302 0.4358999 0.6721171 0.4230502 0.7900962 0.2052517 0.7464718 0.395591 0.5900416 0.4358999 0.6721171 0.2052517 0.7464718 0.395591 0.5900416 0.3439742 0.5 0.4481242 0.5615183 0.1927177 0.9844408 0.287843 1 0.1655467 0.9951714 0.3365729 0.9703147 0.3829441 0.9650392 0.287843 1 0.1655467 0.9951714 0.1092182 0.9267044 0.1927177 0.9844408 0.4230502 0.7900962 0.4630735 0.8877199 0.3946714 0.9001393 0.1092182 0.9267044 0.006733119 0.8387417 0.04133725 0.8168386 0.04226291 0.6637976 0.2052517 0.7464718 0.04133725 0.8168386 0 0.6934732 0.04133725 0.8168386 0.006733119 0.8387417 0.4358999 0.6721171 0.5 0.7831004 0.4230502 0.7900962 0.2962252 0.5340028 0.1062552 0.5612954 0.3439742 0.5 0.395591 0.5900416 0.499554 0.6511531 0.4358999 0.6721171 0.395591 0.5900416 0.1710644 0.6187348 0.2052517 0.7464718 0.2475412 0.9087969 0.4230502 0.7900962 0.2052517 0.7464718 0.3365729 0.9703147 0.2692625 0.9757302 0.287843 1 0.3365729 0.9703147 0.4630735 0.8877199 0.3946714 0.9001393 0.2692625 0.9757302 0.3946714 0.9001393 0.2475412 0.9087969 0.1092182 0.9267044 0.2052517 0.7464718 0.04133725 0.8168386 0.1927177 0.9844408 0.2475412 0.9087969 0.1092182 0.9267044 0.4230502 0.7900962 0.4358999 0.6721171 0.2052517 0.7464718 0.4358999 0.6721171 0.395591 0.5900416 0.2052517 0.7464718 0.3439742 0.5 0.395591 0.5900416 0.4481242 0.5615183 0.287843 1 0.1927177 0.9844408 0.1655467 0.9951714 0.3829441 0.9650392 0.3365729 0.9703147 0.287843 1 0.1655467 0.9951714 0.1092182 0.9267044 0.0495963 0.9358991 0.4630735 0.8877199 0.4230502 0.7900962 0.3946714 0.9001393 0.006733119 0.8387417 0.1092182 0.9267044 0.04133725 0.8168386 0.04226291 0.6637976 0.2052517 0.7464718 0.1710644 0.6187348 0.04133725 0.8168386 0 0.6934732 0.006733119 0.8387417 0.4358999 0.6721171 0.5 0.7831004 0.499554 0.6511531 0.1062552 0.5612954 0.2962252 0.5340028 0.3439742 0.5 0.499554 0.6511531 0.395591 0.5900416 0.4358999 0.6721171 0.2036149 0.04286342 0.1807524 0.05162382 0.2012551 0.009017527 0.3192476 0.05162382 0.2963851 0.04286342 0.2987448 0.009017527 0.2036149 0.04286342 0.2337528 0.01427996 0.2238634 0.0417326 0.2238634 0.0417326 0.25 0.06647133 0.2358018 0.07511442 0.2963851 0.04286342 0.2662472 0.01427996 0.2987448 0.009017527 0.2761365 0.0417326 0.25 0.06647133 0.2662472 0.01427996 0.2358018 0.1061685 0.25 0.06647133 0.2641981 0.1061685 0.1944758 0.4447747 0.1991876 0.4810539 0.1855949 0.5 0.3055241 0.4447747 0.3275178 0.4754298 0.3144051 0.5 0.5 0.195787 0.443042 0.1958371 0.4451306 0.1748993 0.4451306 0.1748993 0.3032571 0.1132584 0.305346 0.09232062 0.3032571 0.04476231 0.4451306 0.04240041 0.305346 0.06570005 0.443042 0.02146261 0.5 0 0.4451306 0.04240041 0.0569579 0.1958371 0 0.195787 0.05486941 0.1748993 0.1967429 0.1132584 0.05486941 0.1748993 0.1946539 0.09232062 0.05486941 0.04240041 0.1967429 0.04476231 0.1946539 0.06570005 0 0 0.0569579 0.02146261 0.05486941 0.04240041 0.1710644 0.6187348 0.2962252 0.5340028 0.395591 0.5900416 0.4230502 0.7900962 0.3946714 0.9001393 0.2475412 0.9087969 0.3365729 0.9703147 0.3946714 0.9001393 0.4630735 0.8877199 0.3946714 0.9001393 0.3365729 0.9703147 0.2692625 0.9757302 0.1092182 0.9267044 0.04133725 0.8168386 0.2052517 0.7464718 0.1927177 0.9844408 0.1092182 0.9267044 0.2475412 0.9087969 0.395591 0.5900416 0.2962252 0.5340028 0.3439742 0.5 0.1927177 0.9844408 0.2692625 0.9757302 0.287843 1 0.1655467 0.9951714 0.0495963 0.9358991 0.1092182 0.9267044 0.4230502 0.7900962 0.5 0.7831004 0.4630735 0.8877199 0.1092182 0.9267044 0.0495963 0.9358991 0.006733119 0.8387417 0.04226291 0.6637976 0.1710644 0.6187348 0.2052517 0.7464718 0 0.6934732 0.04226291 0.6637976 0.04133725 0.8168386 0.4358999 0.6721171 0.499554 0.6511531 0.5 0.7831004 0.395591 0.5900416 0.4481242 0.5615183 0.499554 0.6511531 0.395591 0.5900416 0.2962252 0.5340028 0.1710644 0.6187348 0.2475412 0.9087969 0.3946714 0.9001393 0.4230502 0.7900962 0.3365729 0.9703147 0.3829441 0.9650392 0.4630735 0.8877199 0.2692625 0.9757302 0.3365729 0.9703147 0.3946714 0.9001393 0.1092182 0.9267044 0.2475412 0.9087969 0.2052517 0.7464718 0.1927177 0.9844408 0.2692625 0.9757302 0.2475412 0.9087969 0.3439742 0.5 0.2962252 0.5340028 0.395591 0.5900416 0.287843 1 0.2692625 0.9757302 0.1927177 0.9844408 0.1655467 0.9951714 0.1927177 0.9844408 0.1092182 0.9267044 0.4630735 0.8877199 0.5 0.7831004 0.4230502 0.7900962 0.006733119 0.8387417 0.0495963 0.9358991 0.1092182 0.9267044 0.04226291 0.6637976 0.04133725 0.8168386 0.2052517 0.7464718 0.04133725 0.8168386 0.04226291 0.6637976 0 0.6934732 0.4358999 0.6721171 0.4230502 0.7900962 0.5 0.7831004 0.499554 0.6511531 0.4481242 0.5615183 0.395591 0.5900416 0.2036149 0.04286342 0.1887279 0.07648205 0.1807524 0.05162382 0.3192476 0.05162382 0.311272 0.07648205 0.2963851 0.04286342 0.2036149 0.04286342 0.2012551 0.009017527 0.2337528 0.01427996 0.2238634 0.0417326 0.2337528 0.01427996 0.25 0.06647133 0.2963851 0.04286342 0.2761365 0.0417326 0.2662472 0.01427996 0.2761365 0.0417326 0.2641981 0.07511442 0.25 0.06647133 0.2709009 0.159751 0.2290992 0.159751 0.2358018 0.1061685 0.2290992 0.159751 0.2204416 0.1279704 0.2358018 0.1061685 0.2358018 0.1061685 0.2358018 0.07511442 0.25 0.06647133 0.2641981 0.1061685 0.2795584 0.1279704 0.2709009 0.159751 0.25 0.06647133 0.2641981 0.07511442 0.2641981 0.1061685 0.2709009 0.159751 0.2358018 0.1061685 0.2641981 0.1061685 0.1855949 0.5 0.1774086 0.4922488 0.1724822 0.4754298 0.1724822 0.4754298 0.1726969 0.4559684 0.1779711 0.441298 0.1779711 0.441298 0.1862896 0.4370223 0.1944758 0.4447747 0.1944758 0.4447747 0.1994022 0.4615926 0.1991876 0.4810539 0.1991876 0.4810539 0.1939134 0.4957243 0.1855949 0.5 0.1855949 0.5 0.1724822 0.4754298 0.1779711 0.441298 0.1779711 0.441298 0.1944758 0.4447747 0.1855949 0.5 0.3144051 0.5 0.3060867 0.4957243 0.3055241 0.4447747 0.3060867 0.4957243 0.3008124 0.4810539 0.3055241 0.4447747 0.3008124 0.4810539 0.3005977 0.4615926 0.3055241 0.4447747 0.3055241 0.4447747 0.3137103 0.4370223 0.3220289 0.441298 0.3220289 0.441298 0.3273031 0.4559684 0.3275178 0.4754298 0.3275178 0.4754298 0.3225913 0.4922488 0.3144051 0.5 0.3055241 0.4447747 0.3220289 0.441298 0.3275178 0.4754298 0.4451306 0.1748993 0.443042 0.1958371 0.3032571 0.1132584 0.3032571 0.04476231 0.443042 0.02146261 0.4451306 0.04240041 0.1967429 0.1132584 0.0569579 0.1958371 0.05486941 0.1748993 0.05486941 0.04240041 0.0569579 0.02146261 0.1967429 0.04476231</float_array>
          <technique_common>
            <accessor source="#Shape_IndexedFaceSet_013-mesh-map-0-array" count="369" stride="2">
              <param name="S" type="float"/>
              <param name="T" type="float"/>
            </accessor>
          </technique_common>
        </source>
        <vertices id="Shape_IndexedFaceSet_013-mesh-vertices">
          <input semantic="POSITION" source="#Shape_IndexedFaceSet_013-mesh-positions"/>
        </vertices>
        <triangles material="goma-material" count="123">
          <input semantic="VERTEX" source="#Shape_IndexedFaceSet_013-mesh-vertices" offset="0"/>
          <input semantic="NORMAL" source="#Shape_IndexedFaceSet_013-mesh-normals" offset="1"/>
          <input semantic="TEXCOORD" source="#Shape_IndexedFaceSet_013-mesh-map-0" offset="2" set="0"/>
          <p>28 0 0 27 1 1 17 2 2 17 2 3 12 3 4 16 4 5 27 1 6 30 5 7 17 2 8 17 2 9 13 6 10 12 3 11 30 5 12 14 7 13 17 2 14 17 2 15 14 7 16 13 6 17 27 1 18 29 8 19 26 9 20 32 10 21 34 11 22 26 9 23 35 12 24 36 13 25 0 14 26 36 13 27 24 15 28 4 16 29 33 17 30 35 12 31 34 11 32 37 18 33 26 9 34 34 11 35 38 19 36 34 11 37 35 12 38 39 20 39 32 10 40 26 9 41 29 8 42 39 20 43 26 9 44 29 8 45 18 21 46 21 22 47 38 19 48 0 14 49 3 23 50 36 13 51 4 16 52 0 14 53 3 23 54 37 18 55 38 19 56 32 10 57 24 15 58 33 17 59 37 18 60 11 24 61 31 25 62 30 5 63 26 9 64 31 25 65 14 7 66 31 25 67 11 24 68 39 20 69 22 26 70 32 10 71 28 0 72 17 2 73 18 21 74 29 8 75 15 27 76 39 20 77 20 28 78 12 3 79 9 29 80 6 30 81 23 31 82 9 29 83 5 32 84 1 33 85 0 14 86 5 32 87 24 15 88 25 34 89 1 33 90 25 34 91 6 30 92 7 35 93 9 29 94 10 36 95 2 37 96 6 30 97 7 35 98 23 31 99 19 38 100 9 29 101 19 38 102 20 28 103 9 29 104 18 21 105 20 28 106 21 22 107 0 14 108 2 37 109 3 23 110 4 16 111 5 32 112 0 14 113 3 23 114 7 35 115 8 39 116 24 15 117 23 31 118 25 34 119 11 24 120 7 35 121 10 36 122 13 6 123 9 29 124 12 3 125 10 36 126 14 7 127 11 24 128 19 38 129 22 26 130 15 27 131 17 2 132 16 4 133 18 21 134 15 27 135 20 28 136 19 38 137 77 40 138 80 41 139 78 42 140 60 43 141 63 44 142 62 45 143 77 40 144 75 46 145 76 47 146 76 47 147 66 48 148 69 49 149 63 44 150 64 50 151 62 45 152 65 51 153 66 48 154 64 50 155 70 52 156 66 48 157 68 53 158 97 54 159 99 55 160 91 56 161 85 57 162 89 58 163 81 59 164 42 60 165 43 61 166 41 62 167 41 62 168 44 63 169 40 64 170 46 65 171 48 66 172 45 67 173 47 68 174 49 69 175 48 66 176 51 70 177 52 71 178 50 72 179 54 73 180 50 72 181 53 74 182 56 75 183 58 76 184 55 77 185 59 78 186 57 79 187 56 75 188 27 1 189 28 0 190 29 8 191 32 10 192 33 17 193 34 11 194 36 13 195 33 17 196 24 15 197 33 17 198 36 13 199 35 12 200 37 18 201 31 25 202 26 9 203 38 19 204 37 18 205 34 11 206 29 8 207 28 0 208 18 21 209 38 19 210 35 12 211 0 14 212 3 23 213 8 39 214 37 18 215 32 10 216 22 26 217 24 15 218 37 18 219 8 39 220 11 24 221 30 5 222 27 1 223 26 9 224 14 7 225 30 5 226 31 25 227 39 20 228 15 27 229 22 26 230 29 8 231 21 22 232 15 27 233 20 28 234 16 4 235 12 3 236 6 30 237 25 34 238 23 31 239 5 32 240 4 16 241 24 15 242 1 33 243 5 32 244 25 34 245 7 35 246 6 30 247 9 29 248 2 37 249 1 33 250 6 30 251 18 21 252 16 4 253 20 28 254 0 14 255 1 33 256 2 37 257 3 23 258 2 37 259 7 35 260 24 15 261 22 26 262 23 31 263 11 24 264 8 39 265 7 35 266 13 6 267 10 36 268 9 29 269 10 36 270 13 6 271 14 7 272 19 38 273 23 31 274 22 26 275 15 27 276 21 22 277 20 28 278 77 40 279 79 80 280 80 41 281 60 43 282 61 81 283 63 44 284 77 40 285 78 42 286 75 46 287 76 47 288 75 46 289 66 48 290 63 44 291 65 51 292 64 50 293 65 51 294 67 82 295 66 48 296 71 83 297 74 84 298 70 52 299 74 84 300 73 85 301 70 52 302 70 52 303 69 49 304 66 48 305 68 53 306 72 86 307 71 83 308 66 48 309 67 82 310 68 53 311 71 83 312 70 52 313 68 53 314 91 56 315 92 87 316 93 88 317 93 88 318 94 89 319 95 90 320 95 90 321 96 91 322 97 54 323 97 54 324 98 92 325 99 55 326 99 55 327 100 93 328 91 56 329 91 56 330 93 88 331 95 90 332 95 90 333 97 54 334 91 56 335 81 59 336 82 94 337 85 57 338 82 94 339 83 95 340 85 57 341 83 95 342 84 96 343 85 57 344 85 57 345 86 97 346 87 98 347 87 98 348 88 99 349 89 58 350 89 58 351 90 100 352 81 59 353 85 57 354 87 98 355 89 58 356 41 62 357 43 61 358 44 63 359 46 65 360 47 68 361 48 66 362 54 73 363 51 70 364 50 72 365 56 75 366 57 79 367 58 76 368</p>
        </triangles>
      </mesh>
    </geometry>
    <geometry id="Shape_IndexedFaceSet_012-mesh" name="Shape_IndexedFaceSet.012">
      <mesh>
        <source id="Shape_IndexedFaceSet_012-mesh-positions">
          <float_array id="Shape_IndexedFaceSet_012-mesh-positions-array" count="126">0 -0.343694 -0.831238 0 0.185506 -0.461621 0 0.29837 -0.261346 0 0.476726 -0.03942096 0 -0.428595 -0.274717 0 -0.406569 0.484846 0 -0.101515 0.684651 0 -0.404638 -0.590919 0 -0.01162999 -0.690388 0 0.556441 0.088499 0 0.2502 0.703907 0 0.550191 0.517789 -0.361982 0.453473 0.416667 -0.255178 0.2349539 0.648838 -0.297678 0.520687 0.190068 -0.2822 0.393372 0.03280097 -0.441137 0.212258 0.209832 -0.3247 -0.02326095 0.637929 -0.1784999 0.09293997 -0.404692 -0.1322 -0.07225596 -0.661393 -0.1983579 -0.234382 -0.635462 -0.335737 -0.167446 -0.345397 -0.138238 -0.357459 -0.606198 -0.1784999 -0.381929 -0.318046 -0.4845 -0.009899973 -0.008099973 -0.379937 -0.331894 0.409199 -0.294937 0.189694 -0.160199 0.361982 0.453473 0.416667 0.255178 0.2349539 0.648838 0.297678 0.520687 0.190068 0.2822 0.393372 0.03280097 0.441137 0.212258 0.209832 0.3247 -0.02326095 0.637929 0.1784999 0.09293997 -0.404692 0.335737 -0.167446 -0.345397 0.1983579 -0.234382 -0.635462 0.1322 -0.07225596 -0.661393 0.1784999 -0.381929 -0.318046 0.138238 -0.357459 -0.606198 0.4845 -0.009899973 -0.008099973 0.379937 -0.331894 0.409199 0.294937 0.189694 -0.160199</float_array>
          <technique_common>
            <accessor source="#Shape_IndexedFaceSet_012-mesh-positions-array" count="42" stride="3">
              <param name="X" type="float"/>
              <param name="Y" type="float"/>
              <param name="Z" type="float"/>
            </accessor>
          </technique_common>
        </source>
        <source id="Shape_IndexedFaceSet_012-mesh-normals">
          <float_array id="Shape_IndexedFaceSet_012-mesh-normals-array" count="126">0 0.8560504 0.5168923 0.5406537 0.2559114 0.8013756 0.7513976 0.5568957 0.3539336 0.55827 0.7965345 -0.2320936 0 0.9402924 -0.3403681 0.6245625 0.5852546 -0.5171062 0.9725687 0.2325903 0.003470003 0.6414174 -0.1324952 0.7556645 0 -0.3330808 0.9428983 0 0.2484487 0.9686452 0.9248294 -0.168185 -0.3411808 0.6197357 0.4246166 -0.6600216 0.6497175 0.578463 -0.4932015 0.850551 -0.136689 -0.5078182 0 -0.4272565 -0.9041305 0.5508837 -0.8267218 -0.1142731 0.6260651 -0.7324183 -0.267593 0 -0.985164 -0.1716158 0 -0.99959 -0.02863609 0 0.6124776 -0.790488 0 0.8284029 -0.5601328 0.9773691 0.003759026 -0.2115079 0.6893213 -0.6410038 0.3375653 0 -0.8628933 0.5053862 0.6799913 0.5247546 -0.5120983 0 0.7998919 -0.6001442 -0.5406537 0.2559114 0.8013758 -0.7513976 0.5568957 0.3539336 -0.55827 0.7965345 -0.2320936 -0.6245625 0.5852546 -0.5171062 -0.9725687 0.2325903 0.003470003 -0.6197357 0.4246166 -0.6600216 -0.9248294 -0.168185 -0.3411808 -0.6497175 0.578463 -0.4932015 -0.8505509 -0.136689 -0.5078182 -0.5508837 -0.8267218 -0.1142731 -0.6260651 -0.7324183 -0.267593 -0.9773691 0.003759026 -0.2115079 -0.6893213 -0.6410039 0.3375653 -0.6414173 -0.1324952 0.7556645 -0.6799913 0.5247546 -0.5120983 0 0.8147828 -0.5797663</float_array>
          <technique_common>
            <accessor source="#Shape_IndexedFaceSet_012-mesh-normals-array" count="42" stride="3">
              <param name="X" type="float"/>
              <param name="Y" type="float"/>
              <param name="Z" type="float"/>
            </accessor>
          </technique_common>
        </source>
        <source id="Shape_IndexedFaceSet_012-mesh-map-0">
          <float_array id="Shape_IndexedFaceSet_012-mesh-map-0-array" count="480">0.439381 0.9968275 0.4820639 0.8368146 0.4064453 0.9477339 0.439381 0.9968275 0.3326416 0.9818515 0.2995603 1 0.2814193 0.9172269 0.2995603 1 0.3326416 0.9818515 0.3390787 0.8252942 0.3326416 0.9818515 0.4064453 0.9477339 0.3390787 0.8252942 0.4820639 0.8368146 0.4785109 0.7057458 0.4937283 0.6660244 0.4820639 0.8368146 0.5 0.8445534 0.1582394 0.6325581 0.05531889 0.6808761 0.1389269 0.7647289 0.05531889 0.6808761 0.06376463 0.5985817 0 0.5430954 0.1671477 0.5236875 0.06376463 0.5985817 0.1582394 0.6325581 0.06376463 0.5985817 0.07329601 0.5361083 0 0.5430954 0.0782724 0.5121605 0.1671477 0.5236875 0.1812601 0.5 0.07329601 0.5361083 0.0782724 0.5121605 0 0.5430954 0.04587513 0.7116497 0.05531889 0.6808761 0 0.5430954 0.05531889 0.6808761 0.120385 0.811715 0.1389269 0.7647289 0.1671477 0.5236875 0.2680978 0.7125278 0.404013 0.549085 0.1812601 0.5 0.404013 0.549085 0.4286513 0.5111803 0.404013 0.549085 0.3390787 0.8252942 0.4785109 0.7057458 0.4937283 0.6660244 0.404013 0.549085 0.4785109 0.7057458 0.1582394 0.6325581 0.2185588 0.8138408 0.2680978 0.7125278 0.1389269 0.7647289 0.185615 0.8690043 0.2185588 0.8138408 0.2185588 0.8138408 0.3390787 0.8252942 0.2680978 0.7125278 0.185615 0.8690043 0.2814193 0.9172269 0.2185588 0.8138408 0.4820639 0.8368146 0.439381 0.9968275 0.4064453 0.9477339 0.3326416 0.9818515 0.439381 0.9968275 0.2995603 1 0.2995603 1 0.2814193 0.9172269 0.3326416 0.9818515 0.3326416 0.9818515 0.3390787 0.8252942 0.4064453 0.9477339 0.3390787 0.8252942 0.4820639 0.8368146 0.4064453 0.9477339 0.4820639 0.8368146 0.4937283 0.6660244 0.5 0.8445534 0.05531889 0.6808761 0.1582394 0.6325581 0.1389269 0.7647289 0.06376463 0.5985817 0.05531889 0.6808761 0 0.5430954 0.06376463 0.5985817 0.1671477 0.5236875 0.1582394 0.6325581 0.07329601 0.5361083 0.06376463 0.5985817 0 0.5430954 0.0782724 0.5121605 0.1671477 0.5236875 0.07329601 0.5361083 0.0782724 0.5121605 0.07329601 0.5361083 0 0.5430954 0.05531889 0.6808761 0.04587513 0.7116497 0 0.5430954 0.05531889 0.6808761 0.120385 0.811715 0.04587513 0.7116497 0.1671477 0.5236875 0.2680978 0.7125278 0.1582394 0.6325581 0.1812601 0.5 0.404013 0.549085 0.1671477 0.5236875 0.404013 0.549085 0.3390787 0.8252942 0.2680978 0.7125278 0.404013 0.549085 0.4937283 0.6660244 0.4785109 0.7057458 0.2185588 0.8138408 0.1582394 0.6325581 0.2680978 0.7125278 0.185615 0.8690043 0.1389269 0.7647289 0.2185588 0.8138408 0.2185588 0.8138408 0.3390787 0.8252942 0.2814193 0.9172269 0.185615 0.8690043 0.2814193 0.9172269 0.2578965 0.959537 0.439381 0.9968275 0.5 0.8445534 0.4820639 0.8368146 0.439381 0.9968275 0.4064453 0.9477339 0.3326416 0.9818515 0.2814193 0.9172269 0.2578965 0.959537 0.2995603 1 0.3390787 0.8252942 0.2814193 0.9172269 0.3326416 0.9818515 0.3390787 0.8252942 0.4064453 0.9477339 0.4820639 0.8368146 0.4937283 0.6660244 0.4785109 0.7057458 0.4820639 0.8368146 0.1582394 0.6325581 0.06376463 0.5985817 0.05531889 0.6808761 0.1671477 0.5236875 0.07329601 0.5361083 0.06376463 0.5985817 0.0782724 0.5121605 0.07329601 0.5361083 0.1671477 0.5236875 0.05531889 0.6808761 0.04587513 0.7116497 0.120385 0.811715 0.1671477 0.5236875 0.1582394 0.6325581 0.2680978 0.7125278 0.1812601 0.5 0.1671477 0.5236875 0.404013 0.549085 0.404013 0.549085 0.2680978 0.7125278 0.3390787 0.8252942 0.4937283 0.6660244 0.4286513 0.5111803 0.404013 0.549085 0.1582394 0.6325581 0.1389269 0.7647289 0.2185588 0.8138408 0.1389269 0.7647289 0.120385 0.811715 0.185615 0.8690043 0.2185588 0.8138408 0.2814193 0.9172269 0.3390787 0.8252942 0.185615 0.8690043 0.2578965 0.959537 0.2814193 0.9172269 0.4820639 0.8368146 0.5 0.8445534 0.439381 0.9968275 0.3326416 0.9818515 0.4064453 0.9477339 0.439381 0.9968275 0.2995603 1 0.2578965 0.959537 0.2814193 0.9172269 0.3326416 0.9818515 0.2814193 0.9172269 0.3390787 0.8252942 0.3390787 0.8252942 0.4785109 0.7057458 0.4820639 0.8368146 0.4820639 0.8368146 0.4785109 0.7057458 0.4937283 0.6660244 0.05531889 0.6808761 0.06376463 0.5985817 0.1582394 0.6325581 0.06376463 0.5985817 0.07329601 0.5361083 0.1671477 0.5236875 0.0782724 0.5121605 0.1812601 0.5 0.1671477 0.5236875 0.05531889 0.6808761 0.1389269 0.7647289 0.120385 0.811715 0.1671477 0.5236875 0.404013 0.549085 0.2680978 0.7125278 0.1812601 0.5 0.4286513 0.5111803 0.404013 0.549085 0.404013 0.549085 0.4785109 0.7057458 0.3390787 0.8252942 0.404013 0.549085 0.4286513 0.5111803 0.4937283 0.6660244 0.2185588 0.8138408 0.1389269 0.7647289 0.1582394 0.6325581 0.185615 0.8690043 0.120385 0.811715 0.1389269 0.7647289 0.2185588 0.8138408 0.2680978 0.7125278 0.3390787 0.8252942 0.185615 0.8690043 0.2185588 0.8138408 0.2814193 0.9172269</float_array>
          <technique_common>
            <accessor source="#Shape_IndexedFaceSet_012-mesh-map-0-array" count="240" stride="2">
              <param name="S" type="float"/>
              <param name="T" type="float"/>
            </accessor>
          </technique_common>
        </source>
        <vertices id="Shape_IndexedFaceSet_012-mesh-vertices">
          <input semantic="POSITION" source="#Shape_IndexedFaceSet_012-mesh-positions"/>
        </vertices>
        <triangles material="goma-material" count="80">
          <input semantic="VERTEX" source="#Shape_IndexedFaceSet_012-mesh-vertices" offset="0"/>
          <input semantic="NORMAL" source="#Shape_IndexedFaceSet_012-mesh-normals" offset="1"/>
          <input semantic="TEXCOORD" source="#Shape_IndexedFaceSet_012-mesh-map-0" offset="2" set="0"/>
          <p>11 0 0 28 1 1 27 2 2 11 0 3 29 3 4 9 4 5 30 5 6 9 4 7 29 3 8 31 6 9 29 3 10 27 2 11 31 6 12 28 1 13 32 7 14 6 8 15 28 1 16 10 9 17 34 10 18 36 11 19 33 12 20 36 11 21 35 13 22 0 14 23 37 15 24 35 13 25 34 10 26 35 13 27 38 16 28 0 14 29 7 17 30 37 15 31 4 18 32 38 16 33 7 17 34 0 14 35 8 19 36 36 11 37 0 14 38 36 11 39 1 20 40 33 12 41 37 15 42 39 21 43 40 22 44 4 18 45 40 22 46 5 23 47 40 22 48 31 6 49 32 7 50 6 8 51 40 22 52 32 7 53 34 10 54 41 24 55 39 21 56 33 12 57 2 25 58 41 24 59 41 24 60 31 6 61 39 21 62 2 25 63 30 5 64 41 24 65 13 26 66 11 0 67 12 27 68 14 28 69 11 0 70 9 4 71 9 4 72 15 29 73 14 28 74 14 28 75 16 30 76 12 27 77 16 30 78 13 26 79 12 27 80 13 26 81 6 8 82 10 9 83 19 31 84 21 32 85 18 33 86 20 34 87 19 31 88 0 14 89 20 34 90 23 35 91 21 32 92 22 36 93 20 34 94 0 14 95 7 17 96 23 35 97 22 36 98 7 17 99 22 36 100 0 14 101 19 31 102 8 19 103 0 14 104 19 31 105 1 20 106 8 19 107 23 35 108 24 37 109 21 32 110 4 18 111 25 38 112 23 35 113 25 38 114 16 30 115 24 37 116 25 38 117 6 8 118 17 39 119 26 40 120 21 32 121 24 37 122 2 25 123 18 33 124 26 40 125 26 40 126 16 30 127 15 29 128 2 25 129 15 29 130 3 41 131 11 0 132 10 9 133 28 1 134 11 0 135 27 2 136 29 3 137 30 5 138 3 41 139 9 4 140 31 6 141 30 5 142 29 3 143 31 6 144 27 2 145 28 1 146 6 8 147 32 7 148 28 1 149 34 10 150 35 13 151 36 11 152 37 15 153 38 16 154 35 13 155 7 17 156 38 16 157 37 15 158 36 11 159 8 19 160 1 20 161 37 15 162 34 10 163 39 21 164 4 18 165 37 15 166 40 22 167 40 22 168 39 21 169 31 6 170 6 8 171 5 23 172 40 22 173 34 10 174 33 12 175 41 24 176 33 12 177 1 20 178 2 25 179 41 24 180 30 5 181 31 6 182 2 25 183 3 41 184 30 5 185 13 26 186 10 9 187 11 0 188 14 28 189 12 27 190 11 0 191 9 4 192 3 41 193 15 29 194 14 28 195 15 29 196 16 30 197 16 30 198 17 39 199 13 26 200 13 26 201 17 39 202 6 8 203 19 31 204 20 34 205 21 32 206 20 34 207 22 36 208 23 35 209 7 17 210 4 18 211 23 35 212 19 31 213 18 33 214 1 20 215 23 35 216 25 38 217 24 37 218 4 18 219 5 23 220 25 38 221 25 38 222 17 39 223 16 30 224 25 38 225 5 23 226 6 8 227 26 40 228 18 33 229 21 32 230 2 25 231 1 20 232 18 33 233 26 40 234 24 37 235 16 30 236 2 25 237 26 40 238 15 29 239</p>
        </triangles>
      </mesh>
    </geometry>
  </library_geometries>
  <library_visual_scenes>
    <visual_scene id="Scene" name="Scene">
      <node id="eyes" name="eyes" type="NODE">
        <matrix sid="transform">-1 6.60024e-15 -8.74228e-8 0 -8.74228e-8 -7.54979e-8 1 1.05 0 1 7.54979e-8 1.13 0 0 0 1</matrix>
        <instance_geometry url="#Shape_IndexedFaceSet_015-mesh" name="eyes">
          <bind_material>
            <technique_common>
              <instance_material symbol="goma-material" target="#goma-material">
                <bind_vertex_input semantic="UVMap" input_semantic="TEXCOORD" input_set="0"/>
              </instance_material>
            </technique_common>
          </bind_material>
        </instance_geometry>
      </node>
      <node id="tail" name="tail" type="NODE">
        <matrix sid="transform">-1 1.36773e-8 -8.63462e-8 0 -8.74228e-8 -0.1564498 0.9876859 -0.7 0 0.9876859 0.1564498 0.12 0 0 0 1</matrix>
        <instance_geometry url="#Shape_IndexedFaceSet_018-mesh" name="tail">
          <bind_material>
            <technique_common>
              <instance_material symbol="goma-material" target="#goma-material">
                <bind_vertex_input semantic="UVMap" input_semantic="TEXCOORD" input_set="0"/>
              </instance_material>
            </technique_common>
          </bind_material>
        </instance_geometry>
      </node>
      <node id="handLeft" name="handLeft" type="NODE">
        <matrix sid="transform">-1 6.60024e-15 -8.74228e-8 -0.2 -8.74228e-8 -7.54979e-8 1 0.31 0 1 7.54979e-8 0.2 0 0 0 1</matrix>
        <instance_geometry url="#Shape_IndexedFaceSet_017-mesh" name="handLeft">
          <bind_material>
            <technique_common>
              <instance_material symbol="goma-material" target="#goma-material">
                <bind_vertex_input semantic="UVMap" input_semantic="TEXCOORD" input_set="0"/>
              </instance_material>
            </technique_common>
          </bind_material>
        </instance_geometry>
      </node>
      <node id="handRight" name="handRight" type="NODE">
        <matrix sid="transform">-1 6.60024e-15 -8.74228e-8 0.2 -8.74228e-8 -7.54979e-8 1 0.31 0 1 7.54979e-8 0.2 0 0 0 1</matrix>
        <instance_geometry url="#Shape_IndexedFaceSet_016-mesh" name="handRight">
          <bind_material>
            <technique_common>
              <instance_material symbol="goma-material" target="#goma-material">
                <bind_vertex_input semantic="UVMap" input_semantic="TEXCOORD" input_set="0"/>
              </instance_material>
            </technique_common>
          </bind_material>
        </instance_geometry>
      </node>
      <node id="head" name="head" type="NODE">
        <matrix sid="transform">-1 6.60024e-15 -8.74228e-8 0 -8.74228e-8 -7.54979e-8 1 0.41 0 1 7.54979e-8 0.82 0 0 0 1</matrix>
        <instance_geometry url="#Shape_IndexedFaceSet_013-mesh" name="head">
          <bind_material>
            <technique_common>
              <instance_material symbol="goma-material" target="#goma-material">
                <bind_vertex_input semantic="UVMap" input_semantic="TEXCOORD" input_set="0"/>
              </instance_material>
            </technique_common>
          </bind_material>
        </instance_geometry>
      </node>
      <node id="body" name="body" type="NODE">
        <matrix sid="transform">-1 6.60024e-15 -8.74228e-8 0 -8.74228e-8 -7.54979e-8 1 0 0 1 7.54979e-8 0.4 0 0 0 1</matrix>
        <instance_geometry url="#Shape_IndexedFaceSet_012-mesh" name="body">
          <bind_material>
            <technique_common>
              <instance_material symbol="goma-material" target="#goma-material">
                <bind_vertex_input semantic="UVMap" input_semantic="TEXCOORD" input_set="0"/>
              </instance_material>
            </technique_common>
          </bind_material>
        </instance_geometry>
      </node>
    </visual_scene>
  </library_visual_scenes>
  <scene>
    <instance_visual_scene url="#Scene"/>
  </scene>
</COLLADA>