# Blender 3.6.2
# www.blender.org
mtllib goma.mtl
o body
v 0.000000 0.056306 0.831238
v 0.000000 0.585506 0.461621
v 0.000000 0.698370 0.261346
v 0.000000 0.876726 0.039421
v 0.000000 -0.028595 0.274717
v -0.000000 -0.006569 -0.484846
v -0.000000 0.298485 -0.684651
v 0.000000 -0.004638 0.590919
v 0.000000 0.388370 0.690388
v -0.000000 0.956441 -0.088499
v -0.000000 0.650200 -0.703907
v -0.000000 0.950191 -0.517789
v 0.361982 0.853473 -0.416667
v 0.255178 0.634954 -0.648838
v 0.297678 0.920687 -0.190068
v 0.282200 0.793372 -0.032801
v 0.441137 0.612258 -0.209832
v 0.324700 0.376739 -0.637929
v 0.178500 0.492940 0.404692
v 0.132200 0.327744 0.661393
v 0.198358 0.165618 0.635462
v 0.335737 0.232554 0.345397
v 0.138238 0.042541 0.606198
v 0.178500 0.018071 0.318046
v 0.484500 0.390100 0.008100
v 0.379937 0.068106 -0.409199
v 0.294937 0.589694 0.160199
v -0.361982 0.853473 -0.416667
v -0.255178 0.634954 -0.648838
v -0.297678 0.920687 -0.190068
v -0.282200 0.793372 -0.032801
v -0.441137 0.612258 -0.209832
v -0.324700 0.376739 -0.637929
v -0.178500 0.492940 0.404692
v -0.335737 0.232554 0.345397
v -0.198358 0.165618 0.635462
v -0.132200 0.327744 0.661393
v -0.178500 0.018071 0.318046
v -0.138238 0.042541 0.606198
v -0.484500 0.390100 0.008100
v -0.379937 0.068106 -0.409199
v -0.294937 0.589694 0.160199
vn -0.0000 0.8573 -0.5149
vn -0.0000 0.2913 -0.9566
vn -0.5448 0.2459 -0.8017
vn -0.7159 0.6250 -0.3114
vn -0.5578 0.8009 0.2178
vn -0.0000 0.9435 0.3312
vn -0.6310 0.6108 0.4783
vn -0.0000 0.7720 0.6356
vn -0.9707 0.2403 -0.0054
vn -0.6495 -0.1667 -0.7419
vn -0.0000 -0.3332 -0.9429
vn -0.9217 -0.1359 0.3632
vn -0.8517 -0.1221 0.5097
vn -0.6227 0.4303 0.6535
vn -0.6464 0.5702 0.5070
vn -0.0000 -0.4273 0.9041
vn -0.5502 -0.8268 0.1169
vn -0.5899 -0.7601 0.2723
vn -0.0000 -0.9995 0.0307
vn -0.0000 -0.9863 0.1648
vn -0.0000 0.6221 0.7829
vn -0.0000 0.8112 0.5847
vn -0.6883 -0.6416 -0.3385
vn -0.9783 -0.0070 0.2072
vn -0.0000 -0.8673 -0.4978
vn -0.6760 0.5392 0.5023
vn -0.0000 0.7967 0.6044
vn 0.5448 0.2459 -0.8017
vn 0.7159 0.6250 -0.3114
vn 0.5578 0.8009 0.2178
vn 0.6310 0.6108 0.4783
vn 0.9707 0.2403 -0.0054
vn 0.6495 -0.1667 -0.7419
vn 0.6227 0.4303 0.6535
vn 0.8517 -0.1221 0.5097
vn 0.9217 -0.1359 0.3632
vn 0.6464 0.5702 0.5070
vn 0.5899 -0.7601 0.2723
vn 0.5502 -0.8268 0.1169
vn 0.6883 -0.6416 -0.3385
vn 0.9783 -0.0070 0.2072
vn 0.6760 0.5392 0.5023
vt 0.439381 0.996827
vt 0.500000 0.844553
vt 0.482064 0.836815
vt 0.406445 0.947734
vt 0.332642 0.981851
vt 0.299560 1.000000
vt 0.281419 0.917227
vt 0.257896 0.959537
vt 0.339079 0.825294
vt 0.478511 0.705746
vt 0.493728 0.666024
vt 0.158239 0.632558
vt 0.063765 0.598582
vt 0.055319 0.680876
vt 0.138927 0.764729
vt 0.000000 0.543095
vt 0.167148 0.523687
vt 0.073296 0.536108
vt 0.181260 0.500000
vt 0.078272 0.512160
vt 0.045875 0.711650
vt 0.120385 0.811715
vt 0.404013 0.549085
vt 0.268098 0.712528
vt 0.428651 0.511180
vt 0.218559 0.813841
vt 0.185615 0.869004
s 1
usemtl goma
f 12/1/1 11/2/2 29/3/3 28/4/4
f 12/1/1 28/4/4 30/5/5 10/6/6
f 31/7/7 4/8/8 10/6/6 30/5/5
f 32/9/9 31/7/7 30/5/5 28/4/4
f 33/10/10 32/9/9 28/4/4 29/3/3
f 7/11/11 33/10/10 29/3/3 11/2/2
f 35/12/12 36/13/13 37/14/14 34/15/15
f 37/14/14 36/13/13 1/16/16
f 38/17/17 39/18/18 36/13/13 35/12/12
f 36/13/13 39/18/18 1/16/16
f 5/19/19 8/20/20 39/18/18 38/17/17
f 39/18/18 8/20/20 1/16/16
f 9/21/21 37/14/14 1/16/16
f 34/15/15 37/14/14 9/21/21 2/22/22
f 41/23/23 38/17/17 35/12/12 40/24/24
f 6/25/25 5/19/19 38/17/17 41/23/23
f 33/10/10 41/23/23 40/24/24 32/9/9
f 7/11/11 6/25/25 41/23/23 33/10/10
f 35/12/12 34/15/15 42/26/26 40/24/24
f 34/15/15 2/22/22 3/27/27 42/26/26
f 40/24/24 42/26/26 31/7/7 32/9/9
f 42/26/26 3/27/27 4/8/8 31/7/7
f 14/3/28 11/2/2 12/1/1 13/4/29
f 15/5/30 13/4/29 12/1/1 10/6/6
f 10/6/6 4/8/8 16/7/31 15/5/30
f 15/5/30 16/7/31 17/9/32 13/4/29
f 13/4/29 17/9/32 18/10/33 14/3/28
f 14/3/28 18/10/33 7/11/11 11/2/2
f 20/14/34 21/13/35 22/12/36 19/15/37
f 21/13/35 20/14/34 1/16/16
f 21/13/35 23/18/38 24/17/39 22/12/36
f 23/18/38 21/13/35 1/16/16
f 23/18/38 8/20/20 5/19/19 24/17/39
f 8/20/20 23/18/38 1/16/16
f 20/14/34 9/21/21 1/16/16
f 9/21/21 20/14/34 19/15/37 2/22/22
f 22/12/36 24/17/39 26/23/40 25/24/41
f 24/17/39 5/19/19 6/25/25 26/23/40
f 25/24/41 26/23/40 18/10/33 17/9/32
f 26/23/40 6/25/25 7/11/11 18/10/33
f 27/26/42 19/15/37 22/12/36 25/24/41
f 3/27/27 2/22/22 19/15/37 27/26/42
f 16/7/31 27/26/42 25/24/41 17/9/32
f 4/8/8 3/27/27 27/26/42 16/7/31
o head
v -0.000000 1.583090 -0.699894
v -0.245755 1.538226 -0.663523
v -0.184941 1.554328 -0.513688
v -0.000000 1.574164 -0.460501
v -0.000000 1.518463 -0.886053
v -0.154155 1.528215 -0.795282
v -0.385328 1.414496 -0.621004
v -0.270306 1.447599 -0.350239
v 0.000000 1.464596 -0.233530
v -0.459093 1.114429 -0.538223
v -0.304745 1.244506 -0.217363
v 0.000000 1.284995 -0.149626
v -0.376940 0.878300 -0.471302
v -0.276585 0.961601 -0.219175
v 0.000000 1.016458 -0.136446
v -0.000000 0.938227 -1.114315
v -0.228457 0.721668 -0.716302
v 0.000000 0.772120 -0.344439
v -0.000000 0.658812 -0.809770
v -0.346007 0.976980 -0.989713
v -0.280103 0.825259 -0.910809
v -0.000000 0.772532 -1.013642
v -0.000000 1.182139 -1.115188
v -0.367097 1.195071 -0.964560
v -0.000000 1.375534 -1.042905
v -0.311168 1.398492 -0.909009
v 0.459093 1.114429 -0.538223
v 0.376940 0.878300 -0.471302
v 0.228457 0.721668 -0.716302
v 0.280103 0.825259 -0.910809
v 0.276585 0.961601 -0.219175
v 0.304745 1.244506 -0.217363
v 0.367097 1.195071 -0.964560
v 0.311168 1.398492 -0.909009
v 0.385328 1.414496 -0.621004
v 0.245755 1.538226 -0.663523
v 0.154155 1.528215 -0.795282
v 0.270306 1.447599 -0.350239
v 0.184941 1.554328 -0.513688
v 0.346007 0.976980 -0.989713
v -0.113447 0.925094 -1.032687
v -0.399974 1.002503 -1.003442
v -0.512444 1.022083 -0.944732
v -0.395693 1.022130 -1.013443
v -0.109165 0.944721 -1.042687
v -0.113447 0.900140 -1.019972
v -0.109165 0.880513 -1.009972
v -0.395693 0.858672 -0.930157
v -0.399974 0.878299 -0.940157
v -0.512444 0.838553 -0.851219
v 0.399974 1.002503 -1.003442
v 0.395693 1.022130 -1.013443
v 0.512444 1.022083 -0.944732
v 0.113447 0.925094 -1.032687
v 0.109165 0.944721 -1.042687
v 0.113447 0.900140 -1.019972
v 0.399974 0.878299 -0.940157
v 0.395693 0.858672 -0.930157
v 0.109165 0.880513 -1.009972
v 0.512444 0.838553 -0.851219
v -0.141942 0.886945 -1.044136
v -0.125594 0.910247 -1.067604
v -0.099916 0.847006 -1.058304
v -0.095079 0.878733 -1.079429
v -0.033303 0.851939 -1.082634
v -0.053574 0.877673 -1.097534
v -0.000000 0.900863 -1.114357
v -0.029103 0.908965 -1.116377
v -0.029103 0.938075 -1.127261
v 0.029103 0.908965 -1.116377
v 0.029103 0.938075 -1.127261
v -0.042842 0.988303 -1.140177
v -0.060588 0.958512 -1.132749
v 0.060588 0.958512 -1.132749
v 0.042842 0.988303 -1.140177
v 0.033303 0.851939 -1.082634
v 0.053574 0.877673 -1.097534
v 0.095079 0.878733 -1.079429
v 0.099916 0.847006 -1.058304
v 0.125594 0.910247 -1.067604
v 0.141942 0.886945 -1.044136
v -0.132016 1.307251 -1.029249
v -0.114965 1.303243 -1.035861
v -0.104154 1.289491 -1.042537
v -0.103714 1.271248 -1.046725
v -0.113812 1.255483 -1.046827
v -0.130592 1.248216 -1.042804
v -0.147643 1.252224 -1.036192
v -0.158454 1.265976 -1.029516
v -0.158894 1.284219 -1.025328
v -0.148796 1.299985 -1.025226
v 0.132016 1.307251 -1.029249
v 0.148796 1.299985 -1.025226
v 0.158894 1.284219 -1.025328
v 0.158454 1.265976 -1.029516
v 0.147643 1.252224 -1.036192
v 0.130592 1.248216 -1.042804
v 0.113812 1.255483 -1.046827
v 0.103714 1.271248 -1.046725
v 0.104154 1.289491 -1.042537
v 0.114965 1.303243 -1.035861
vn 0.5340 -0.8446 -0.0383
vn 0.7715 -0.5844 0.2515
vn -0.0000 -0.8667 0.4989
vn -0.7715 -0.5844 0.2515
vn -0.5340 -0.8446 -0.0383
vn 0.5357 -0.4144 0.7357
vn -0.5357 -0.4144 0.7357
vn -0.0000 -0.2871 0.9579
vn 0.6395 -0.6281 -0.4433
vn 0.9931 -0.0367 0.1114
vn 0.7654 0.1523 -0.6253
vn 0.6366 0.5378 -0.5527
vn 0.8486 0.5291 0.0046
vn 0.4688 0.8793 -0.0843
vn 0.3130 0.8684 -0.3847
vn -0.0000 0.9884 -0.1517
vn -0.0000 0.8454 -0.5341
vn -0.0000 0.5472 -0.8370
vn 0.5887 0.6403 0.4933
vn 0.6432 0.2023 0.7385
vn 0.3507 0.9159 0.1953
vn 0.7275 -0.2725 -0.6297
vn -0.0000 -0.9842 -0.1773
vn -0.0000 -0.7362 -0.6768
vn -0.0000 0.9646 0.2638
vn -0.0000 0.7058 0.7084
vn -0.0000 0.1869 -0.9824
vn -0.0000 0.2808 0.9598
vn -0.0000 -0.2730 -0.9620
vn -0.6395 -0.6281 -0.4433
vn -0.9931 -0.0367 0.1114
vn -0.8486 0.5291 0.0046
vn -0.6366 0.5378 -0.5527
vn -0.7654 0.1523 -0.6253
vn -0.3130 0.8684 -0.3847
vn -0.4688 0.8793 -0.0843
vn -0.6432 0.2023 0.7385
vn -0.5887 0.6403 0.4933
vn -0.3507 0.9159 0.1953
vn -0.7275 -0.2725 -0.6297
vn 0.4530 -0.4643 -0.7610
vn 0.6019 -0.3500 -0.7178
vn 0.4538 -0.4638 -0.7609
vn -0.6019 -0.3500 -0.7178
vn -0.4530 -0.4643 -0.7610
vn -0.4538 -0.4638 -0.7609
vn 0.1692 -0.5387 -0.8254
vn 0.1748 -0.5401 -0.8233
vn 0.0263 -0.3947 -0.9184
vn -0.0000 -0.3947 -0.9188
vn -0.1692 -0.5387 -0.8254
vn -0.1748 -0.5401 -0.8233
vn -0.0263 -0.3947 -0.9184
vn -0.0000 -0.2744 -0.9616
vn 0.3115 0.2055 -0.9278
vn -0.3115 0.2055 -0.9278
vn -0.4818 -0.3121 -0.8188
vn -0.3248 -0.3722 -0.8695
vn -0.3557 -0.3616 -0.8618
vn -0.2014 -0.4094 -0.8898
vn -0.2014 -0.4792 -0.8543
vn -0.3267 -0.4847 -0.8114
vn -0.3040 -0.4843 -0.8204
vn -0.4320 -0.4825 -0.7620
vn 0.3248 -0.3722 -0.8695
vn 0.4818 -0.3121 -0.8188
vn 0.3557 -0.3616 -0.8618
vn 0.2014 -0.4094 -0.8898
vn 0.3040 -0.4843 -0.8204
vn 0.3267 -0.4847 -0.8114
vn 0.2014 -0.4792 -0.8543
vn 0.4320 -0.4825 -0.7620
vt 0.296225 0.534003
vt 0.171064 0.618735
vt 0.106255 0.561295
vt 0.042263 0.663798
vt 0.000000 0.693473
vt 0.395591 0.590042
vt 0.205252 0.746472
vt 0.423050 0.790096
vt 0.394671 0.900139
vt 0.247541 0.908797
vt 0.269262 0.975730
vt 0.336573 0.970315
vt 0.287843 1.000000
vt 0.382944 0.965039
vt 0.463073 0.887720
vt 0.109218 0.926704
vt 0.041337 0.816839
vt 0.192718 0.984441
vt 0.435900 0.672117
vt 0.343974 0.500000
vt 0.448124 0.561518
vt 0.165547 0.995171
vt 0.049596 0.935899
vt 0.500000 0.783100
vt 0.006733 0.838742
vt 0.499554 0.651153
vt 0.203615 0.042863
vt 0.188728 0.076482
vt 0.180752 0.051624
vt 0.201255 0.009018
vt 0.319248 0.051624
vt 0.311272 0.076482
vt 0.296385 0.042863
vt 0.298745 0.009018
vt 0.223863 0.041733
vt 0.233753 0.014280
vt 0.235802 0.075114
vt 0.250000 0.066471
vt 0.276137 0.041733
vt 0.266247 0.014280
vt 0.264198 0.075114
vt 0.229099 0.159751
vt 0.220442 0.127970
vt 0.235802 0.106169
vt 0.264198 0.106169
vt 0.279558 0.127970
vt 0.270901 0.159751
vt 0.177409 0.492249
vt 0.172482 0.475430
vt 0.172697 0.455968
vt 0.177971 0.441298
vt 0.186290 0.437022
vt 0.194476 0.444775
vt 0.199402 0.461593
vt 0.199188 0.481054
vt 0.193913 0.495724
vt 0.185595 0.500000
vt 0.306087 0.495724
vt 0.300812 0.481054
vt 0.300598 0.461593
vt 0.305524 0.444775
vt 0.313710 0.437022
vt 0.322029 0.441298
vt 0.327303 0.455968
vt 0.327518 0.475430
vt 0.322591 0.492249
vt 0.314405 0.500000
vt 0.500000 0.195787
vt 0.443042 0.195837
vt 0.445131 0.174899
vt 0.303257 0.113258
vt 0.305346 0.092321
vt 0.303257 0.044762
vt 0.443042 0.021463
vt 0.445131 0.042400
vt 0.305346 0.065700
vt 0.500000 0.000000
vt 0.056958 0.195837
vt 0.000000 0.195787
vt 0.054869 0.174899
vt 0.196743 0.113258
vt 0.194654 0.092321
vt 0.054869 0.042400
vt 0.056958 0.021463
vt 0.196743 0.044762
vt 0.194654 0.065700
vt 0.000000 0.000000
s 1
usemtl goma
f 71/28/43 70/29/44 60/30/45
f 60/30/45 55/29/46 59/28/47
f 70/29/44 73/31/48 60/30/45
f 60/30/45 56/31/49 55/29/46
f 73/31/48 57/32/50 60/30/45
f 60/30/45 57/32/50 56/31/49
f 70/29/44 71/28/43 72/33/51 69/34/52
f 75/35/53 76/36/54 77/37/55 69/34/52
f 78/38/56 79/39/57 43/40/58
f 47/41/59 79/39/57 76/36/54 67/42/60
f 76/36/54 79/39/57 78/38/56 77/37/55
f 77/37/55 80/43/61 74/44/62 69/34/52
f 78/38/56 81/45/63 80/43/61 77/37/55
f 82/46/64 75/35/53 69/34/52
f 72/33/51 82/46/64 69/34/52
f 72/33/51 71/28/43 61/47/65 64/48/66
f 81/45/63 78/38/56 43/40/58 46/49/67
f 79/39/57 47/41/59 43/40/58
f 81/45/63 46/49/67 51/50/68 80/43/61
f 75/35/53 65/51/69 67/42/60 76/36/54
f 80/43/61 51/50/68 54/52/70 74/44/62
f 74/44/62 73/31/48 70/29/44 69/34/52
f 57/32/50 73/31/48 74/44/62 54/52/70
f 75/35/53 82/46/64 58/53/71 65/51/69
f 71/28/43 60/30/45 61/47/65
f 72/33/51 64/48/66 58/53/71 82/46/64
f 63/33/72 59/28/47 55/29/46 52/34/73
f 49/37/74 68/36/75 66/35/76 52/34/73
f 48/39/77 44/38/78 43/40/58
f 68/36/75 48/39/77 47/41/59 67/42/60
f 44/38/78 48/39/77 68/36/75 49/37/74
f 53/44/79 50/43/80 49/37/74 52/34/73
f 50/43/80 45/45/81 44/38/78 49/37/74
f 66/35/76 62/46/82 52/34/73
f 62/46/82 63/33/72 52/34/73
f 61/47/65 59/28/47 63/33/72 64/48/66
f 43/40/58 44/38/78 45/45/81 46/49/67
f 47/41/59 48/39/77 43/40/58
f 51/50/68 46/49/67 45/45/81 50/43/80
f 67/42/60 65/51/69 66/35/76 68/36/75
f 54/52/70 51/50/68 50/43/80 53/44/79
f 55/29/46 56/31/49 53/44/79 52/34/73
f 53/44/79 56/31/49 57/32/50 54/52/70
f 58/53/71 62/46/82 66/35/76 65/51/69
f 60/30/45 59/28/47 61/47/65
f 58/53/71 64/48/66 63/33/72 62/46/82
f 120/54/83 122/55/84 123/56/84 121/57/85
f 103/58/86 104/59/86 106/60/87 105/61/88
f 119/62/89 120/54/83 121/57/85 118/63/90
f 112/64/91 119/62/89 118/63/90 109/65/92
f 105/61/88 106/60/87 108/66/93 107/67/94
f 107/67/94 108/66/93 110/68/95 109/65/92
f 117/69/96 116/70/96 113/71/96 112/64/91 109/65/92 110/68/95 111/72/96 115/73/96 114/74/96
f 135/75/97 136/76/97 137/77/97 138/78/97 139/79/97 140/80/97 141/81/97 142/82/97 143/83/97 134/84/97
f 125/85/98 126/86/98 127/87/98 128/88/98 129/89/98 130/90/98 131/91/98 132/92/98 133/93/98 124/94/98
f 85/95/99 86/96/100 84/97/101
f 84/97/101 86/96/100 87/98/102 83/99/102
f 89/100/103 90/101/104 91/102/105 88/103/103
f 90/101/104 92/104/106 91/102/105
f 94/105/107 95/106/108 93/107/109
f 97/108/110 94/105/107 93/107/109 96/109/110
f 99/110/111 100/111/112 101/112/113 98/113/113
f 102/114/114 100/111/112 99/110/111
o handRight
v 0.200000 0.386000 -0.161878
v 0.200000 0.086000 -0.161878
v 0.400000 -0.000000 -0.132984
v 0.660722 -0.000000 -0.104928
v 0.660722 0.201711 -0.104928
v 0.200000 0.386000 -0.469983
v 0.200000 0.086000 -0.469983
v 0.400000 0.301378 -0.555000
v 0.400000 0.000000 -0.555000
v 0.667529 0.198988 -0.540372
v 0.667529 0.000000 -0.540372
v 0.846417 0.000000 -0.381679
v 0.892500 -0.000000 -0.185000
v 0.846417 0.127433 -0.381679
v 0.892500 0.109000 -0.185000
vn -0.1724 -0.6401 0.7487
vn -0.1731 -0.6937 0.6992
vn -0.0034 -0.6593 0.7519
vn 0.2812 0.6119 0.7393
vn 0.2374 0.7779 0.5819
vn -0.1866 -0.6773 -0.7117
vn -0.3562 -0.6843 -0.6362
vn 0.1179 0.8456 -0.5207
vn 0.0797 0.6412 -0.7632
vn 0.4520 0.5579 -0.6960
vn 0.2178 -0.6503 -0.7278
vn 0.6092 -0.6765 -0.4138
vn 0.6747 -0.6108 0.4144
vn 0.7785 0.5027 -0.3757
vn 0.8066 0.4287 0.4070
vt 0.500000 0.563268
vt 0.355596 0.531168
vt 0.167349 0.500000
vt 0.355596 1.000000
vt 0.500000 0.905552
vt 0.162434 0.983749
vt 0.033273 0.807452
vt 0.000000 0.588955
s 1
usemtl goma
f 145/115/115 146/116/116 147/117/117 148/117/118 144/115/119
f 152/118/120 150/119/121 149/119/122 151/118/123
f 153/120/124 154/120/125 152/118/120 151/118/123
f 150/119/121 152/118/120 154/120/125 155/121/126 156/122/127 147/117/117 146/116/116 145/115/115
f 157/121/128 158/122/129 156/122/127 155/121/126
f 147/117/117 156/122/127 158/122/129 148/117/118
f 153/120/124 157/121/128 155/121/126 154/120/125
f 148/117/118 158/122/129 157/121/128 153/120/124 151/118/123 149/119/122 144/115/119
o handLeft
v -0.200000 0.386000 -0.161878
v -0.660722 0.201711 -0.104928
v -0.660722 -0.000000 -0.104928
v -0.400000 -0.000000 -0.132984
v -0.200000 0.086000 -0.161878
v -0.400000 0.301378 -0.555000
v -0.200000 0.386000 -0.469983
v -0.200000 0.086000 -0.469983
v -0.400000 0.000000 -0.555000
v -0.667529 0.000000 -0.540372
v -0.667529 0.198988 -0.540372
v -0.892500 -0.000000 -0.185000
v -0.846417 0.000000 -0.381679
v -0.892500 0.109000 -0.185000
v -0.846417 0.127433 -0.381679
vn -0.2812 0.6119 0.7393
vn 0.0034 -0.6593 0.7519
vn 0.1731 -0.6937 0.6992
vn 0.1724 -0.6401 0.7487
vn -0.2374 0.7779 0.5819
vn -0.1179 0.8456 -0.5207
vn 0.3562 -0.6843 -0.6362
vn 0.1866 -0.6773 -0.7117
vn -0.0797 0.6412 -0.7632
vn -0.2178 -0.6503 -0.7278
vn -0.4520 0.5579 -0.6960
vn -0.6747 -0.6108 0.4144
vn -0.6092 -0.6765 -0.4138
vn -0.8066 0.4287 0.4070
vn -0.7785 0.5027 -0.3757
vt 0.332651 0.500000
vt 0.144404 0.531168
vt 0.000000 0.563268
vt 0.000000 0.905552
vt 0.144404 1.000000
vt 0.337566 0.983749
vt 0.500000 0.588955
vt 0.466727 0.807452
s 1
usemtl goma
f 160/123/130 161/123/131 162/124/132 163/125/133 159/125/134
f 165/126/135 166/126/136 167/127/137 164/127/138
f 167/127/137 168/128/139 169/128/140 164/127/138
f 162/124/132 161/123/131 170/129/141 171/130/142 168/128/139 167/127/137 166/126/136 163/125/133
f 170/129/141 172/129/143 173/130/144 171/130/142
f 172/129/143 170/129/141 161/123/131 160/123/130
f 171/130/142 173/130/144 169/128/140 168/128/139
f 165/126/135 164/127/138 169/128/140 173/130/144 172/129/143 160/123/130 159/125/134
o tail
v -0.356627 -0.016767 1.052079
v -0.268263 0.019116 0.825546
v -0.000000 0.056607 0.588863
v 0.000000 0.013448 0.861330
v -0.100664 -0.020871 1.077986
v -0.320000 -0.039469 1.195403
v -0.344476 0.050097 1.062671
v -0.309096 0.036758 1.207477
v -0.097234 0.111426 1.098942
v 0.000000 0.171478 0.886362
v -0.000000 0.214637 0.613895
v -0.259122 0.108569 0.839715
v 0.356627 -0.016767 1.052079
v 0.344476 0.050097 1.062671
v 0.309096 0.036758 1.207477
v 0.320000 -0.039469 1.195402
v 0.097234 0.111426 1.098942
v 0.100664 -0.020871 1.077986
v 0.259122 0.108569 0.839715
v 0.268263 0.019116 0.825546
vn -0.0000 -0.5568 0.8307
vn -0.5389 -0.7755 0.3288
vn 0.3270 -0.8725 0.3629
vn 0.1712 0.7077 0.6855
vn -0.4093 0.6672 0.6224
vn -0.0000 0.8762 0.4820
vn 0.6845 -0.5742 -0.4492
vn -0.0000 -0.4337 -0.9011
vn -0.0000 0.7525 -0.6586
vn 0.7193 0.6529 -0.2373
vn 0.7429 0.6691 0.0188
vn 0.7472 -0.6303 -0.2107
vn 0.5389 -0.7755 0.3288
vn -0.3270 -0.8725 0.3629
vn -0.7472 -0.6303 -0.2107
vn -0.6845 -0.5742 -0.4492
vn 0.4093 0.6672 0.6224
vn -0.1712 0.7077 0.6855
vn -0.7193 0.6529 -0.2373
vn -0.7429 0.6691 0.0188
vt 0.250000 0.775392
vt 0.179433 0.596792
vt 0.025676 0.500000
vt 0.033320 0.500000
vt 0.181838 0.596792
vt 0.061944 0.804891
vt 0.250000 1.000000
vt 0.068352 0.804891
vt 0.008518 0.618148
vt 0.000000 0.618148
vt 0.320567 0.596792
vt 0.474324 0.500000
vt 0.500000 0.618148
vt 0.438056 0.804891
vt 0.318162 0.596792
vt 0.466680 0.500000
vt 0.431648 0.804891
vt 0.491482 0.618148
s 1
usemtl goma
f 177/131/145 191/132/146 189/133/147 188/134/148 190/135/149 183/131/150
f 193/136/151 176/137/152 184/137/153 192/138/154
f 192/138/154 187/139/155 188/134/148 189/133/147 186/140/156 193/136/151
f 187/139/155 192/138/154 184/137/153 183/131/150 190/135/149 188/134/148
f 193/136/151 186/140/156 189/133/147 191/132/146 177/131/145 178/141/157 179/142/158 174/143/159 175/144/160 176/137/152
f 178/141/157 177/131/145 183/131/150 182/145/161 181/146/162 179/142/158
f 184/137/153 176/137/152 175/144/160 185/147/163
f 174/143/159 179/142/158 181/146/162 180/148/164 185/147/163 175/144/160
f 182/145/161 183/131/150 184/137/153 185/147/163 180/148/164 181/146/162
o eyes
v 0.210297 1.196636 -1.048837
v 0.246084 1.183632 -1.033128
v 0.268202 1.150142 -1.023864
v 0.268202 1.108958 -1.024582
v 0.246084 1.075812 -1.035010
v 0.210297 1.063364 -1.051163
v 0.174509 1.076368 -1.066872
v 0.152392 1.109858 -1.076136
v 0.152392 1.151042 -1.075418
v 0.174509 1.184188 -1.064990
v -0.210297 1.196636 -1.048837
v -0.174509 1.184188 -1.064990
v -0.152392 1.151042 -1.075418
v -0.152392 1.109858 -1.076136
v -0.174509 1.076368 -1.066872
v -0.210297 1.063364 -1.051163
v -0.246084 1.075812 -1.035010
v -0.268202 1.108958 -1.024582
v -0.268202 1.150142 -1.023864
v -0.246084 1.183632 -1.033128
vn -0.4067 0.0159 -0.9134
vn 0.4067 0.0159 -0.9134
vt 0.412666 0.453299
vt 0.392050 0.328944
vt 0.392050 0.174433
vt 0.412666 0.048787
vt 0.446025 0.000000
vt 0.479383 0.046701
vt 0.500000 0.171056
vt 0.500000 0.325567
vt 0.479383 0.451213
vt 0.446025 0.500000
vt 0.020617 0.451213
vt 0.000000 0.325567
vt 0.000000 0.171056
vt 0.020617 0.046701
vt 0.053975 0.000000
vt 0.087334 0.048787
vt 0.107950 0.174433
vt 0.107950 0.328944
vt 0.087334 0.453299
vt 0.053975 0.500000
s 1
usemtl goma
f 205/149/165 206/150/165 207/151/165 208/152/165 209/153/165 210/154/165 211/155/165 212/156/165 213/157/165 204/158/165
f 195/159/166 196/160/166 197/161/166 198/162/166 199/163/166 200/164/166 201/165/166 202/166/166 203/167/166 194/168/166
